<?xml version="1.0" encoding="UTF-8"?>
<!DOCTYPE svg PUBLIC "-//W3C//DTD SVG 1.1//EN" "http://www.w3.org/Graphics/SVG/1.1/DTD/svg11.dtd">
<!-- Creator: CorelDRAW X7 -->
<svg xmlns="http://www.w3.org/2000/svg" xml:space="preserve" width="5.33333in" height="1.66666in" version="1.1" style="shape-rendering:geometricPrecision; text-rendering:geometricPrecision; image-rendering:optimizeQuality; fill-rule:evenodd; clip-rule:evenodd"
viewBox="0 0 5333 1667"
 xmlns:xlink="http://www.w3.org/1999/xlink">
 <defs>
  <style type="text/css">
   <![CDATA[
    .fil0 {fill:#673B84}
    .fil1 {fill:#FEFEFE;fill-rule:nonzero}
   ]]>
  </style>
 </defs>
 <g id="Layer_x0020_1">
  <metadata id="CorelCorpID_0Corel-Layer"/>
  <rect class="fil0" width="5333" height="1667"/>
  <path class="fil1" d="M1387 990c24,-9 38,-29 38,-51 0,-23 -12,-58 -83,-58 -21,0 -41,2 -54,5l0 229c10,1 25,3 46,3 38,0 64,-7 79,-22 9,-8 20,-22 20,-47 0,-32 -22,-52 -46,-58l0 -1zm-64 -10l0 -70c4,-1 11,-2 22,-2 22,0 45,7 45,35 0,21 -18,37 -46,37l-21 0zm0 26l20 0c27,0 54,11 54,42 0,31 -25,43 -53,43 -9,0 -16,0 -21,-1l0 -84z"/>
  <path id="1" class="fil1" d="M1554 945c-4,0 -6,-1 -9,-1 -19,0 -36,13 -44,35l-1 0 -1 -31 -31 0c1,16 1,32 1,51l0 117 35 0 0 -89c0,-29 15,-49 39,-49 4,0 7,0 11,1l0 -34z"/>
  <path id="2" class="fil1" d="M1699 1013c0,-36 -14,-69 -64,-69 -22,0 -42,7 -54,14l8 24c10,-7 25,-12 40,-12 34,0 34,25 34,38 -57,0 -94,20 -94,62 0,26 18,49 50,49 21,0 37,-10 47,-23l1 0 2 20 32 0c-2,-11 -2,-26 -2,-40l0 -63zm-35 46c0,20 -16,34 -35,34 -13,0 -25,-8 -25,-26 0,-30 32,-36 60,-36l0 28z"/>
  <path id="3" class="fil1" d="M1781 902c0,-12 -8,-21 -20,-21 -12,0 -21,9 -21,21 0,11 9,20 21,20 12,0 20,-9 20,-20zm-3 46l-35 0 0 168 35 0 0 -168z"/>
  <path id="4" class="fil1" d="M1962 1013c0,-52 -29,-69 -55,-69 -25,0 -43,15 -51,29l-1 0 -2 -25 -30 0c0,14 1,29 1,47l0 121 35 0 0 -101c0,-27 19,-41 36,-41 24,0 32,20 32,43l0 99 35 0 0 -103z"/>
  <path id="5" class="fil1" d="M2098 954c-9,-5 -23,-10 -40,-10 -35,0 -58,23 -58,51 0,19 13,36 43,48 20,8 27,15 27,28 0,13 -9,22 -28,22 -14,0 -30,-6 -38,-11l-8 26c11,7 28,11 46,11 38,0 62,-19 62,-51 0,-25 -14,-40 -42,-51 -20,-9 -28,-15 -28,-26 0,-12 9,-21 24,-21 14,0 26,5 32,10l8 -26z"/>
  <path id="6" class="fil1" d="M2146 948l-24 0 0 26 24 0 0 87c0,22 4,36 12,45 8,9 19,13 34,13 11,0 21,-1 27,-4l-1 -27c-5,1 -9,2 -16,2 -15,0 -21,-10 -21,-31l0 -85 40 0 0 -26 -40 0 0 -41 -35 11 0 30z"/>
  <path id="7" class="fil1" d="M2369 1013c0,-36 -14,-69 -63,-69 -23,0 -43,7 -54,14l7 24c11,-7 26,-12 41,-12 33,0 33,25 33,38 -57,0 -93,20 -93,62 0,26 18,49 49,49 21,0 37,-10 47,-23l1 0 2 20 32 0c-2,-11 -2,-26 -2,-40l0 -63zm-35 46c0,20 -15,34 -35,34 -13,0 -24,-8 -24,-26 0,-30 32,-36 59,-36l0 28z"/>
  <path id="8" class="fil1" d="M2521 1084c-7,4 -17,7 -31,7 -29,0 -51,-22 -51,-59 0,-33 18,-60 51,-60 14,0 24,4 30,7l7 -27c-7,-4 -21,-8 -37,-8 -54,0 -87,39 -87,90 0,52 32,85 80,85 20,0 35,-5 43,-8l-5 -27z"/>
  <path id="9" class="fil1" d="M2631 1017l59 -69 -41 0 -42 56c-4,6 -9,13 -13,20l-1 0 0 -152 -35 0 0 244 35 0 0 -60 14 -17 48 77 43 0 -67 -99z"/>
  <path id="10" class="fil1" d="M2905 890c-10,-5 -26,-11 -49,-11 -46,0 -76,28 -76,65 0,31 24,52 59,66 27,12 39,24 39,44 0,21 -15,35 -43,35 -19,0 -38,-6 -51,-13l-7 29c11,8 34,14 56,14 52,0 81,-29 81,-68 0,-32 -18,-52 -55,-69 -30,-13 -43,-22 -43,-42 0,-15 12,-31 39,-31 20,0 34,6 42,10l8 -29z"/>
  <path id="11" class="fil1" d="M3019 944c-45,0 -79,32 -79,89 0,54 33,86 76,86 38,0 79,-26 79,-88 0,-52 -30,-87 -76,-87zm40 87c0,34 -16,62 -42,62 -26,0 -41,-28 -41,-61 0,-29 11,-61 42,-61 29,0 41,33 41,60z"/>
  <polygon id="12" class="fil1" points="3165,872 3130,872 3130,1116 3165,1116 "/>
  <path id="13" class="fil1" d="M3347 948l-35 0 0 104c0,25 -19,38 -36,38 -23,0 -31,-19 -31,-48l0 -94 -35 0 0 100c0,53 25,71 54,71 27,0 44,-16 51,-28l0 0 2 25 31 0c0,-14 -1,-29 -1,-48l0 -120z"/>
  <path id="14" class="fil1" d="M3399 948l-23 0 0 26 23 0 0 87c0,22 4,36 13,45 7,9 19,13 33,13 12,0 21,-1 27,-4l-1 -27c-4,1 -8,2 -15,2 -15,0 -22,-10 -22,-31l0 -85 40 0 0 -26 -40 0 0 -41 -35 11 0 30z"/>
  <path id="15" class="fil1" d="M3543 902c0,-12 -8,-21 -20,-21 -13,0 -21,9 -21,21 0,11 8,20 20,20 13,0 21,-9 21,-20zm-3 46l-35 0 0 168 35 0 0 -168z"/>
  <path id="16" class="fil1" d="M3654 944c-44,0 -79,32 -79,89 0,54 33,86 77,86 37,0 78,-26 78,-88 0,-52 -30,-87 -76,-87zm40 87c0,34 -16,62 -42,62 -25,0 -41,-28 -41,-61 0,-29 12,-61 42,-61 29,0 41,33 41,60z"/>
  <path id="17" class="fil1" d="M3904 1013c0,-52 -29,-69 -56,-69 -25,0 -43,15 -50,29l-1 0 -2 -25 -31 0c1,14 1,29 1,47l0 121 36 0 0 -101c0,-27 18,-41 36,-41 24,0 31,20 31,43l0 99 36 0 0 -103z"/>
  <path id="18" class="fil1" d="M4040 954c-9,-5 -24,-10 -40,-10 -36,0 -58,23 -58,51 0,19 13,36 43,48 20,8 27,15 27,28 0,13 -9,22 -28,22 -15,0 -30,-6 -39,-11l-8 26c12,7 28,11 46,11 38,0 63,-19 63,-51 0,-25 -15,-40 -43,-51 -20,-9 -28,-15 -28,-26 0,-12 9,-21 25,-21 14,0 25,5 32,10l8 -26z"/>
  <polygon class="fil1" points="1914,1358 1914,1279 1885,1279 1885,1268 1956,1268 1956,1279 1926,1279 1926,1358 "/>
  <path id="1" class="fil1" d="M1966 1358l0 -90 11 0 0 32c6,-6 12,-9 20,-9 5,0 9,1 12,3 4,2 6,5 8,8 1,3 2,8 2,15l0 41 -11 0 0 -41c0,-6 -1,-10 -4,-12 -2,-3 -5,-4 -10,-4 -3,0 -6,1 -9,2 -3,2 -5,4 -6,7 -1,3 -2,7 -2,12l0 36 -11 0z"/>
  <path id="2" class="fil1" d="M2080 1337l12 1c-2,7 -6,12 -10,16 -5,3 -11,5 -19,5 -9,0 -17,-3 -22,-9 -6,-6 -9,-14 -9,-24 0,-11 3,-20 9,-26 5,-6 13,-9 22,-9 8,0 15,3 21,9 5,6 8,14 8,25 0,1 0,2 0,3l-48 0c0,7 2,13 6,16 3,4 8,6 13,6 4,0 8,-1 10,-3 3,-2 6,-6 7,-10zm-36 -18l36 0c0,-5 -2,-10 -4,-12 -3,-4 -8,-7 -13,-7 -5,0 -10,2 -13,5 -4,4 -5,8 -6,14z"/>
  <path id="3" class="fil1" d="M2205 1326l12 3c-2,10 -7,17 -13,22 -7,6 -15,8 -24,8 -9,0 -17,-2 -23,-6 -6,-4 -11,-9 -14,-17 -3,-7 -5,-15 -5,-24 0,-9 2,-17 6,-24 3,-7 8,-12 15,-16 6,-4 13,-5 21,-5 9,0 17,2 23,6 6,5 10,11 13,20l-12 2c-2,-6 -5,-11 -9,-14 -4,-3 -9,-4 -15,-4 -7,0 -12,1 -17,5 -5,3 -8,7 -10,13 -2,6 -3,11 -3,17 0,8 2,14 4,20 2,6 5,10 10,13 5,3 10,4 15,4 7,0 12,-2 17,-6 5,-4 8,-9 9,-17z"/>
  <path id="4" class="fil1" d="M2226 1325c0,-12 4,-21 10,-26 6,-5 13,-8 21,-8 9,0 16,3 22,9 5,6 8,14 8,24 0,9 -1,15 -4,20 -2,5 -6,8 -11,11 -4,3 -10,4 -15,4 -9,0 -17,-3 -22,-9 -6,-5 -9,-14 -9,-25zm12 0c0,9 1,15 5,19 4,4 8,6 14,6 5,0 10,-2 13,-6 4,-4 6,-11 6,-19 0,-8 -2,-14 -6,-18 -3,-4 -8,-6 -13,-6 -6,0 -10,2 -14,6 -4,4 -5,10 -5,18z"/>
  <path id="5" class="fil1" d="M2300 1358l0 -65 10 0 0 9c2,-3 5,-6 8,-8 3,-2 7,-3 11,-3 5,0 9,1 12,3 3,2 5,5 7,9 5,-8 12,-12 20,-12 6,0 11,2 15,6 3,3 5,9 5,16l0 45 -11 0 0 -41c0,-5 0,-8 -1,-10 -1,-2 -2,-3 -4,-4 -2,-2 -4,-2 -7,-2 -4,0 -8,1 -11,4 -3,3 -5,8 -5,15l0 38 -11 0 0 -42c0,-5 0,-9 -2,-11 -2,-3 -5,-4 -9,-4 -3,0 -6,1 -9,2 -2,2 -4,4 -5,7 -1,4 -2,8 -2,14l0 34 -11 0z"/>
  <path id="6" class="fil1" d="M2404 1383l0 -90 10 0 0 8c2,-3 5,-5 8,-7 3,-2 7,-3 11,-3 5,0 10,2 15,5 4,3 7,7 9,12 2,5 3,11 3,17 0,6 -1,12 -3,18 -3,5 -6,9 -11,12 -4,3 -9,4 -14,4 -4,0 -7,-1 -10,-2 -3,-2 -5,-4 -7,-6l0 32 -11 0zm10 -57c0,8 2,14 5,18 4,4 8,6 12,6 5,0 9,-2 13,-6 3,-4 5,-11 5,-19 0,-9 -2,-15 -5,-19 -3,-4 -7,-6 -12,-6 -5,0 -9,2 -13,7 -3,4 -5,10 -5,19z"/>
  <polygon id="7" class="fil1" points="2473,1358 2473,1268 2484,1268 2484,1358 "/>
  <path id="8" class="fil1" d="M2546 1337l11 1c-2,7 -5,12 -10,16 -5,3 -11,5 -18,5 -10,0 -17,-3 -23,-9 -5,-6 -8,-14 -8,-24 0,-11 3,-20 8,-26 6,-6 13,-9 22,-9 9,0 16,3 21,9 6,6 8,14 8,25 0,1 0,2 0,3l-48 0c0,7 2,13 6,16 4,4 8,6 14,6 4,0 7,-1 10,-3 3,-2 5,-6 7,-10zm-36 -18l36 0c-1,-5 -2,-10 -4,-12 -4,-4 -8,-7 -14,-7 -5,0 -9,2 -13,5 -3,4 -5,8 -5,14z"/>
  <path id="9" class="fil1" d="M2595 1348l1 10c-3,0 -6,1 -8,1 -4,0 -7,-1 -9,-2 -2,-2 -4,-3 -5,-5 -1,-2 -1,-7 -1,-13l0 -38 -8 0 0 -8 8 0 0 -16 11 -7 0 23 11 0 0 8 -11 0 0 38c0,3 0,5 0,6 1,1 1,2 2,2 1,1 2,1 4,1 1,0 3,0 5,0z"/>
  <path id="10" class="fil1" d="M2650 1337l11 1c-2,7 -5,12 -10,16 -4,3 -11,5 -18,5 -10,0 -17,-3 -23,-9 -5,-6 -8,-14 -8,-24 0,-11 3,-20 8,-26 6,-6 13,-9 22,-9 9,0 16,3 21,9 6,6 9,14 9,25 0,1 0,2 0,3l-49 0c1,7 3,13 6,16 4,4 8,6 14,6 4,0 7,-1 10,-3 3,-2 5,-6 7,-10zm-36 -18l36 0c0,-5 -2,-10 -4,-12 -4,-4 -8,-7 -14,-7 -5,0 -9,2 -12,5 -4,4 -6,8 -6,14z"/>
  <polygon id="11" class="fil1" points="2713,1358 2713,1268 2725,1268 2725,1358 "/>
  <polygon id="12" class="fil1" points="2769,1358 2769,1279 2739,1279 2739,1268 2810,1268 2810,1279 2781,1279 2781,1358 "/>
  <path id="13" class="fil1" d="M2897 1323l0 -11 38 0 0 33c-6,5 -12,8 -18,11 -7,2 -13,3 -19,3 -9,0 -17,-2 -24,-5 -8,-4 -13,-10 -17,-17 -3,-7 -5,-15 -5,-24 0,-8 2,-16 5,-24 4,-8 9,-13 16,-17 7,-4 15,-5 24,-5 6,0 12,1 17,3 5,2 9,5 12,9 3,3 6,8 7,14l-10 3c-2,-4 -3,-8 -5,-11 -2,-2 -5,-4 -9,-6 -4,-1 -8,-2 -12,-2 -6,0 -10,1 -14,2 -4,2 -7,4 -10,7 -2,2 -4,5 -6,9 -2,5 -3,11 -3,18 0,8 1,14 4,20 3,5 7,9 12,12 5,2 11,4 17,4 5,0 10,-1 15,-3 5,-2 8,-4 11,-7l0 -16 -26 0z"/>
  <path id="14" class="fil1" d="M2993 1358l0 -10c-5,7 -12,11 -20,11 -4,0 -8,-1 -11,-2 -3,-2 -6,-3 -8,-6 -1,-2 -2,-5 -3,-8 0,-2 -1,-5 -1,-10l0 -40 11 0 0 36c0,5 1,9 1,11 1,3 2,5 4,7 3,2 5,3 9,3 3,0 6,-1 9,-3 3,-2 5,-4 6,-7 1,-3 2,-7 2,-13l0 -34 11 0 0 65 -10 0z"/>
  <path id="15" class="fil1" d="M3020 1358l0 -65 10 0 0 10c2,-5 5,-8 7,-9 2,-2 4,-3 7,-3 4,0 7,2 11,4l-4 10c-2,-1 -5,-2 -8,-2 -2,0 -4,1 -6,2 -2,1 -3,3 -4,6 -1,4 -2,8 -2,13l0 34 -11 0z"/>
  <path id="16" class="fil1" d="M3104 1358l0 -10c-5,7 -12,11 -20,11 -4,0 -8,-1 -11,-2 -3,-2 -6,-3 -7,-6 -2,-2 -3,-5 -4,-8 0,-2 0,-5 0,-10l0 -40 11 0 0 36c0,5 0,9 0,11 1,3 2,5 5,7 2,2 5,3 8,3 3,0 6,-1 9,-3 3,-2 5,-4 6,-7 1,-3 2,-7 2,-13l0 -34 11 0 0 65 -10 0z"/>
  <polygon id="17" class="fil1" points="3131,1358 3131,1268 3142,1268 3142,1319 3168,1293 3183,1293 3158,1317 3185,1358 3172,1358 3150,1325 3142,1332 3142,1358 "/>
  <path id="18" class="fil1" d="M3236 1358l0 -10c-5,7 -12,11 -20,11 -4,0 -8,-1 -11,-2 -3,-2 -6,-3 -7,-6 -2,-2 -3,-5 -4,-8 0,-2 0,-5 0,-10l0 -40 11 0 0 36c0,5 0,9 0,11 1,3 2,5 5,7 2,2 5,3 8,3 3,0 6,-1 9,-3 3,-2 5,-4 6,-7 1,-3 2,-7 2,-13l0 -34 11 0 0 65 -10 0z"/>
  <polygon id="19" class="fil1" points="3263,1358 3263,1268 3274,1268 3274,1358 "/>
  <path id="20" class="fil1" d="M3334 1350c-5,3 -9,5 -12,7 -4,1 -8,2 -12,2 -8,0 -13,-2 -17,-5 -4,-4 -6,-8 -6,-13 0,-4 1,-7 3,-9 1,-3 3,-5 5,-6 3,-2 5,-3 8,-4 2,-1 6,-1 10,-2 9,-1 15,-2 20,-3 0,-2 0,-3 0,-3 0,-5 -1,-8 -3,-10 -3,-2 -7,-3 -13,-3 -5,0 -9,0 -12,2 -2,2 -4,5 -5,10l-11 -2c1,-4 3,-8 5,-11 2,-3 6,-5 10,-6 4,-2 9,-3 15,-3 5,0 10,1 13,2 4,2 6,3 8,5 1,2 3,5 3,8 1,2 1,5 1,10l0 14c0,11 0,17 0,20 1,3 2,5 3,8l-11 0c-1,-3 -2,-5 -2,-8zm-1 -25c-4,2 -10,3 -18,4 -5,1 -8,2 -10,2 -2,1 -3,2 -4,4 -1,2 -2,3 -2,5 0,3 1,6 3,7 3,2 6,3 10,3 4,0 8,-1 12,-2 3,-2 5,-5 7,-8 1,-2 2,-6 2,-11l0 -4z"/>
  <path id="21" class="fil1" d="M3361 1358l0 -65 10 0 0 9c2,-3 4,-6 8,-8 3,-2 7,-3 11,-3 5,0 9,1 12,3 3,2 5,5 6,9 6,-8 12,-12 21,-12 6,0 11,2 14,6 4,3 6,9 6,16l0 45 -11 0 0 -41c0,-5 -1,-8 -1,-10 -1,-2 -2,-3 -4,-4 -2,-2 -4,-2 -7,-2 -5,0 -8,1 -11,4 -3,3 -5,8 -5,15l0 38 -11 0 0 -42c0,-5 -1,-9 -3,-11 -1,-3 -4,-4 -8,-4 -3,0 -6,1 -9,2 -3,2 -4,4 -6,7 -1,4 -1,8 -1,14l0 34 -11 0z"/>
  <g id="_604017384">
   <path class="fil1" d="M2829 419c2,-1 3,-2 3,-5 1,-7 -12,-19 -27,-27 -6,-3 -12,-5 -18,-6 -28,-4 -62,22 -69,41 -3,9 -3,15 -2,21 0,7 1,13 -3,25 -4,11 1,15 4,17l0 0c9,4 26,-1 32,-13 8,-15 4,-20 2,-24 -1,-1 -1,-1 -1,-2 -1,-3 -2,-8 -1,-10 0,0 0,-1 1,-1 1,0 3,2 3,9 1,7 5,13 11,16 5,3 10,3 16,1 14,-4 17,-3 24,-1 0,0 1,0 1,0 1,0 9,-1 11,-5 1,-1 1,-2 0,-4 -1,-2 0,-10 3,-19 3,-7 6,-12 10,-13z"/>
   <path class="fil1" d="M2553 495c0,1 5,10 17,17 8,3 16,5 25,5 1,0 1,0 1,0 1,-1 12,-5 13,-13 1,-3 -1,-6 -4,-9 0,0 -1,0 -1,0 0,0 0,0 0,0 -1,-1 -5,-4 -2,-22 3,-22 7,-38 13,-46 2,-4 4,-8 3,-11 -1,-2 -2,-3 -3,-4 -2,-1 -5,-2 -10,1l-1 0c-2,1 -53,42 -51,82 0,0 0,0 0,0z"/>
   <path class="fil1" d="M2545 500c3,-6 2,-25 -9,-33 -10,-7 -18,-14 -19,-38 -2,-19 -7,-24 -9,-26l0 0c-1,-11 -5,-30 -17,-36 -12,-6 -40,8 -41,9 -1,0 -1,1 -1,2 0,1 1,1 1,1 1,0 1,0 1,1 4,1 4,11 5,21 1,18 3,39 18,47 1,1 3,1 5,2 5,1 10,3 14,5 11,6 16,13 20,20 2,4 4,7 7,9 8,10 13,15 18,17 4,3 6,0 7,-1z"/>
   <path class="fil1" d="M2594 308c-1,-2 -2,-3 -3,-3 -17,-9 -39,6 -40,6 -1,1 -2,2 -2,4 0,3 5,7 6,8 5,10 8,26 8,26 0,1 0,1 1,1 0,0 0,1 1,1 5,-1 24,-5 25,-5 0,0 1,-1 1,-2 1,-6 -2,-8 -4,-10 -2,-2 -3,-3 1,-10 5,-8 7,-13 6,-16z"/>
   <path class="fil1" d="M2551 466c6,-2 10,-11 14,-18 0,-1 1,-3 2,-4 6,-12 24,-35 37,-39 16,-6 14,-21 14,-21 0,-1 0,-1 0,-1 -3,-5 -6,-8 -10,-9 -8,-5 -16,3 -22,9 -2,1 -4,3 -5,5 -4,3 -6,3 -7,3 0,-1 1,-4 7,-9 7,-6 10,-11 10,-15 -1,-3 -4,-6 -10,-9 -1,-1 -3,-2 -4,-2 -13,-6 -25,6 -35,15 -3,3 -7,6 -9,8 -1,0 -2,0 -2,1 1,-2 4,-7 13,-17 12,-14 10,-20 8,-28 -1,-2 -2,-4 -2,-6 -1,-4 -3,-7 -6,-9 -4,-2 -7,-1 -7,-1l0 0c-10,6 -23,11 -41,14 -13,3 -30,20 -31,21 -3,3 -4,5 -4,7 0,1 0,1 1,2 2,1 6,0 8,-1 1,0 1,-1 1,-1 9,-9 25,-3 27,-2 9,9 12,37 12,38 0,0 1,0 1,1 3,3 6,6 10,8 8,4 14,2 19,1 1,0 3,-1 3,-1 0,0 0,1 0,2 -1,4 1,10 2,15 1,3 2,6 2,8 -1,-1 -1,-1 -2,-1 -3,-2 -3,-4 -3,-6 0,-3 -1,-6 -7,-9 -1,-1 -2,-1 -2,-2 -6,-2 -9,0 -10,1 -5,6 0,24 12,42 3,4 6,7 9,9 3,1 5,1 7,1z"/>
   <path class="fil1" d="M2477 493c3,3 9,7 17,11 8,5 21,10 33,10 1,0 4,0 5,-3 1,-3 1,-7 -12,-17 -8,-6 -12,-12 -15,-17 -4,-7 -8,-13 -19,-18 -3,-2 -8,-4 -13,-5 0,-1 0,-1 0,-1 -1,0 -25,4 -22,36 -2,3 -13,16 -10,27 0,0 0,1 0,1 1,0 11,10 23,16 12,7 22,7 29,1 0,0 1,0 1,0 0,0 5,-10 11,-8 1,0 1,-1 2,-1 0,-1 2,-4 1,-7 0,-2 -1,-3 -4,-5 -1,-1 -3,-1 -5,-1 -1,-1 -2,-1 -4,-2 -6,-3 -20,-11 -25,-19 -1,-2 -2,-3 -2,-4 0,1 1,1 2,1 2,1 5,3 7,5z"/>
   <path class="fil1" d="M2725 356c-11,1 -18,12 -18,12l-1 1c-4,10 -18,14 -18,14 -26,7 -24,32 -23,36 -18,40 -14,50 -13,52 4,8 4,11 4,12l0 0c-8,-4 -8,-9 -8,-21 0,-1 0,-3 0,-4 0,-15 12,-41 12,-42 0,0 0,-1 0,-1 -4,-11 5,-26 8,-30 3,-5 18,-10 24,-11 0,0 1,-1 1,-1 0,-1 1,-2 1,-2 3,-7 4,-10 18,-18 16,-9 17,-21 17,-21 0,-6 -2,-11 -7,-13 -9,-5 -23,-1 -24,-1 0,0 0,0 0,1 -23,17 -36,18 -48,17 -12,-1 -20,18 -21,21 -7,8 -10,15 -10,19 1,3 3,4 4,5l0 0c1,1 3,7 4,11 0,33 -10,50 -10,50 -10,19 -13,36 -9,50 4,12 12,18 16,19 2,1 3,2 5,2 5,1 9,1 13,1 7,0 14,-1 24,4 18,10 31,-1 40,-12 8,-9 4,-22 1,-30 -1,-2 -2,-5 -2,-6 0,-1 1,-3 2,-6 2,-4 4,-10 3,-19 -1,-15 5,-30 10,-40 4,-7 4,-11 4,-17 0,-2 0,-5 0,-8 0,-6 2,-10 4,-11 1,0 1,0 2,0 0,0 0,0 0,0 1,3 -1,9 -1,11 0,0 -1,0 -1,0 0,8 1,12 5,14 3,1 6,1 6,0 1,0 1,0 1,-1 6,-18 15,-15 22,-13 5,1 9,-1 15,-3 5,-1 10,-3 17,-4 5,0 10,1 16,4 8,4 14,10 14,10 6,7 11,9 15,7 4,-1 6,-7 6,-8 9,-17 6,-35 -8,-42 0,0 0,-1 -1,-1 -4,-2 -7,-2 -9,-1 -3,3 -2,7 -2,8 1,6 -1,11 -5,14 -4,2 -8,3 -12,1 -2,-1 -3,-2 -3,-2 0,-3 4,-6 6,-7l0 0c3,-3 5,-7 5,-11 -1,-7 -7,-12 -7,-12 -4,-4 -8,-7 -12,-9 -18,-8 -30,-4 -39,0 -4,1 -7,2 -10,2 -12,1 -21,25 -23,30z"/>
   <path class="fil1" d="M2937 613c4,6 3,17 1,23 -1,1 -1,2 -2,2 -3,-2 -7,0 -10,3 -2,3 -3,6 -2,9 1,3 -1,14 -3,21 -15,33 -16,33 -23,36 -3,1 -7,3 -13,8 -8,6 -12,11 -11,15 0,2 1,4 5,6 2,2 5,2 5,2 27,6 51,-47 52,-49 33,-80 21,-112 21,-113 0,-1 -1,-1 -2,-1 -1,0 -5,0 -18,37 0,0 0,1 0,1z"/>
   <path class="fil1" d="M2884 705c3,-2 8,-4 13,-8 13,-10 15,-25 17,-38 0,-3 0,-6 1,-9 2,-12 -12,-27 -22,-32 -5,-3 -10,-3 -13,-1 -8,7 -10,7 -24,6 -5,0 -9,1 -12,4 -2,4 -1,8 -1,8 0,1 0,1 1,2 5,2 11,-1 13,-3 3,0 5,1 8,2 5,3 9,8 10,8 11,17 -13,59 -13,59 0,0 0,0 0,1 -3,14 -2,17 1,18 2,2 5,-1 5,-2l1 0c5,-11 9,-13 15,-15z"/>
   <path class="fil1" d="M2836 407c0,3 4,6 8,8 6,3 10,-3 13,-9 1,-2 3,-5 5,-6 1,-2 7,-6 13,-2 4,2 8,6 10,12 7,13 13,18 18,21 2,1 4,1 6,2 0,0 1,0 1,1 6,2 10,0 11,-2 0,-1 0,-3 -2,-4 0,0 -1,0 -2,-1 -1,0 -2,0 -3,-1 -5,-3 -9,-7 -13,-14 -7,-14 -12,-23 -29,-37 -8,-6 -13,-8 -15,-6 -3,2 -3,5 -2,6 -1,12 -9,22 -11,23 -5,3 -8,6 -8,9z"/>
   <path class="fil1" d="M2833 641c6,-14 -8,-30 -16,-33 -7,-3 -19,-2 -31,-2 -2,0 -4,0 -6,0 -10,1 -12,4 -14,8 -2,2 -3,5 -8,7 -11,7 -13,9 -13,10 0,1 0,2 0,2 1,1 2,1 2,1 2,-1 8,0 18,5 2,1 3,2 5,3 3,2 3,3 3,3 0,0 -1,1 -1,1 -6,0 -14,-3 -21,-7 -11,-5 -22,-10 -30,-7 -5,2 -8,6 -10,11 -4,14 -1,24 11,30 4,2 9,3 13,5 3,0 5,1 7,2 4,2 10,2 15,3 8,2 15,3 21,6 2,1 4,2 5,3 6,5 5,6 5,7 0,0 -1,0 -1,1 -2,-2 -4,-3 -7,-5 -8,-4 -19,-7 -29,-9 -4,-1 -8,-2 -11,-3 -13,-4 -21,-4 -28,11 -3,6 -6,9 -7,8 -1,0 -2,-1 -2,-1 0,-2 2,-6 4,-10 4,-6 8,-13 6,-17 -1,-1 -3,-3 -4,-6 -5,-6 -12,-16 -8,-22 5,-11 1,-16 1,-16 -1,0 -1,0 -1,0 -2,-1 -4,-2 -6,-3 -9,-5 -17,-11 -18,-12 -7,-8 -13,-13 -21,-17 -5,-3 -9,-4 -15,-6l-2 -1c-8,-3 -14,-2 -20,-2 -6,1 -13,2 -23,0 -20,-4 -36,-3 -37,-3l-1 0c-21,7 -32,10 -50,4 -2,-1 -4,-2 -5,-3 -3,-1 -4,-2 -4,-3 0,0 0,-1 0,-1 1,1 2,1 3,2 15,7 26,4 26,4 9,-4 7,-11 5,-17 -1,-3 -2,-6 -2,-8 -1,-3 0,-4 0,-4 1,0 1,0 2,1 0,0 1,0 1,0 4,2 3,5 3,10 -1,5 -2,11 6,14 8,3 13,1 18,-2 4,-2 9,-4 15,-3 15,3 36,3 50,-2 8,-3 10,-7 11,-12 1,-3 3,-7 7,-11 8,-8 9,-12 9,-18 0,-2 0,-3 1,-5 0,-1 0,-1 0,-1l0 0c1,0 2,2 3,4 0,3 1,9 -3,16 -4,6 -7,9 -9,11 -5,4 -6,6 0,17 3,5 5,8 8,10 6,3 12,-1 17,-10 2,-3 4,-4 6,-4 2,0 5,0 7,-6 1,-6 2,-9 3,-10 0,0 1,0 2,0 2,1 -2,13 -4,18 -1,2 -3,5 -5,7 -4,4 -7,9 -6,14 0,5 4,9 11,14 3,2 6,4 9,5 19,10 45,14 56,1 12,-13 28,-17 39,-18 1,0 3,0 4,0 10,-1 12,-1 18,-14 8,-14 -5,-35 -13,-39 -2,-1 -2,-2 -3,-3 0,-1 1,-2 1,-3 1,1 2,1 2,1 16,8 18,23 19,33 0,2 0,4 1,6 0,2 -1,5 -1,8 -2,5 -3,9 1,11 2,2 6,2 11,0 23,-5 41,-40 42,-42 1,-1 1,-3 2,-4 3,-5 3,-6 6,-5 0,0 1,1 1,2 1,7 -19,32 -35,46 -10,8 -13,11 -13,14 0,2 2,4 5,5 1,1 2,1 3,1l0 1c11,5 38,2 62,-31 15,-20 15,-32 15,-38 0,0 0,-1 0,-1 0,0 2,1 2,1 1,0 2,1 2,2 2,9 -14,38 -21,49 -4,2 -6,4 -7,6 -1,3 0,5 0,6 1,0 1,1 2,1 3,-1 5,0 8,1 7,4 13,13 14,14 1,2 2,3 3,4 4,2 8,0 11,-3 2,-2 4,-5 3,-7 -3,-7 -1,-14 9,-32 9,-18 9,-22 7,-44 0,-3 0,-6 0,-10 -1,-22 -6,-28 -11,-30 -1,-1 -2,-1 -3,-2 -1,0 -2,0 -3,-1 -2,-1 -4,-1 -7,1 -7,3 -16,14 -18,24 -1,3 -1,7 -1,12 0,9 0,19 -10,31 -7,9 -10,11 -12,11 5,-6 14,-27 15,-30 0,0 0,0 0,-1 -3,-25 9,-37 17,-46 1,-2 2,-3 4,-5 4,-5 8,-4 11,-4 3,0 6,1 8,-2 1,-1 1,-3 0,-6 -1,-4 -5,-9 -10,-11 -3,-2 -7,-3 -10,-3 -8,0 -11,5 -14,10 -3,4 -5,9 -11,11 -8,2 -12,5 -13,8 0,1 0,2 1,2 0,1 1,1 1,1 1,0 3,1 5,2 3,1 5,3 6,4 0,0 0,0 0,1 -1,1 -6,0 -10,-1 -2,-1 -4,-1 -7,-1 -10,-2 -20,17 -29,39l-1 2c-2,4 -2,8 -3,11 0,1 -1,3 -1,3 0,0 0,0 -1,0 -2,-1 1,-18 15,-47 8,-15 18,-21 27,-27 6,-4 11,-8 14,-13 3,-5 5,-9 6,-12 1,-2 2,-3 2,-3l0 0c1,0 1,0 1,0l0 0c2,1 4,1 6,1 2,0 4,-1 8,1 7,4 10,3 10,3 1,0 1,-1 1,-2 2,-12 -8,-20 -14,-23 -3,-1 -5,-2 -5,-2 -3,0 -6,-1 -9,-3 -12,-6 -20,-17 -21,-18 -2,-4 -4,-6 -7,-8 -7,-3 -15,-1 -18,3 -1,2 -1,5 1,8 10,9 15,19 18,24 1,3 2,4 3,5 1,2 2,5 2,6 0,0 -1,0 -2,0 -5,-3 -10,-13 -11,-17 0,0 -1,-1 -1,-1 -7,-6 -13,-11 -18,-14 -8,-4 -14,-3 -19,2 -6,5 -9,14 -9,22 0,6 2,10 6,13 7,6 3,18 2,19 -1,2 -1,2 -2,3 0,-1 0,-3 0,-9 0,-4 -4,-9 -9,-12 -7,-3 -13,-2 -18,3 -7,7 -10,6 -11,6 -1,-1 -1,-1 -1,-1l0 0c0,0 0,0 -1,0 -19,-6 -34,4 -42,10 -2,1 -3,2 -4,3 -1,1 -2,1 -3,2 -11,6 -30,19 -28,33 0,3 2,6 4,7 6,3 15,-4 17,-5 9,-4 13,-3 16,-1 1,0 2,1 4,2 1,1 3,3 5,4 2,1 3,1 5,2 6,2 9,-2 11,-5 3,-4 6,-8 14,-5 18,5 33,-9 36,-13 8,1 12,-4 12,-4 17,-20 14,-45 12,-52 0,-2 0,-4 1,-5 0,0 0,0 0,0 2,1 3,3 4,6 4,12 2,30 -1,36 -2,3 -4,7 -5,11 -3,6 -6,14 -8,15 -1,0 -1,0 -2,0 -4,-2 -12,2 -26,9 -8,3 -17,8 -20,7 -5,0 -10,3 -13,7 -2,3 -2,6 -1,8 1,0 1,2 2,3 4,8 10,22 19,28 3,2 4,3 4,4 0,0 -1,0 -1,0 -7,-3 -20,-14 -30,-32 -4,-8 -9,-14 -15,-16 -3,-2 -6,-2 -7,-2 -5,-3 -11,-3 -15,0 -7,3 -11,12 -11,15 0,4 -2,28 -1,35 0,4 -1,8 -1,9 -1,-1 -1,-2 -3,-4 -1,-4 -1,-10 -1,-17 1,-9 1,-20 -4,-31 -3,-5 -6,-8 -10,-10 -7,-4 -13,0 -14,1 -2,1 -3,2 -5,4 -3,2 -6,4 -8,3 0,0 -1,0 -1,-1 -3,-5 -9,-8 -13,-10 -2,-1 -3,-2 -3,-2 -1,0 -1,0 -2,0 -8,3 -15,1 -16,1 -22,-10 -33,-3 -34,-2l0 0c-10,13 -21,8 -23,7 -4,-4 -9,-7 -13,-9 -18,-9 -29,-2 -32,1 -22,-3 -35,13 -36,14 0,0 0,1 0,1 0,3 -3,9 -5,11 -13,3 -22,21 -23,21l0 1c-7,30 -3,39 5,43 1,1 3,2 5,3 2,0 4,1 6,2 3,1 5,3 6,6 9,16 23,24 39,22 7,0 17,3 29,9 4,2 7,4 10,6 7,4 11,-2 13,-5 1,-1 2,-2 2,-2l0 0c1,1 0,4 -3,9 -2,5 -19,1 -34,-5 -8,-4 -13,-2 -15,0 -2,2 -3,4 -3,7 1,3 2,6 8,9 6,3 15,5 28,5 16,0 26,5 36,10 8,4 15,8 26,10 9,2 14,2 16,-1 3,-4 -1,-10 -5,-18 -1,-2 -2,-4 -3,-6 -2,-4 -3,-8 -4,-11 -3,-8 -5,-13 -16,-19 -13,-7 -19,-6 -29,-5 -2,0 -5,1 -9,1 -7,1 -9,0 -10,0l0 0 0 -1c14,-12 37,-4 47,0 2,0 3,1 4,1 2,0 4,0 5,-1 4,-2 5,-9 5,-10 0,-2 0,-3 1,-3 0,-1 0,-1 1,-1 2,5 2,16 3,20l0 0c12,44 28,53 29,53 36,18 47,16 57,15 1,-1 2,-1 3,-1 4,-1 6,-2 8,-4 2,-4 1,-8 1,-9 1,-2 1,-2 1,-2 1,0 2,2 2,3l0 0c4,6 1,9 -1,11 -2,2 -3,3 -3,5 0,2 2,3 4,4 1,0 1,0 1,0 13,6 32,3 49,-9 16,-10 35,-49 42,-65l2 -3z"/>
   <path class="fil1" d="M2439 521c0,-3 -2,-5 -5,-6 -4,-2 -9,-2 -9,-2 -8,0 -15,-2 -22,-6l0 0c-10,-5 -15,-12 -15,-12 -1,-1 -2,-1 -3,-1 0,1 -1,2 -1,2 4,15 20,34 34,41 8,4 15,3 19,-4 3,-5 3,-9 2,-12z"/>
   <path class="fil1" d="M2474 556c2,-2 3,-4 2,-6 0,-4 -4,-6 -6,-8 -2,0 -3,-1 -3,-1l0 0c-4,0 -8,-1 -12,-4l0 0c-5,-2 -8,-5 -8,-5 -1,0 -2,0 -2,1 -6,5 -8,9 -8,13 1,5 7,9 13,12 12,6 18,5 24,-2z"/>
   <path class="fil1" d="M2657 301l-1 1c-5,9 -11,19 -26,13 -1,-1 -3,-3 -7,-5 -10,-5 -18,-3 -23,6 -6,10 -6,11 -5,16 1,3 2,8 3,20 0,8 2,13 6,14l0 0c2,2 5,2 7,0 8,-3 15,-13 17,-19 2,-9 6,-25 30,-21 17,3 25,-5 30,-10 2,-2 4,-4 6,-4 5,-2 15,-5 27,1 5,3 10,7 16,12 0,1 1,1 2,1 0,0 5,-3 7,-8 0,-3 -1,-7 -4,-11 -3,-4 -7,-7 -13,-10 -12,-6 -26,-8 -36,-5 -1,0 -8,2 -15,-2 -1,0 -1,0 -2,-1 0,0 0,0 -1,0 0,0 -12,2 -18,12z"/>
   <path class="fil1" d="M2837 707c2,1 3,2 5,4 4,6 8,8 11,6 2,-1 3,-4 3,-8 0,-5 0,-15 11,-32 5,-10 7,-15 6,-19 -2,-5 -6,-8 -14,-12 -15,-8 -27,8 -27,8l0 0c-23,52 -32,56 -33,56 0,0 -1,1 -1,1 0,1 0,2 0,2 1,1 2,2 3,2 6,3 12,0 19,-3 0,0 1,0 2,-1 2,0 3,-1 4,-2 5,-2 8,-4 11,-2z"/>
   <path class="fil1" d="M2532 310c1,1 3,1 5,1 6,1 9,-2 12,-5 7,-5 16,-12 51,-6l0 0c0,0 16,-1 30,6 0,0 1,0 1,1l0 0c1,0 6,2 11,0 5,-2 8,-6 11,-13 1,-2 4,-5 6,-5 1,0 1,0 2,0 0,-1 0,-1 0,-1 1,-2 0,-4 -3,-5 -2,-2 -6,-2 -11,-1l0 0c-1,0 -12,3 -19,6 0,0 0,0 -1,0 -8,-4 -38,-17 -65,-2l-1 1c0,0 -6,6 -17,3 -9,-3 -11,-2 -13,1l0 0 0 0c0,1 -5,8 -3,14 0,2 2,4 4,5z"/>
   <path class="fil1" d="M2425 352l0 0c20,4 31,-2 32,-2 0,0 0,0 0,-1 10,-12 19,-14 19,-14 1,0 1,0 1,0 6,-7 18,-11 33,-13 13,-1 16,-8 16,-8 0,0 0,-1 0,-1 -1,-1 -1,-1 -1,-1 -2,-1 -2,-1 -3,-1 -8,-4 -3,-13 -3,-13 0,-1 0,-2 0,-2 0,-1 -1,-1 -2,-1 -11,0 -26,12 -27,13 0,0 0,0 0,0 -9,17 -23,19 -23,19 -25,4 -42,22 -43,22 0,1 -1,1 0,2 0,1 0,1 1,1z"/>
   <path class="fil1" d="M2393 411c4,2 11,2 18,-12 0,0 0,0 0,-1 0,0 1,-20 20,-21 1,0 1,0 1,0 4,-3 12,-7 16,-6 0,0 0,0 1,-1 0,0 3,-1 3,-4 0,-1 -1,-3 -3,-4 -2,-1 -4,-1 -6,-2l-1 0c0,0 -44,-3 -56,43 0,0 0,0 0,1 0,0 3,5 7,7z"/>
   <path class="fil1" d="M2405 500c14,7 25,5 32,0 4,-3 6,-7 5,-11 -1,-11 9,-28 9,-29 1,0 1,-1 0,-2 0,0 -1,0 -2,0 -6,3 -18,2 -18,2 -12,-2 -21,-5 -27,-8 -5,-3 -9,-6 -9,-10 -1,-1 -1,-2 0,-3 5,5 10,8 14,10 9,5 14,4 21,4 2,-1 5,-1 7,-1 8,0 24,-1 25,-6 1,-1 0,-3 -3,-5 -6,-3 -11,-10 -13,-17 -1,-3 -2,-7 0,-10 3,-6 6,-14 4,-21 -1,-4 -5,-8 -9,-9 -11,-4 -18,5 -20,10 -4,6 -4,16 -4,18 -4,8 -18,6 -20,6 -5,-3 -9,-3 -12,-2 -4,3 -4,7 -4,7 0,0 0,1 0,1 3,5 1,12 0,14 -14,20 -2,38 -2,38 8,11 17,19 26,24z"/>
  </g>
 </g>
</svg>
