<?xml version="1.0" encoding="UTF-8"?>
<!DOCTYPE svg PUBLIC "-//W3C//DTD SVG 1.1//EN" "http://www.w3.org/Graphics/SVG/1.1/DTD/svg11.dtd">
<!-- Creator: CorelDRAW X7 -->
<svg xmlns="http://www.w3.org/2000/svg" xml:space="preserve" width="5.33333in" height="1.66666in" version="1.1" style="shape-rendering:geometricPrecision; text-rendering:geometricPrecision; image-rendering:optimizeQuality; fill-rule:evenodd; clip-rule:evenodd"
viewBox="0 0 5333 1667"
 xmlns:xlink="http://www.w3.org/1999/xlink">
 <defs>
  <style type="text/css">
   <![CDATA[
    .fil2 {fill:#FEFEFE}
    .fil0 {fill:#679406}
    .fil1 {fill:#FEFEFE;fill-rule:nonzero}
   ]]>
  </style>
 </defs>
 <g id="Layer_x0020_1">
  <metadata id="CorelCorpID_0Corel-Layer"/>
  <rect class="fil0" width="5333" height="1667"/>
  <path class="fil1" d="M616 855c13,2 30,3 51,3 41,0 74,-10 95,-31 21,-20 34,-50 34,-93l0 0c0,-52 -21,-113 -120,-113 -22,0 -43,2 -60,5l0 229zm36 -204c6,-1 15,-2 27,-2 50,0 80,29 80,86 0,64 -32,95 -84,95 -9,0 -17,-1 -23,-2l0 -177z"/>
  <path id="1" class="fil1" d="M947 824c-11,5 -24,8 -42,8 -27,0 -50,-14 -51,-52l107 0c0,-4 1,-9 1,-15 0,-41 -19,-81 -67,-81 -47,0 -75,40 -75,90 0,51 29,85 80,85 23,0 41,-4 53,-10l-6 -25zm-93 -69c2,-20 13,-45 39,-45 27,0 35,25 35,45l-74 0z"/>
  <path id="2" class="fil1" d="M1093 688l-27 90c-4,14 -8,28 -11,42l-1 0c-3,-14 -7,-28 -11,-43l-28 -89 -38 0 59 168 34 0 60 -168 -37 0z"/>
  <polygon id="3" class="fil1" points="1144,776 1228,776 1228,751 1144,751 "/>
  <path id="4" class="fil1" d="M1329 684c-44,0 -79,32 -79,89 0,54 33,86 77,86 38,0 78,-26 78,-88 0,-52 -30,-87 -76,-87zm40 87c0,34 -16,62 -41,62 -26,0 -42,-28 -42,-61 0,-29 12,-61 42,-61 30,0 41,33 41,60z"/>
  <path id="5" class="fil1" d="M1472 714l-2 -26 -31 0c1,15 2,32 2,54l0 182 35 0 0 -88 0 0c9,14 25,23 45,23 36,0 71,-28 71,-89 0,-52 -28,-86 -66,-86 -23,0 -42,11 -53,30l-1 0zm4 43c0,-25 18,-44 39,-44 27,0 41,26 41,58 0,35 -15,60 -42,60 -17,0 -38,-13 -38,-43l0 -31z"/>
  <path id="6" class="fil1" d="M1718 694c-9,-5 -23,-10 -40,-10 -35,0 -58,23 -58,51 0,19 13,36 43,48 20,8 27,15 27,28 0,13 -9,22 -28,22 -14,0 -30,-6 -38,-11l-8 26c11,7 28,11 46,11 38,0 62,-19 62,-51 0,-25 -14,-40 -42,-51 -20,-9 -28,-15 -28,-26 0,-12 9,-21 24,-21 14,0 26,5 32,10l8 -26z"/>
  <path class="fil1" d="M616 1038l0 -60 23 0c4,0 7,0 9,1 3,0 5,1 7,2 2,2 4,4 5,6 1,3 2,5 2,8 0,5 -2,10 -5,13 -3,4 -9,5 -17,5l-16 0 0 25 -8 0zm8 -32l16 0c5,0 8,-1 11,-3 2,-1 3,-4 3,-8 0,-2 -1,-4 -2,-6 -1,-2 -3,-3 -5,-3 -1,-1 -4,-1 -7,-1l-16 0 0 21z"/>
  <polygon id="1" class="fil1" points="671,1038 671,978 678,978 678,1038 "/>
  <path id="2" class="fil1" d="M718 1032c-3,3 -6,4 -8,5 -3,1 -5,2 -8,2 -5,0 -9,-2 -11,-4 -3,-2 -4,-5 -4,-9 0,-2 0,-4 1,-6 1,-1 3,-3 4,-4 2,-1 4,-2 6,-2 1,-1 3,-1 6,-1 6,-1 10,-2 13,-3 0,-1 0,-1 0,-2 0,-3 -1,-5 -2,-6 -2,-2 -5,-2 -8,-2 -4,0 -6,0 -8,1 -2,2 -3,4 -4,7l-7 -1c1,-3 2,-6 3,-8 2,-2 4,-3 7,-4 3,-1 6,-2 10,-2 4,0 7,1 9,2 2,1 4,2 5,3 1,1 2,3 2,5 0,1 1,4 1,7l0 10c0,6 0,11 0,12 0,2 1,4 2,6l-8 0c-1,-2 -1,-4 -1,-6zm-1 -16c-2,1 -6,2 -12,3 -3,0 -5,1 -6,1 -1,1 -2,2 -3,3 -1,1 -1,2 -1,3 0,2 1,4 2,5 2,1 4,2 7,2 2,0 5,-1 7,-2 2,-1 4,-3 5,-5 1,-2 1,-4 1,-7l0 -3z"/>
  <path id="3" class="fil1" d="M736 1038l0 -44 6 0 0 7c4,-5 8,-8 14,-8 3,0 5,1 7,2 3,1 4,2 5,4 1,1 2,3 3,5 0,1 0,4 0,7l0 27 -7 0 0 -27c0,-3 -1,-5 -1,-6 -1,-2 -2,-3 -3,-4 -2,-1 -3,-1 -5,-1 -3,0 -6,1 -8,3 -3,2 -4,6 -4,11l0 24 -7 0z"/>
  <polygon id="4" class="fil1" points="784,1038 784,1029 793,1029 793,1038 "/>
  <path id="5" class="fil1" d="M849 1017l8 2c-2,6 -5,11 -9,15 -5,3 -10,5 -16,5 -6,0 -12,-2 -16,-4 -4,-3 -7,-7 -9,-12 -2,-5 -3,-10 -3,-16 0,-6 1,-11 4,-16 2,-4 5,-8 10,-10 4,-3 9,-4 14,-4 6,0 11,2 15,5 4,3 7,7 9,12l-8 2c-1,-4 -3,-7 -6,-9 -3,-2 -6,-3 -10,-3 -5,0 -8,1 -11,3 -4,2 -6,5 -7,9 -1,4 -2,7 -2,11 0,5 1,10 2,14 2,3 4,6 7,8 3,2 7,3 10,3 5,0 9,-1 12,-4 3,-2 5,-6 6,-11z"/>
  <path id="6" class="fil1" d="M863 1016c0,-8 2,-14 6,-18 4,-3 9,-5 14,-5 6,0 11,2 15,6 3,4 5,10 5,16 0,6 -1,10 -2,14 -2,3 -4,5 -7,7 -4,2 -7,3 -11,3 -6,0 -11,-2 -15,-6 -3,-4 -5,-10 -5,-17zm7 0c0,6 1,10 4,12 2,3 5,5 9,5 4,0 7,-2 9,-5 3,-2 4,-7 4,-12 0,-6 -1,-10 -4,-12 -2,-3 -5,-4 -9,-4 -4,0 -7,1 -9,4 -3,2 -4,7 -4,12z"/>
  <path id="7" class="fil1" d="M940 1038l0 -6c-3,4 -7,7 -12,7 -4,0 -7,-1 -10,-3 -3,-2 -5,-5 -6,-8 -2,-4 -3,-8 -3,-12 0,-4 1,-8 2,-12 2,-3 4,-6 7,-8 3,-2 6,-3 9,-3 3,0 5,1 7,2 2,1 4,3 5,4l0 -21 8 0 0 60 -7 0zm-23 -22c0,6 1,10 3,12 2,3 5,5 8,5 4,0 6,-2 9,-4 2,-3 3,-7 3,-12 0,-6 -1,-11 -3,-13 -3,-3 -6,-4 -9,-4 -3,0 -6,1 -8,4 -2,2 -3,6 -3,12z"/>
  <path id="8" class="fil1" d="M988 1024l7 1c-1,4 -3,7 -6,10 -4,2 -8,4 -13,4 -6,0 -11,-2 -15,-6 -3,-4 -5,-10 -5,-17 0,-7 2,-12 5,-16 4,-5 9,-7 15,-7 6,0 10,2 14,6 4,4 6,10 6,17 0,0 0,1 0,2l-33 0c1,5 2,8 4,11 3,2 6,4 9,4 3,0 5,-1 7,-3 2,-1 4,-3 5,-6zm-24 -12l24 0c-1,-4 -1,-6 -3,-8 -2,-3 -5,-5 -9,-5 -3,0 -6,2 -8,4 -3,2 -4,5 -4,9z"/>
  <polygon id="9" class="fil1" points="1007,1038 1007,1029 1015,1029 1015,1038 "/>
  <path id="10" class="fil1" d="M1028 1038l0 -60 23 0c4,0 8,1 11,2 2,1 5,3 6,5 2,3 2,6 2,8 0,3 0,5 -2,7 -1,3 -3,5 -6,6 4,1 7,3 8,5 2,3 3,6 3,9 0,3 0,6 -1,8 -2,3 -3,4 -5,6 -1,1 -4,2 -6,3 -3,0 -6,1 -10,1l-23 0zm8 -35l13 0c4,0 6,0 8,-1 2,0 3,-1 4,-3 1,-1 2,-3 2,-5 0,-2 -1,-4 -2,-5 -1,-2 -2,-3 -4,-3 -2,-1 -5,-1 -9,-1l-12 0 0 18zm0 28l15 0c3,0 4,0 5,-1 2,0 4,0 5,-1 1,-1 2,-2 3,-4 1,-1 1,-3 1,-5 0,-2 0,-4 -1,-5 -2,-2 -3,-3 -5,-4 -2,-1 -5,-1 -9,-1l-14 0 0 21z"/>
  <path id="11" class="fil1" d="M1112 1038l0 -7c-4,5 -8,8 -14,8 -3,0 -5,-1 -7,-2 -2,-1 -4,-2 -5,-4 -1,-1 -2,-3 -2,-5 -1,-1 -1,-4 -1,-7l0 -27 7 0 0 24c0,4 1,7 1,8 0,2 1,3 3,5 1,1 3,1 5,1 3,0 5,0 7,-1 1,-2 3,-3 4,-5 0,-2 1,-5 1,-8l0 -24 7 0 0 44 -6 0z"/>
  <path id="12" class="fil1" d="M1130 986l0 -8 7 0 0 8 -7 0zm0 52l0 -44 7 0 0 44 -7 0z"/>
  <polygon id="13" class="fil1" points="1148,1038 1148,978 1155,978 1155,1038 "/>
  <path id="14" class="fil1" d="M1195 1038l0 -6c-3,4 -7,7 -12,7 -4,0 -7,-1 -10,-3 -3,-2 -5,-5 -7,-8 -1,-4 -2,-8 -2,-12 0,-4 1,-8 2,-12 2,-3 4,-6 7,-8 2,-2 6,-3 9,-3 3,0 5,1 7,2 2,1 4,3 5,4l0 -21 7 0 0 60 -6 0zm-24 -22c0,6 2,10 4,12 2,3 5,5 8,5 3,0 6,-2 8,-4 3,-3 4,-7 4,-12 0,-6 -1,-11 -4,-13 -2,-3 -5,-4 -8,-4 -3,0 -6,1 -8,4 -2,2 -4,6 -4,12z"/>
  <polygon id="15" class="fil1" points="1215,1038 1215,1029 1223,1029 1223,1038 "/>
  <polygon id="16" class="fil1" points="1252,1038 1252,985 1233,985 1233,978 1280,978 1280,985 1260,985 1260,1038 "/>
  <path id="17" class="fil1" d="M1307 1024l8 1c-1,4 -3,7 -7,10 -3,2 -7,4 -12,4 -6,0 -11,-2 -15,-6 -4,-4 -6,-10 -6,-17 0,-7 2,-12 6,-16 4,-5 9,-7 15,-7 5,0 10,2 14,6 3,4 5,10 5,17 0,0 0,1 0,2l-32 0c0,5 2,8 4,11 2,2 5,4 9,4 3,0 5,-1 7,-3 2,-1 3,-3 4,-6zm-24 -12l24 0c0,-4 -1,-6 -2,-8 -3,-3 -6,-5 -9,-5 -4,0 -7,2 -9,4 -2,2 -3,5 -4,9z"/>
  <path id="18" class="fil1" d="M1321 1025l8 -1c0,2 1,5 3,6 2,2 4,3 8,3 3,0 6,-1 7,-2 2,-2 3,-3 3,-5 0,-2 -1,-3 -2,-4 -2,-1 -4,-2 -8,-3 -5,-1 -9,-2 -11,-3 -2,-1 -4,-3 -5,-4 -1,-2 -1,-4 -1,-6 0,-2 0,-4 1,-5 1,-2 2,-3 3,-5 2,0 3,-1 5,-2 2,0 4,-1 6,-1 4,0 7,1 9,2 3,1 5,2 6,4 1,2 2,4 3,7l-8 1c0,-3 -1,-4 -2,-6 -2,-1 -4,-2 -7,-2 -3,0 -6,1 -7,2 -2,1 -2,3 -2,4 0,1 0,2 1,3 0,0 1,1 2,2 1,0 3,0 7,1 5,2 9,3 11,4 2,1 3,2 4,4 2,1 2,3 2,6 0,2 -1,5 -2,7 -1,2 -3,4 -6,5 -3,1 -6,2 -9,2 -6,0 -10,-2 -13,-4 -3,-2 -5,-6 -6,-10z"/>
  <path id="19" class="fil1" d="M1382 1031l1 7c-2,0 -4,0 -6,0 -2,0 -4,0 -6,-1 -1,-1 -2,-2 -3,-3 -1,-2 -1,-5 -1,-9l0 -25 -5 0 0 -6 5 0 0 -10 7 -5 0 15 8 0 0 6 -8 0 0 25c0,3 1,4 1,4 0,1 1,2 1,2 1,0 2,0 3,0 0,0 1,0 3,0z"/>
  <polygon id="20" class="fil1" points="1391,1038 1391,1029 1399,1029 1399,1038 "/>
  <path id="21" class="fil1" d="M1413 1038l0 -60 27 0c5,0 9,1 12,2 3,1 5,3 6,5 2,3 3,6 3,9 0,4 -1,8 -4,11 -3,3 -7,5 -13,5 2,1 4,2 5,3 2,3 4,5 6,8l11 17 -10 0 -8 -13c-2,-3 -4,-6 -6,-8 -1,-2 -3,-3 -4,-4 -1,-1 -2,-1 -3,-2 -1,0 -3,0 -5,0l-9 0 0 27 -8 0zm8 -34l17 0c4,0 7,0 9,-1 2,-1 3,-2 4,-3 1,-2 2,-4 2,-6 0,-3 -1,-5 -3,-7 -2,-2 -6,-2 -10,-2l-19 0 0 19z"/>
  <path id="22" class="fil1" d="M1502 1024l7 1c-1,4 -3,7 -6,10 -3,2 -8,4 -13,4 -6,0 -11,-2 -15,-6 -3,-4 -5,-10 -5,-17 0,-7 2,-12 6,-16 3,-5 8,-7 14,-7 6,0 11,2 14,6 4,4 6,10 6,17 0,0 0,1 0,2l-33 0c1,5 2,8 4,11 3,2 6,4 9,4 3,0 5,-1 7,-3 2,-1 4,-3 5,-6zm-24 -12l24 0c0,-4 -1,-6 -3,-8 -2,-3 -5,-5 -9,-5 -3,0 -6,2 -8,4 -3,2 -4,5 -4,9z"/>
  <polygon id="23" class="fil1" points="1519,1038 1519,978 1526,978 1526,1038 "/>
  <path id="24" class="fil1" d="M1567 1024l7 1c-1,4 -3,7 -6,10 -4,2 -8,4 -13,4 -6,0 -11,-2 -15,-6 -3,-4 -5,-10 -5,-17 0,-7 2,-12 5,-16 4,-5 9,-7 15,-7 6,0 10,2 14,6 4,4 6,10 6,17 0,0 0,1 0,2l-33 0c1,5 2,8 4,11 3,2 6,4 9,4 3,0 5,-1 7,-3 2,-1 4,-3 5,-6zm-24 -12l24 0c-1,-4 -1,-6 -3,-8 -2,-3 -5,-5 -9,-5 -3,0 -6,2 -8,4 -3,2 -4,5 -4,9z"/>
  <path id="25" class="fil1" d="M1612 1032c-3,3 -6,4 -8,5 -3,1 -5,2 -8,2 -5,0 -9,-2 -11,-4 -3,-2 -4,-5 -4,-9 0,-2 1,-4 2,-6 0,-1 2,-3 3,-4 2,-1 4,-2 6,-2 1,-1 3,-1 6,-1 6,-1 10,-2 13,-3 0,-1 0,-1 0,-2 0,-3 0,-5 -2,-6 -2,-2 -5,-2 -8,-2 -4,0 -6,0 -8,1 -2,2 -3,4 -4,7l-7 -1c1,-3 2,-6 4,-8 1,-2 3,-3 6,-4 3,-1 6,-2 10,-2 4,0 7,1 9,2 2,1 4,2 5,3 1,1 2,3 2,5 1,1 1,4 1,7l0 10c0,6 0,11 0,12 0,2 1,4 2,6l-8 0c-1,-2 -1,-4 -1,-6zm-1 -16c-2,1 -6,2 -12,3 -3,0 -5,1 -6,1 -1,1 -2,2 -3,3 -1,1 -1,2 -1,3 0,2 1,4 2,5 2,1 4,2 7,2 2,0 5,-1 7,-2 2,-1 4,-3 5,-5 1,-2 1,-4 1,-7l0 -3z"/>
  <path id="26" class="fil1" d="M1627 1025l7 -1c1,2 2,5 4,6 2,2 4,3 7,3 4,0 6,-1 8,-2 2,-2 2,-3 2,-5 0,-2 0,-3 -2,-4 -1,-1 -3,-2 -7,-3 -6,-1 -9,-2 -11,-3 -3,-1 -4,-3 -5,-4 -1,-2 -2,-4 -2,-6 0,-2 1,-4 2,-5 0,-2 2,-3 3,-5 1,0 3,-1 5,-2 2,0 4,-1 6,-1 4,0 6,1 9,2 3,1 5,2 6,4 1,2 2,4 2,7l-7 1c0,-3 -1,-4 -3,-6 -1,-1 -3,-2 -6,-2 -4,0 -6,1 -8,2 -1,1 -2,3 -2,4 0,1 1,2 1,3 1,0 2,1 3,2 1,0 3,0 6,1 6,2 9,3 11,4 2,1 4,2 5,4 1,1 2,3 2,6 0,2 -1,5 -2,7 -2,2 -4,4 -6,5 -3,1 -6,2 -10,2 -5,0 -9,-2 -12,-4 -3,-2 -5,-6 -6,-10z"/>
  <path id="27" class="fil1" d="M1701 1024l8 1c-2,4 -4,7 -7,10 -3,2 -7,4 -12,4 -7,0 -12,-2 -15,-6 -4,-4 -6,-10 -6,-17 0,-7 2,-12 6,-16 3,-5 8,-7 14,-7 6,0 11,2 14,6 4,4 6,10 6,17 0,0 0,1 0,2l-32 0c0,5 1,8 4,11 2,2 5,4 9,4 2,0 5,-1 7,-3 1,-1 3,-3 4,-6zm-24 -12l24 0c0,-4 -1,-6 -3,-8 -2,-3 -5,-5 -9,-5 -3,0 -6,2 -8,4 -2,2 -4,5 -4,9z"/>
  <polygon id="28" class="fil1" points="1720,1038 1720,1029 1728,1029 1728,1038 "/>
  <path id="29" class="fil1" d="M1742 1038l0 -60 21 0c4,0 8,0 10,1 4,1 7,2 9,4 3,3 5,6 7,10 2,4 2,9 2,15 0,4 0,8 -1,12 -1,3 -3,6 -4,8 -2,3 -4,4 -6,6 -2,1 -4,2 -7,3 -3,0 -6,1 -9,1l-22 0zm8 -7l13 0c4,0 7,-1 9,-1 2,-1 4,-2 5,-4 2,-1 4,-4 5,-7 1,-3 1,-7 1,-12 0,-6 -1,-11 -3,-14 -2,-3 -4,-6 -7,-7 -2,-1 -6,-1 -11,-1l-12 0 0 46z"/>
  <path id="30" class="fil1" d="M1831 1024l7 1c-1,4 -3,7 -6,10 -3,2 -8,4 -13,4 -6,0 -11,-2 -15,-6 -3,-4 -5,-10 -5,-17 0,-7 2,-12 5,-16 4,-5 9,-7 15,-7 6,0 10,2 14,6 4,4 6,10 6,17 0,0 0,1 0,2l-33 0c1,5 2,8 4,11 3,2 6,4 9,4 3,0 5,-1 7,-3 2,-1 4,-3 5,-6zm-24 -12l24 0c0,-4 -1,-6 -3,-8 -2,-3 -5,-5 -9,-5 -3,0 -6,2 -8,4 -3,2 -4,5 -4,9z"/>
  <path id="31" class="fil1" d="M1848 1054l0 -60 6 0 0 6c2,-2 4,-4 6,-5 2,-1 4,-2 7,-2 3,0 7,1 10,3 2,2 5,5 6,8 1,4 2,8 2,12 0,4 -1,8 -2,12 -2,3 -4,6 -7,8 -3,2 -6,3 -10,3 -2,0 -4,-1 -6,-2 -2,-1 -4,-2 -5,-4l0 21 -7 0zm6 -38c0,6 1,10 4,13 2,2 5,4 8,4 3,0 6,-2 8,-5 2,-2 4,-7 4,-12 0,-6 -2,-10 -4,-13 -2,-2 -5,-4 -8,-4 -3,0 -6,2 -8,5 -3,3 -4,7 -4,12z"/>
  <polygon id="32" class="fil1" points="1894,1038 1894,978 1901,978 1901,1038 "/>
  <path id="33" class="fil1" d="M1910 1016c0,-8 2,-14 6,-18 4,-3 9,-5 14,-5 6,0 11,2 15,6 3,4 5,10 5,16 0,6 -1,10 -2,14 -2,3 -4,5 -8,7 -3,2 -6,3 -10,3 -6,0 -11,-2 -15,-6 -3,-4 -5,-10 -5,-17zm7 0c0,6 1,10 4,12 2,3 5,5 9,5 4,0 7,-2 9,-5 3,-2 4,-7 4,-12 0,-6 -2,-10 -4,-12 -2,-3 -5,-4 -9,-4 -4,0 -7,1 -9,4 -3,2 -4,7 -4,12z"/>
  <path id="34" class="fil1" d="M1958 1054l0 -6c1,0 3,0 4,0 1,0 3,0 4,-1 1,0 2,-1 2,-2 1,-1 1,-2 2,-5 1,-1 1,-1 1,-2l-16 -44 7 0 10 25c1,4 2,7 3,10 1,-3 2,-6 3,-9l9 -26 7 0 -16 44c-2,5 -3,8 -4,10 -2,3 -3,4 -5,5 -1,2 -3,2 -6,2 -1,0 -3,0 -5,-1z"/>
  <polygon id="35" class="fil1" points="1996,1038 1996,1029 2005,1029 2005,1038 "/>
  <path id="36" class="fil1" d="M2016 1009c0,-10 3,-18 8,-24 5,-5 12,-8 21,-8 5,0 10,1 14,4 5,3 8,6 11,11 2,5 3,10 3,16 0,6 -1,11 -4,16 -2,5 -6,9 -10,11 -4,2 -9,4 -14,4 -6,0 -11,-2 -16,-4 -4,-3 -7,-7 -10,-12 -2,-4 -3,-9 -3,-14zm8 0c0,7 2,13 6,17 4,4 9,6 14,6 6,0 11,-2 15,-6 4,-5 6,-10 6,-18 0,-5 -1,-9 -3,-13 -1,-3 -4,-6 -7,-8 -3,-2 -6,-3 -10,-3 -6,0 -11,2 -15,6 -4,3 -6,10 -6,19z"/>
  <path id="37" class="fil1" d="M2082 1054l0 -60 7 0 0 6c2,-2 3,-4 5,-5 2,-1 5,-2 7,-2 4,0 7,1 10,3 3,2 5,5 7,8 1,4 2,8 2,12 0,4 -1,8 -3,12 -1,3 -3,6 -7,8 -3,2 -6,3 -9,3 -2,0 -5,-1 -7,-2 -2,-1 -3,-2 -4,-4l0 21 -8 0zm7 -38c0,6 1,10 3,13 3,2 5,4 8,4 4,0 7,-2 9,-5 2,-2 3,-7 3,-12 0,-6 -1,-10 -3,-13 -2,-2 -5,-4 -8,-4 -3,0 -6,2 -8,5 -3,3 -4,7 -4,12z"/>
  <path id="38" class="fil1" d="M2158 1024l8 1c-1,4 -4,7 -7,10 -3,2 -7,4 -12,4 -7,0 -12,-2 -15,-6 -4,-4 -6,-10 -6,-17 0,-7 2,-12 6,-16 4,-5 8,-7 14,-7 6,0 11,2 14,6 4,4 6,10 6,17 0,0 0,1 0,2l-32 0c0,5 1,8 4,11 2,2 5,4 9,4 2,0 5,-1 7,-3 2,-1 3,-3 4,-6zm-24 -12l24 0c0,-4 -1,-6 -3,-8 -2,-3 -5,-5 -9,-5 -3,0 -6,2 -8,4 -2,2 -4,5 -4,9z"/>
  <path id="39" class="fil1" d="M2175 1038l0 -44 6 0 0 7c2,-3 4,-5 5,-6 2,-1 3,-2 5,-2 2,0 5,1 7,3l-2 7c-2,-1 -4,-2 -6,-2 -1,0 -3,1 -4,2 -1,0 -2,2 -3,4 0,2 -1,5 -1,8l0 23 -7 0z"/>
  <path id="40" class="fil1" d="M2231 1032c-3,3 -5,4 -8,5 -2,1 -5,2 -8,2 -5,0 -8,-2 -11,-4 -2,-2 -4,-5 -4,-9 0,-2 1,-4 2,-6 1,-1 2,-3 3,-4 2,-1 4,-2 6,-2 1,-1 3,-1 6,-1 6,-1 11,-2 13,-3 0,-1 0,-1 0,-2 0,-3 0,-5 -2,-6 -2,-2 -4,-2 -8,-2 -4,0 -6,0 -8,1 -1,2 -3,4 -3,7l-8 -1c1,-3 2,-6 4,-8 1,-2 3,-3 6,-4 3,-1 6,-2 10,-2 4,0 7,1 9,2 2,1 4,2 5,3 1,1 2,3 2,5 1,1 1,4 1,7l0 10c0,6 0,11 0,12 1,2 1,4 2,6l-8 0c0,-2 -1,-4 -1,-6zm-1 -16c-2,1 -6,2 -12,3 -3,0 -5,1 -6,1 -1,1 -2,2 -3,3 -1,1 -1,2 -1,3 0,2 1,4 2,5 2,1 4,2 7,2 3,0 5,-1 7,-2 3,-1 4,-3 5,-5 1,-2 1,-4 1,-7l0 -3z"/>
  <path id="41" class="fil1" d="M2265 1031l1 7c-2,0 -4,0 -6,0 -2,0 -4,0 -6,-1 -1,-1 -2,-2 -3,-3 0,-2 -1,-5 -1,-9l0 -25 -5 0 0 -6 5 0 0 -10 8 -5 0 15 7 0 0 6 -7 0 0 25c0,3 0,4 0,4 0,1 1,2 1,2 1,0 2,0 3,0 1,0 2,0 3,0z"/>
  <path id="42" class="fil1" d="M2302 1024l7 1c-1,4 -3,7 -6,10 -4,2 -8,4 -13,4 -6,0 -11,-2 -15,-6 -3,-4 -5,-10 -5,-17 0,-7 2,-12 5,-16 4,-5 9,-7 15,-7 6,0 10,2 14,6 4,4 6,10 6,17 0,0 0,1 0,2l-33 0c1,5 2,8 4,11 3,2 6,4 9,4 3,0 5,-1 7,-3 2,-1 4,-3 5,-6zm-24 -12l24 0c-1,-4 -1,-6 -3,-8 -2,-3 -5,-5 -9,-5 -3,0 -6,2 -8,4 -3,2 -4,5 -4,9z"/>
  <polygon id="43" class="fil1" points="2321,1038 2321,1029 2329,1029 2329,1038 "/>
  <path id="44" class="fil1" d="M2342 1038l0 -60 12 0 14 42c2,4 3,7 3,9 1,-2 2,-5 3,-10l15 -41 10 0 0 60 -7 0 0 -50 -18 50 -7 0 -17 -51 0 51 -8 0z"/>
  <path id="45" class="fil1" d="M2408 1016c0,-8 3,-14 7,-18 4,-3 8,-5 14,-5 6,0 10,2 14,6 4,4 6,10 6,16 0,6 -1,10 -3,14 -1,3 -4,5 -7,7 -3,2 -7,3 -10,3 -6,0 -11,-2 -15,-6 -4,-4 -6,-10 -6,-17zm8 0c0,6 1,10 4,12 2,3 5,5 9,5 3,0 6,-2 9,-5 2,-2 3,-7 3,-12 0,-6 -1,-10 -3,-12 -3,-3 -6,-4 -9,-4 -4,0 -7,1 -9,4 -3,2 -4,7 -4,12z"/>
  <path id="46" class="fil1" d="M2457 1038l0 -44 7 0 0 7c3,-5 8,-8 14,-8 2,0 5,1 7,2 2,1 4,2 5,4 1,1 2,3 2,5 0,1 1,4 1,7l0 27 -8 0 0 -27c0,-3 0,-5 -1,-6 0,-2 -1,-3 -3,-4 -1,-1 -3,-1 -5,-1 -3,0 -6,1 -8,3 -2,2 -3,6 -3,11l0 24 -8 0z"/>
  <path id="47" class="fil1" d="M2504 986l0 -8 7 0 0 8 -7 0zm0 52l0 -44 7 0 0 44 -7 0z"/>
  <path id="48" class="fil1" d="M2538 1031l1 7c-2,0 -4,0 -5,0 -3,0 -5,0 -6,-1 -2,-1 -3,-2 -4,-3 0,-2 0,-5 0,-9l0 -25 -6 0 0 -6 6 0 0 -10 7 -5 0 15 7 0 0 6 -7 0 0 25c0,3 0,4 0,4 1,1 1,2 2,2 0,0 1,0 2,0 1,0 2,0 3,0z"/>
  <path id="49" class="fil1" d="M2543 1016c0,-8 2,-14 6,-18 4,-3 9,-5 14,-5 6,0 11,2 15,6 3,4 5,10 5,16 0,6 -1,10 -2,14 -2,3 -4,5 -8,7 -3,2 -6,3 -10,3 -6,0 -11,-2 -15,-6 -3,-4 -5,-10 -5,-17zm7 0c0,6 1,10 4,12 2,3 5,5 9,5 4,0 7,-2 9,-5 3,-2 4,-7 4,-12 0,-6 -1,-10 -4,-12 -2,-3 -5,-4 -9,-4 -4,0 -7,1 -9,4 -3,2 -4,7 -4,12z"/>
  <path id="50" class="fil1" d="M2592 1038l0 -44 6 0 0 7c2,-3 4,-5 5,-6 1,-1 3,-2 5,-2 2,0 5,1 7,3l-2 7c-2,-1 -4,-2 -6,-2 -1,0 -3,1 -4,2 -1,0 -2,2 -3,4 0,2 -1,5 -1,8l0 23 -7 0z"/>
  <g id="_862665032">
   <path class="fil2" d="M4023 731c1,1 0,1 1,1l-35 39c-2,1 -2,2 -4,3 -1,2 -1,3 -2,4l-6 6c-1,1 -2,2 -3,3l-32 36c-1,2 -2,2 -3,4l-6 6c-2,2 -2,2 -3,3l-8 9c-5,5 -14,17 -20,22l-99 110 42 4c9,0 22,2 31,2 8,0 16,2 24,2l0 11c0,2 0,4 0,6l-1 17c0,10 -1,24 -1,34 0,3 -1,3 -1,6 0,2 0,4 0,6 0,2 0,2 0,5 0,2 0,4 0,6 1,-1 1,-1 2,-2l17 -19c1,-1 1,-1 2,-2l20 -22c0,-1 1,-1 2,-2l15 -17c1,-1 2,-2 3,-2l7 -9c1,-1 1,-1 2,-2l53 -58c2,-2 1,-2 3,-2 0,-2 0,-1 1,-3l13 -14c1,-1 2,-2 3,-3 5,-6 13,-14 17,-20l12 -12c1,-1 2,-3 3,-4 1,-1 2,-1 3,-3l17 -19c5,-6 17,-17 21,-23 1,-1 1,-2 3,-3l44 -48c4,-4 12,-14 16,-18l30 -33c1,-1 2,-2 3,-3 1,-1 2,-2 3,-3l30 -33c1,-2 3,-32 4,-37l1 -16c0,-3 1,-7 1,-11 0,-7 2,-27 2,-32 -5,0 -19,-1 -25,-2 -4,0 -8,0 -13,-1 -4,0 -9,-1 -13,-1 -8,-1 -17,-1 -25,-2l-22 -2c-2,0 -2,0 -4,0 -1,2 -2,2 -3,4l-63 70c0,0 -1,1 -2,1 0,1 -1,2 -1,3 -1,1 -2,1 -2,2l-20 21c-1,1 -1,2 -2,3l-27 30c-3,3 -2,4 -5,4z"/>
   <path class="fil2" d="M4623 704l-96 -6c-1,0 -3,0 -4,0 -1,0 -1,-1 -3,-1 1,2 4,4 6,7 3,2 4,4 7,6l5 6c2,2 4,5 6,7 12,15 24,40 29,59l5 20c9,42 2,93 -19,129 -3,5 -11,16 -16,21l-19 18c-1,0 -3,1 -3,2 0,0 0,0 0,0 0,0 0,0 0,0l-4 38c0,2 -1,5 -1,8l-3 35c0,5 -1,11 -1,17l12 1c6,0 21,1 26,1 4,0 9,1 13,1l13 1c2,0 4,0 6,0l26 2c3,0 3,0 5,-2 7,-4 13,-9 19,-14l29 -32c13,-18 22,-32 32,-51 8,-16 19,-42 23,-58 4,-16 7,-46 7,-62 0,-31 -2,-56 -9,-85 -2,-6 -3,-10 -4,-16 -5,-15 -11,-31 -17,-45 -3,-8 -12,-26 -16,-34 -1,-1 -1,-2 -2,-3 -1,-1 -2,-2 -2,-3 -3,-5 -5,-9 -8,-13l-12 -18c-4,-5 -19,-26 -23,-28 0,6 -2,26 -3,34 0,2 0,3 0,5 0,13 -4,40 -4,53z"/>
   <path class="fil2" d="M3509 1059c-13,0 -35,-3 -48,-3 -4,-1 -8,-1 -12,-1 -4,0 -8,-1 -12,-1l-18 -1c-2,-1 -4,-1 -6,-1 0,3 6,7 8,8l17 16c27,21 46,34 77,49 5,3 10,5 15,7 41,19 85,28 132,28 16,0 30,-1 44,-2 27,-3 54,-9 80,-16 5,-2 12,-4 17,-6 3,-1 6,-2 9,-3 9,-4 15,-7 24,-11 3,-2 5,-3 8,-5 6,-3 16,-10 21,-14 3,-2 12,-9 12,-12l1 -17c0,-1 0,-3 0,-5 0,-3 1,-3 1,-5 0,-2 0,-4 0,-6 0,-2 0,-3 0,-6 0,-2 0,-4 1,-5 0,-2 0,-4 0,-6 0,-2 0,-3 0,-6 0,-8 1,-20 1,-28 0,-3 1,-3 1,-6l-7 0c-1,-1 -5,-1 -6,-1 -5,-1 -9,-1 -14,-1 -8,-1 -18,-2 -26,-3l-44 -3c-2,0 -1,-1 -3,0 -1,1 -3,2 -4,3 -24,14 -60,26 -88,29 -9,0 -18,1 -27,1l-14 0c-29,-3 -53,-10 -79,-23 -10,-4 -19,-10 -28,-16l-12 -9c-2,-2 -11,-9 -12,-10 0,4 -1,7 -1,12 -1,10 -3,23 -4,34 -1,12 -3,27 -4,39 0,2 0,4 0,6z"/>
   <path class="fil2" d="M3318 823c0,24 2,47 8,70 3,14 6,23 11,37 2,8 6,17 10,25 1,3 2,6 4,9 5,10 10,20 16,30 3,6 6,10 10,15 5,8 9,14 15,21 1,2 2,2 9,2l62 4c3,0 3,0 6,0l17 1c2,0 3,1 5,1l10 -88c0,-2 -2,-4 -4,-7 -20,-28 -36,-63 -36,-106 0,-25 6,-44 13,-65 3,-9 11,-26 17,-35 5,-8 17,-26 24,-34 2,-1 9,-9 9,-10 -4,0 -7,-1 -11,-1 -2,0 -3,-1 -6,-1 -8,0 -19,-2 -28,-2 -2,0 -4,-1 -6,-1l-11 -1c-2,0 -5,0 -6,0 -8,-1 -16,-2 -23,-3l0 -89c-3,2 -4,3 -6,5 -1,1 -1,1 -3,2 -3,3 -18,19 -23,25l-10 11c-1,1 -2,2 -3,3 -12,15 -23,31 -33,48 -7,14 -15,28 -20,44 -3,7 -6,16 -8,24 -1,3 -2,6 -2,8 -4,15 -6,33 -7,48l0 10z"/>
   <path class="fil2" d="M3451 668l38 3c1,0 3,0 4,0l16 1c1,0 2,0 4,0 7,1 12,1 19,1 4,0 16,2 19,2 2,-1 4,-2 6,-3 3,-2 7,-4 11,-6 9,-5 13,-7 22,-10 20,-9 51,-17 74,-17 7,0 5,0 14,0 2,1 5,0 7,0 3,1 8,1 11,2 36,5 64,17 92,38l24 21c1,1 2,2 4,3 0,-8 4,-37 4,-47l1 -12c1,-9 2,-26 3,-35 1,-3 3,-2 5,-2l30 2c4,0 8,1 12,1 4,0 8,0 12,0l34 2c1,1 1,1 3,1 -1,-4 -24,-24 -29,-28 -1,-1 -2,-2 -3,-3 -4,-3 -8,-6 -12,-9 -56,-42 -121,-66 -192,-66 -32,0 -67,4 -98,12 -17,4 -32,8 -47,14 -12,5 -23,10 -34,16 -12,6 -20,10 -31,18 -6,3 -10,7 -15,10 -4,3 -2,4 -3,9 0,4 0,8 0,12l-3 35c0,9 -2,25 -2,35z"/>
   <path class="fil2" d="M4370 1160c36,0 66,-4 98,-13 10,-2 19,-5 27,-8 29,-9 64,-26 89,-42 1,-1 4,-3 5,-4 -4,0 -8,-1 -12,-1l-54 -5c-8,0 -22,-2 -30,-2l2 -18c0,-2 0,-5 0,-7 0,-1 1,-4 1,-5 0,-6 0,-13 1,-19l4 -49 -25 15c-66,34 -137,31 -203,-7 -2,-1 -4,-2 -6,-4l-9 -5c-7,-5 -13,-10 -19,-16 -4,-2 -2,-3 -7,-3l-36 -3c-3,0 -6,0 -10,-1l-54 -4 -2 26c-1,8 -1,18 -3,26l-3 39c0,3 1,3 3,5 5,5 11,10 15,14 33,25 54,41 89,59 4,2 7,3 10,4 13,7 39,15 53,19 23,5 51,9 76,9z"/>
   <path class="fil2" d="M4168 578c10,0 21,1 31,2 2,0 4,0 6,0 3,0 4,1 6,1 2,0 5,0 7,0l47 5 -4 75c0,2 0,3 0,5 0,5 -1,8 -1,12 65,-43 143,-52 213,-17 2,0 3,1 5,2 9,5 16,10 24,17 5,3 1,1 12,2l19 2c2,0 5,0 6,0 1,0 2,0 4,0 1,1 1,1 3,1l57 4c2,0 3,0 4,0 1,0 1,1 3,1l2 -24c1,-3 1,-8 1,-11l5 -59c0,-3 -2,-4 -6,-7 -2,-2 -4,-4 -7,-6 -27,-20 -57,-39 -89,-50 -3,-1 -6,-3 -9,-4 -4,-1 -7,-2 -10,-3 -30,-10 -68,-15 -100,-15 -61,0 -113,14 -168,36l-60 30c0,0 0,0 0,1 -1,0 0,0 -1,0z"/>
   <path class="fil2" d="M3930 836c1,-1 1,-1 3,-3l6 -6c1,-2 2,-2 3,-4l32 -36c1,-1 2,-2 3,-3l6 -6c1,-1 1,-2 2,-4 2,-1 2,-2 4,-3l35 -39c-1,0 0,0 -1,-1l-1 -2c-1,-1 -1,-2 -2,-2 -1,-1 -2,-2 -2,-3 -1,-1 -2,-1 -3,-2l-55 -62c-1,-1 -1,-2 -2,-2l-19 -22c-1,-1 -1,-1 -2,-1 -10,-1 -20,-1 -30,-3l-33 -2c-2,-1 -6,-1 -8,-1l-17 -2c-3,0 -5,0 -8,0 0,7 -1,12 -1,18 0,3 -1,3 -1,5 0,16 -2,34 -3,50 0,2 0,2 0,5l-1 13c0,2 -1,12 0,13l34 38c1,1 2,2 3,3 7,7 14,15 21,23 3,4 12,14 16,18l11 13c2,1 3,3 5,5 2,2 3,3 5,5z"/>
   <path class="fil2" d="M4023 939l68 76c1,1 2,1 3,3l5 5c1,2 2,2 3,3l5 6 10 -93c7,0 27,3 36,3 13,1 31,3 43,4l20 1 -71 -80c-1,-1 -2,-1 -2,-2l-8 -9c-2,-2 -4,-4 -6,-7l-13 -14c-2,1 -2,2 -3,3 -4,6 -16,17 -21,23l-17 19c-1,2 -2,2 -3,3 -1,1 -2,3 -3,4l-12 12c-4,6 -12,14 -17,20 -1,1 -2,2 -3,3l-13 14c-1,2 -1,1 -1,3z"/>
  </g>
 </g>
</svg>
