<?xml version="1.0" encoding="UTF-8"?>
<!DOCTYPE svg PUBLIC "-//W3C//DTD SVG 1.1//EN" "http://www.w3.org/Graphics/SVG/1.1/DTD/svg11.dtd">
<!-- Creator: CorelDRAW X7 -->
<svg xmlns="http://www.w3.org/2000/svg" xml:space="preserve" width="5.33333in" height="1.66666in" version="1.1" style="shape-rendering:geometricPrecision; text-rendering:geometricPrecision; image-rendering:optimizeQuality; fill-rule:evenodd; clip-rule:evenodd"
viewBox="0 0 5333 1667"
 xmlns:xlink="http://www.w3.org/1999/xlink">
 <defs>
  <style type="text/css">
   <![CDATA[
    .fil0 {fill:#DE521F}
    .fil2 {fill:white}
    .fil1 {fill:#FEFEFE;fill-rule:nonzero}
   ]]>
  </style>
 </defs>
 <g id="Layer_x0020_1">
  <metadata id="CorelCorpID_0Corel-Layer"/>
  <rect class="fil0" transform="matrix(3.77501E-015 -0.142536 0.64508 1.70846E-014 -0.00396338 1666.66)" width="11693" height="8268"/>
  <path class="fil1" d="M696 722l76 -100 -43 0 -60 84c-5,8 -11,17 -17,26l-1 0 0 -110 -35 0 0 234 35 0 0 -86 20 -24 64 110 42 0 -81 -134z"/>
  <path id="1" class="fil1" d="M934 688l-35 0 0 104c0,25 -19,38 -35,38 -23,0 -31,-19 -31,-48l0 -94 -36 0 0 100c0,53 26,71 55,71 27,0 43,-16 50,-28l1 0 2 25 31 0c-1,-14 -2,-29 -2,-48l0 -120z"/>
  <path id="2" class="fil1" d="M1015 711l0 -99 -35 0 0 199c0,15 -1,34 -1,45l30 0 2 -25 1 0c11,19 28,28 49,28 35,0 71,-28 71,-90 0,-51 -27,-85 -65,-85 -24,0 -41,10 -51,27l-1 0zm0 46c0,-23 17,-44 39,-44 28,0 42,26 42,58 0,36 -15,60 -42,60 -24,0 -39,-20 -39,-42l0 -32z"/>
  <path id="3" class="fil1" d="M1283 824c-11,5 -23,8 -42,8 -27,0 -50,-14 -51,-52l107 0c0,-4 1,-9 1,-15 0,-41 -19,-81 -67,-81 -47,0 -75,40 -75,90 0,51 29,85 80,85 23,0 41,-4 53,-10l-6 -25zm-93 -69c2,-20 13,-45 39,-45 27,0 35,25 35,45l-74 0z"/>
  <path id="4" class="fil1" d="M1416 685c-3,0 -5,-1 -9,-1 -18,0 -36,13 -43,35l-1 0 -2 -31 -30 0c0,16 1,32 1,51l0 117 35 0 0 -89c0,-29 15,-49 39,-49 4,0 7,0 10,1l0 -34z"/>
  <path id="5" class="fil1" d="M1582 753c0,-52 -29,-69 -55,-69 -26,0 -43,15 -51,29l-1 0 -2 -25 -31 0c1,14 2,29 2,47l0 121 35 0 0 -101c0,-27 18,-41 36,-41 24,0 32,20 32,43l0 99 35 0 0 -103z"/>
  <path id="6" class="fil1" d="M1744 824c-11,5 -24,8 -43,8 -26,0 -50,-14 -51,-52l107 0c1,-4 1,-9 1,-15 0,-41 -19,-81 -66,-81 -48,0 -76,40 -76,90 0,51 30,85 80,85 23,0 42,-4 53,-10l-5 -25zm-93 -69c2,-20 13,-45 38,-45 28,0 36,25 35,45l-73 0z"/>
  <path id="7" class="fil1" d="M1799 688l-24 0 0 26 24 0 0 87c0,22 4,36 13,45 7,9 19,13 33,13 12,0 21,-1 27,-4l-1 -27c-4,1 -9,2 -16,2 -14,0 -21,-10 -21,-31l0 -85 40 0 0 -26 -40 0 0 -41 -35 11 0 30z"/>
  <path id="8" class="fil1" d="M2022 824c-11,5 -24,8 -43,8 -26,0 -50,-14 -51,-52l107 0c1,-4 1,-9 1,-15 0,-41 -19,-81 -66,-81 -48,0 -76,40 -76,90 0,51 29,85 80,85 23,0 41,-4 53,-10l-5 -25zm-93 -69c1,-20 12,-45 38,-45 27,0 36,25 35,45l-73 0z"/>
  <path id="9" class="fil1" d="M2161 694c-9,-5 -23,-10 -40,-10 -35,0 -58,23 -58,51 0,19 13,36 43,48 20,8 27,15 27,28 0,13 -9,22 -28,22 -14,0 -30,-6 -38,-11l-8 26c11,7 28,11 46,11 38,0 62,-19 62,-51 0,-25 -14,-40 -42,-51 -20,-9 -28,-15 -28,-26 0,-12 9,-21 24,-21 14,0 26,5 32,10l8 -26z"/>
  <path class="fil1" d="M616 1009c0,-10 3,-18 8,-24 6,-5 12,-8 21,-8 5,0 10,1 15,4 4,3 8,6 10,11 2,5 3,10 3,16 0,6 -1,11 -3,16 -3,5 -6,9 -11,11 -4,2 -9,4 -14,4 -6,0 -11,-2 -15,-4 -5,-3 -8,-7 -10,-12 -3,-4 -4,-9 -4,-14zm8 0c0,7 2,13 6,17 4,4 9,6 15,6 6,0 11,-2 15,-6 3,-5 5,-10 5,-18 0,-5 -1,-9 -2,-13 -2,-3 -4,-6 -7,-8 -4,-2 -7,-3 -11,-3 -6,0 -10,2 -14,6 -4,3 -7,10 -7,19z"/>
  <path id="1" class="fil1" d="M683 1038l0 -44 6 0 0 7c2,-3 3,-5 5,-6 1,-1 3,-2 5,-2 2,0 5,1 7,3l-3 7c-1,-1 -3,-2 -5,-2 -1,0 -3,1 -4,2 -1,0 -2,2 -3,4 -1,2 -1,5 -1,8l0 23 -7 0z"/>
  <path id="2" class="fil1" d="M739 1022l7 1c-1,5 -3,9 -6,11 -3,3 -7,5 -12,5 -6,0 -11,-2 -14,-6 -4,-4 -6,-10 -6,-17 0,-4 1,-9 3,-12 1,-4 3,-6 7,-8 3,-2 6,-3 10,-3 5,0 8,2 11,4 3,2 5,6 6,10l-7 1c-1,-3 -2,-5 -4,-6 -1,-2 -3,-3 -6,-3 -3,0 -6,2 -9,4 -2,3 -3,7 -3,13 0,6 1,10 3,13 2,2 5,4 9,4 3,0 5,-1 7,-3 2,-2 3,-5 4,-8z"/>
  <path id="3" class="fil1" d="M752 1038l0 -60 7 0 0 21c4,-4 8,-6 13,-6 3,0 6,1 9,2 2,2 4,3 5,6 1,2 1,5 1,9l0 28 -7 0 0 -28c0,-3 -1,-6 -3,-8 -1,-1 -3,-2 -6,-2 -2,0 -4,0 -6,2 -2,1 -4,2 -4,4 -1,2 -2,5 -2,8l0 24 -7 0z"/>
  <path id="4" class="fil1" d="M828 1024l7 1c-1,4 -3,7 -6,10 -3,2 -7,4 -12,4 -7,0 -12,-2 -15,-6 -4,-4 -6,-10 -6,-17 0,-7 2,-12 6,-16 3,-5 8,-7 14,-7 6,0 11,2 14,6 4,4 6,10 6,17 0,0 0,1 0,2l-33 0c1,5 2,8 5,11 2,2 5,4 9,4 2,0 5,-1 6,-3 2,-1 4,-3 5,-6zm-24 -12l24 0c0,-4 -1,-6 -3,-8 -2,-3 -5,-5 -9,-5 -3,0 -6,2 -8,4 -3,2 -4,5 -4,9z"/>
  <path id="5" class="fil1" d="M842 1025l7 -1c0,2 2,5 3,6 2,2 5,3 8,3 4,0 6,-1 8,-2 1,-2 2,-3 2,-5 0,-2 0,-3 -2,-4 -1,-1 -3,-2 -7,-3 -6,-1 -10,-2 -12,-3 -2,-1 -3,-3 -4,-4 -1,-2 -2,-4 -2,-6 0,-2 1,-4 1,-5 1,-2 2,-3 4,-5 1,0 3,-1 5,-2 2,0 4,-1 6,-1 3,0 6,1 9,2 2,1 4,2 6,4 1,2 2,4 2,7l-7 1c0,-3 -1,-4 -3,-6 -1,-1 -4,-2 -6,-2 -4,0 -6,1 -8,2 -1,1 -2,3 -2,4 0,1 0,2 1,3 1,0 2,1 3,2 1,0 3,0 6,1 5,2 9,3 11,4 2,1 4,2 5,4 1,1 2,3 2,6 0,2 -1,5 -2,7 -2,2 -4,4 -7,5 -2,1 -5,2 -9,2 -5,0 -10,-2 -13,-4 -2,-2 -4,-6 -5,-10z"/>
  <path id="6" class="fil1" d="M902 1031l1 7c-2,0 -4,0 -5,0 -3,0 -5,0 -6,-1 -2,-1 -3,-2 -3,-3 -1,-2 -1,-5 -1,-9l0 -25 -6 0 0 -6 6 0 0 -10 7 -5 0 15 7 0 0 6 -7 0 0 25c0,3 0,4 0,4 1,1 1,2 2,2 0,0 1,0 2,0 1,0 2,0 3,0z"/>
  <path id="7" class="fil1" d="M909 1038l0 -44 7 0 0 7c2,-3 3,-5 5,-6 1,-1 3,-2 4,-2 3,0 5,1 8,3l-3 7c-1,-1 -3,-2 -5,-2 -2,0 -3,1 -4,2 -2,0 -2,2 -3,4 -1,2 -1,5 -1,8l0 23 -8 0z"/>
  <path id="8" class="fil1" d="M966 1032c-3,3 -6,4 -8,5 -3,1 -5,2 -8,2 -5,0 -9,-2 -11,-4 -3,-2 -4,-5 -4,-9 0,-2 0,-4 1,-6 1,-1 3,-3 4,-4 2,-1 3,-2 5,-2 2,-1 4,-1 7,-1 6,-1 10,-2 13,-3 0,-1 0,-1 0,-2 0,-3 -1,-5 -2,-6 -2,-2 -5,-2 -8,-2 -4,0 -6,0 -8,1 -2,2 -3,4 -4,7l-7 -1c1,-3 2,-6 3,-8 2,-2 4,-3 7,-4 3,-1 6,-2 10,-2 3,0 6,1 9,2 2,1 4,2 5,3 1,1 2,3 2,5 0,1 0,4 0,7l0 10c0,6 1,11 1,12 0,2 1,4 2,6l-8 0c-1,-2 -1,-4 -1,-6zm-1 -16c-3,1 -7,2 -12,3 -3,0 -5,1 -6,1 -2,1 -3,2 -3,3 -1,1 -1,2 -1,3 0,2 0,4 2,5 1,1 4,2 6,2 3,0 6,-1 8,-2 2,-1 4,-3 5,-5 1,-2 1,-4 1,-7l0 -3z"/>
  <path id="9" class="fil1" d="M1000 1031l1 7c-2,0 -4,0 -6,0 -3,0 -5,0 -6,-1 -2,-1 -3,-2 -3,-3 -1,-2 -1,-5 -1,-9l0 -25 -5 0 0 -6 5 0 0 -10 7 -5 0 15 8 0 0 6 -8 0 0 25c0,3 0,4 1,4 0,1 0,2 1,2 0,0 1,0 2,0 1,0 2,0 4,0z"/>
  <path id="10" class="fil1" d="M1036 1024l8 1c-1,4 -3,7 -7,10 -3,2 -7,4 -12,4 -6,0 -11,-2 -15,-6 -4,-4 -6,-10 -6,-17 0,-7 2,-12 6,-16 4,-5 9,-7 15,-7 5,0 10,2 14,6 3,4 5,10 5,17 0,0 0,1 0,2l-32 0c0,5 2,8 4,11 2,2 5,4 9,4 3,0 5,-1 7,-3 2,-1 3,-3 4,-6zm-24 -12l24 0c0,-4 -1,-6 -2,-8 -3,-3 -6,-5 -9,-5 -4,0 -7,2 -9,4 -2,2 -3,5 -4,9z"/>
  <path id="11" class="fil1" d="M1076 1054l-1 -6c2,0 3,0 4,0 2,0 3,0 4,-1 1,0 2,-1 3,-2 0,-1 1,-2 2,-5 0,-1 0,-1 1,-2l-17 -44 8 0 9 25c1,4 2,7 3,10 1,-3 2,-6 3,-9l9 -26 8 0 -17 44c-1,5 -3,8 -4,10 -1,3 -3,4 -4,5 -2,2 -4,2 -6,2 -2,0 -3,0 -5,-1z"/>
  <path id="12" class="fil1" d="M1115 1016c0,-8 2,-14 7,-18 4,-3 8,-5 14,-5 5,0 10,2 14,6 4,4 6,10 6,16 0,6 -1,10 -3,14 -1,3 -4,5 -7,7 -3,2 -7,3 -10,3 -7,0 -11,-2 -15,-6 -4,-4 -6,-10 -6,-17zm8 0c0,6 1,10 3,12 3,3 6,5 10,5 3,0 6,-2 9,-5 2,-2 3,-7 3,-12 0,-6 -1,-10 -3,-12 -3,-3 -6,-4 -9,-4 -4,0 -7,1 -10,4 -2,2 -3,7 -3,12z"/>
  <path id="13" class="fil1" d="M1193 1038l0 -7c-4,5 -8,8 -14,8 -3,0 -5,-1 -7,-2 -2,-1 -4,-2 -5,-4 -1,-1 -2,-3 -2,-5 -1,-1 -1,-4 -1,-7l0 -27 8 0 0 24c0,4 0,7 0,8 0,2 1,3 3,5 1,1 3,1 5,1 3,0 5,0 7,-1 1,-2 3,-3 4,-5 0,-2 1,-5 1,-8l0 -24 7 0 0 44 -6 0z"/>
  <path id="14" class="fil1" d="M1211 1038l0 -44 6 0 0 7c2,-3 3,-5 5,-6 1,-1 3,-2 5,-2 2,0 5,1 7,3l-3 7c-1,-1 -3,-2 -5,-2 -1,0 -3,1 -4,2 -1,0 -2,2 -3,4 -1,2 -1,5 -1,8l0 23 -7 0z"/>
  <path id="15" class="fil1" d="M1290 1032c-3,3 -6,4 -8,5 -3,1 -5,2 -8,2 -5,0 -9,-2 -11,-4 -3,-2 -4,-5 -4,-9 0,-2 1,-4 2,-6 1,-1 2,-3 3,-4 2,-1 4,-2 6,-2 1,-1 3,-1 6,-1 6,-1 10,-2 13,-3 0,-1 0,-1 0,-2 0,-3 0,-5 -2,-6 -2,-2 -4,-2 -8,-2 -4,0 -6,0 -8,1 -1,2 -3,4 -3,7l-8 -1c1,-3 2,-6 4,-8 1,-2 3,-3 6,-4 3,-1 6,-2 10,-2 4,0 7,1 9,2 2,1 4,2 5,3 1,1 2,3 2,5 1,1 1,4 1,7l0 10c0,6 0,11 0,12 0,2 1,4 2,6l-8 0c0,-2 -1,-4 -1,-6zm-1 -16c-2,1 -6,2 -12,3 -3,0 -5,1 -6,1 -1,1 -2,2 -3,3 -1,1 -1,2 -1,3 0,2 1,4 2,5 2,1 4,2 7,2 2,0 5,-1 7,-2 2,-1 4,-3 5,-5 1,-2 1,-4 1,-7l0 -3z"/>
  <path id="16" class="fil1" d="M1308 1054l0 -60 7 0 0 6c1,-2 3,-4 5,-5 2,-1 4,-2 7,-2 4,0 7,1 10,3 3,2 5,5 6,8 2,4 2,8 2,12 0,4 0,8 -2,12 -2,3 -4,6 -7,8 -3,2 -6,3 -9,3 -3,0 -5,-1 -7,-2 -2,-1 -3,-2 -5,-4l0 21 -7 0zm7 -38c0,6 1,10 3,13 2,2 5,4 8,4 3,0 6,-2 8,-5 3,-2 4,-7 4,-12 0,-6 -1,-10 -3,-13 -3,-2 -5,-4 -9,-4 -3,0 -5,2 -8,5 -2,3 -3,7 -3,12z"/>
  <path id="17" class="fil1" d="M1354 1054l0 -60 7 0 0 6c2,-2 3,-4 5,-5 2,-1 5,-2 7,-2 4,0 7,1 10,3 3,2 5,5 7,8 1,4 2,8 2,12 0,4 -1,8 -3,12 -1,3 -3,6 -7,8 -3,2 -6,3 -9,3 -2,0 -5,-1 -7,-2 -2,-1 -3,-2 -4,-4l0 21 -8 0zm7 -38c0,6 1,10 3,13 3,2 5,4 8,4 4,0 7,-2 9,-5 2,-2 3,-7 3,-12 0,-6 -1,-10 -3,-13 -2,-2 -5,-4 -8,-4 -3,0 -6,2 -8,5 -3,3 -4,7 -4,12z"/>
  <polygon id="18" class="fil1" points="1400,1038 1400,978 1408,978 1408,1038 "/>
  <path id="19" class="fil1" d="M1419 986l0 -8 7 0 0 8 -7 0zm0 52l0 -44 7 0 0 44 -7 0z"/>
  <path id="20" class="fil1" d="M1466 1022l7 1c-1,5 -3,9 -6,11 -3,3 -7,5 -12,5 -6,0 -11,-2 -14,-6 -4,-4 -5,-10 -5,-17 0,-4 0,-9 2,-12 1,-4 4,-6 7,-8 3,-2 6,-3 10,-3 5,0 9,2 12,4 3,2 5,6 5,10l-7 1c0,-3 -2,-5 -3,-6 -2,-2 -4,-3 -7,-3 -3,0 -6,2 -9,4 -2,3 -3,7 -3,13 0,6 1,10 3,13 3,2 5,4 9,4 3,0 5,-1 7,-3 2,-2 3,-5 4,-8z"/>
  <path id="21" class="fil1" d="M1508 1032c-3,3 -6,4 -8,5 -3,1 -5,2 -8,2 -5,0 -9,-2 -11,-4 -3,-2 -4,-5 -4,-9 0,-2 0,-4 1,-6 1,-1 3,-3 4,-4 2,-1 3,-2 5,-2 2,-1 4,-1 7,-1 6,-1 10,-2 13,-3 0,-1 0,-1 0,-2 0,-3 -1,-5 -2,-6 -2,-2 -5,-2 -8,-2 -4,0 -6,0 -8,1 -2,2 -3,4 -4,7l-7 -1c1,-3 2,-6 3,-8 2,-2 4,-3 7,-4 3,-1 6,-2 10,-2 3,0 6,1 9,2 2,1 4,2 5,3 1,1 2,3 2,5 0,1 0,4 0,7l0 10c0,6 1,11 1,12 0,2 1,4 2,6l-8 0c-1,-2 -1,-4 -1,-6zm-1 -16c-3,1 -7,2 -12,3 -3,0 -5,1 -6,1 -2,1 -3,2 -3,3 -1,1 -1,2 -1,3 0,2 0,4 2,5 1,1 4,2 6,2 3,0 6,-1 8,-2 2,-1 4,-3 5,-5 1,-2 1,-4 1,-7l0 -3z"/>
  <path id="22" class="fil1" d="M1542 1031l1 7c-2,0 -4,0 -6,0 -3,0 -5,0 -6,-1 -2,-1 -3,-2 -3,-3 -1,-2 -1,-5 -1,-9l0 -25 -5 0 0 -6 5 0 0 -10 7 -5 0 15 8 0 0 6 -8 0 0 25c0,3 0,4 1,4 0,1 0,2 1,2 0,0 1,0 2,0 1,0 2,0 4,0z"/>
  <path id="23" class="fil1" d="M1549 986l0 -8 7 0 0 8 -7 0zm0 52l0 -44 7 0 0 44 -7 0z"/>
  <path id="24" class="fil1" d="M1565 1016c0,-8 2,-14 6,-18 4,-3 9,-5 14,-5 6,0 11,2 14,6 4,4 6,10 6,16 0,6 -1,10 -2,14 -2,3 -4,5 -8,7 -3,2 -6,3 -10,3 -6,0 -11,-2 -15,-6 -4,-4 -5,-10 -5,-17zm7 0c0,6 1,10 4,12 2,3 5,5 9,5 4,0 7,-2 9,-5 2,-2 4,-7 4,-12 0,-6 -2,-10 -4,-12 -2,-3 -6,-4 -9,-4 -4,0 -7,1 -9,4 -3,2 -4,7 -4,12z"/>
  <path id="25" class="fil1" d="M1614 1038l0 -44 6 0 0 7c3,-5 8,-8 14,-8 3,0 5,1 7,2 2,1 4,2 5,4 1,1 2,3 2,5 1,1 1,4 1,7l0 27 -8 0 0 -27c0,-3 0,-5 0,-6 -1,-2 -2,-3 -3,-4 -2,-1 -4,-1 -6,-1 -3,0 -5,1 -8,3 -2,2 -3,6 -3,11l0 24 -7 0z"/>
  <path id="26" class="fil1" d="M1711 1038l0 -6c-3,4 -7,7 -12,7 -3,0 -7,-1 -9,-3 -3,-2 -6,-5 -7,-8 -2,-4 -3,-8 -3,-12 0,-4 1,-8 3,-12 1,-3 3,-6 6,-8 3,-2 6,-3 10,-3 2,0 5,1 7,2 2,1 3,3 5,4l0 -21 7 0 0 60 -7 0zm-23 -22c0,6 1,10 3,12 3,3 6,5 9,5 3,0 6,-2 8,-4 2,-3 3,-7 3,-12 0,-6 -1,-11 -3,-13 -2,-3 -5,-4 -9,-4 -3,0 -6,1 -8,4 -2,2 -3,6 -3,12z"/>
  <path id="27" class="fil1" d="M1759 1024l8 1c-2,4 -4,7 -7,10 -3,2 -7,4 -12,4 -7,0 -12,-2 -15,-6 -4,-4 -6,-10 -6,-17 0,-7 2,-12 6,-16 3,-5 8,-7 14,-7 6,0 11,2 14,6 4,4 6,10 6,17 0,0 0,1 0,2l-32 0c0,5 1,8 4,11 2,2 5,4 9,4 2,0 5,-1 7,-3 1,-1 3,-3 4,-6zm-24 -12l24 0c0,-4 -1,-6 -3,-8 -2,-3 -5,-5 -9,-5 -3,0 -6,2 -8,4 -2,2 -4,5 -4,9z"/>
  <path id="28" class="fil1" d="M1776 1054l0 -60 7 0 0 6c1,-2 3,-4 5,-5 2,-1 4,-2 7,-2 4,0 7,1 10,3 3,2 5,5 6,8 2,4 2,8 2,12 0,4 0,8 -2,12 -2,3 -4,6 -7,8 -3,2 -6,3 -9,3 -3,0 -5,-1 -7,-2 -2,-1 -4,-2 -5,-4l0 21 -7 0zm7 -38c0,6 1,10 3,13 2,2 5,4 8,4 3,0 6,-2 8,-5 3,-2 4,-7 4,-12 0,-6 -1,-10 -4,-13 -2,-2 -4,-4 -8,-4 -3,0 -5,2 -8,5 -2,3 -3,7 -3,12z"/>
  <polygon id="29" class="fil1" points="1822,1038 1822,978 1829,978 1829,1038 "/>
  <path id="30" class="fil1" d="M1838 1016c0,-8 2,-14 7,-18 3,-3 8,-5 13,-5 6,0 11,2 15,6 4,4 6,10 6,16 0,6 -1,10 -3,14 -2,3 -4,5 -7,7 -3,2 -7,3 -11,3 -6,0 -11,-2 -14,-6 -4,-4 -6,-10 -6,-17zm8 0c0,6 1,10 3,12 3,3 6,5 9,5 4,0 7,-2 9,-5 3,-2 4,-7 4,-12 0,-6 -1,-10 -4,-12 -2,-3 -5,-4 -9,-4 -3,0 -6,1 -9,4 -2,2 -3,7 -3,12z"/>
  <path id="31" class="fil1" d="M1887 1054l-1 -6c2,0 3,0 4,0 2,0 3,0 4,-1 1,0 2,-1 2,-2 1,-1 2,-2 3,-5 0,-1 0,-1 0,-2l-16 -44 8 0 9 25c1,4 2,7 3,10 1,-3 2,-6 3,-9l9 -26 7 0 -16 44c-2,5 -3,8 -4,10 -1,3 -3,4 -4,5 -2,2 -4,2 -7,2 -1,0 -3,0 -4,-1z"/>
  <path id="32" class="fil1" d="M1929 1038l0 -44 6 0 0 7c2,-3 3,-4 6,-6 2,-1 5,-2 7,-2 4,0 6,1 8,2 2,2 4,4 5,6 3,-5 8,-8 13,-8 4,0 8,2 10,4 2,2 3,6 3,11l0 30 -7 0 0 -28c0,-2 0,-5 -1,-6 0,-1 -1,-2 -2,-3 -1,-1 -3,-1 -5,-1 -3,0 -5,1 -7,3 -2,2 -3,5 -3,10l0 25 -8 0 0 -28c0,-4 0,-6 -1,-8 -2,-1 -4,-2 -6,-2 -2,0 -4,0 -6,1 -2,2 -3,3 -4,5 -1,2 -1,5 -1,9l0 23 -7 0z"/>
  <path id="33" class="fil1" d="M2028 1024l7 1c-1,4 -3,7 -6,10 -4,2 -8,4 -13,4 -6,0 -11,-2 -15,-6 -3,-4 -5,-10 -5,-17 0,-7 2,-12 5,-16 4,-5 9,-7 15,-7 6,0 10,2 14,6 4,4 6,10 6,17 0,0 -1,1 -1,2l-32 0c1,5 2,8 4,11 3,2 6,4 9,4 3,0 5,-1 7,-3 2,-1 4,-3 5,-6zm-24 -12l24 0c-1,-4 -1,-6 -3,-8 -2,-3 -5,-5 -9,-5 -3,0 -6,2 -9,4 -2,2 -3,5 -3,9z"/>
  <path id="34" class="fil1" d="M2045 1038l0 -44 6 0 0 7c3,-5 8,-8 14,-8 2,0 5,1 7,2 2,1 4,2 5,4 1,1 2,3 2,5 0,1 1,4 1,7l0 27 -8 0 0 -27c0,-3 0,-5 -1,-6 0,-2 -1,-3 -3,-4 -1,-1 -3,-1 -5,-1 -3,0 -5,1 -8,3 -2,2 -3,6 -3,11l0 24 -7 0z"/>
  <path id="35" class="fil1" d="M2107 1031l1 7c-2,0 -4,0 -6,0 -2,0 -4,0 -6,-1 -1,-1 -2,-2 -3,-3 -1,-2 -1,-5 -1,-9l0 -25 -5 0 0 -6 5 0 0 -10 7 -5 0 15 8 0 0 6 -8 0 0 25c0,3 1,4 1,4 0,1 1,2 1,2 1,0 2,0 3,0 0,0 1,0 3,0z"/>
  <path id="36" class="fil1" d="M2165 1032c-2,3 -5,4 -7,5 -3,1 -6,2 -9,2 -4,0 -8,-2 -10,-4 -3,-2 -4,-5 -4,-9 0,-2 0,-4 1,-6 1,-1 2,-3 4,-4 1,-1 3,-2 5,-2 2,-1 4,-1 7,-1 6,-1 10,-2 13,-3 0,-1 0,-1 0,-2 0,-3 -1,-5 -2,-6 -2,-2 -5,-2 -9,-2 -3,0 -6,0 -7,1 -2,2 -3,4 -4,7l-7 -1c1,-3 2,-6 3,-8 2,-2 4,-3 7,-4 2,-1 6,-2 9,-2 4,0 7,1 10,2 2,1 4,2 5,3 1,1 1,3 2,5 0,1 0,4 0,7l0 10c0,6 0,11 1,12 0,2 1,4 2,6l-8 0c-1,-2 -1,-4 -2,-6zm0 -16c-3,1 -7,2 -12,3 -3,0 -5,1 -7,1 -1,1 -2,2 -2,3 -1,1 -1,2 -1,3 0,2 0,4 2,5 1,1 3,2 6,2 3,0 6,-1 8,-2 2,-1 4,-3 5,-5 0,-2 1,-4 1,-7l0 -3z"/>
  <path id="37" class="fil1" d="M2184 1038l0 -44 6 0 0 7c3,-5 8,-8 14,-8 2,0 5,1 7,2 2,1 4,2 5,4 1,1 2,3 2,5 0,1 1,4 1,7l0 27 -8 0 0 -27c0,-3 0,-5 -1,-6 0,-2 -1,-3 -3,-4 -1,-1 -3,-1 -5,-1 -3,0 -5,1 -8,3 -2,2 -3,6 -3,11l0 24 -7 0z"/>
  <path id="38" class="fil1" d="M2258 1038l0 -6c-3,4 -7,7 -12,7 -4,0 -7,-1 -10,-3 -3,-2 -5,-5 -7,-8 -1,-4 -2,-8 -2,-12 0,-4 1,-8 2,-12 2,-3 4,-6 7,-8 3,-2 6,-3 9,-3 3,0 5,1 7,2 2,1 4,3 5,4l0 -21 8 0 0 60 -7 0zm-23 -22c0,6 1,10 3,12 2,3 5,5 8,5 4,0 6,-2 9,-4 2,-3 3,-7 3,-12 0,-6 -1,-11 -3,-13 -3,-3 -6,-4 -9,-4 -3,0 -6,1 -8,4 -2,2 -3,6 -3,12z"/>
  <path id="39" class="fil1" d="M2299 1038l0 -44 7 0 0 7c1,-3 3,-4 5,-6 3,-1 5,-2 8,-2 3,0 6,1 8,2 2,2 3,4 4,6 4,-5 8,-8 14,-8 4,0 7,2 10,4 2,2 3,6 3,11l0 30 -7 0 0 -28c0,-2 -1,-5 -1,-6 0,-1 -1,-2 -3,-3 -1,-1 -2,-1 -4,-1 -3,0 -6,1 -8,3 -2,2 -3,5 -3,10l0 25 -7 0 0 -28c0,-4 -1,-6 -2,-8 -1,-1 -3,-2 -6,-2 -2,0 -4,0 -5,1 -2,2 -3,3 -4,5 -1,2 -1,5 -1,9l0 23 -8 0z"/>
  <path id="40" class="fil1" d="M2397 1032c-3,3 -5,4 -8,5 -2,1 -5,2 -8,2 -5,0 -8,-2 -11,-4 -2,-2 -4,-5 -4,-9 0,-2 1,-4 2,-6 1,-1 2,-3 4,-4 1,-1 3,-2 5,-2 1,-1 3,-1 6,-1 6,-1 11,-2 13,-3 0,-1 0,-1 0,-2 0,-3 0,-5 -2,-6 -2,-2 -4,-2 -8,-2 -3,0 -6,0 -8,1 -1,2 -3,4 -3,7l-7 -1c0,-3 1,-6 3,-8 1,-2 3,-3 6,-4 3,-1 6,-2 10,-2 4,0 7,1 9,2 2,1 4,2 5,3 1,1 2,3 3,5 0,1 0,4 0,7l0 10c0,6 0,11 0,12 1,2 1,4 2,6l-8 0c0,-2 -1,-4 -1,-6zm-1 -16c-2,1 -6,2 -12,3 -3,0 -5,1 -6,1 -1,1 -2,2 -3,3 -1,1 -1,2 -1,3 0,2 1,4 2,5 2,1 4,2 7,2 3,0 5,-1 7,-2 3,-1 4,-3 5,-5 1,-2 1,-4 1,-7l0 -3z"/>
  <path id="41" class="fil1" d="M2415 1038l0 -44 7 0 0 7c3,-5 7,-8 13,-8 3,0 5,1 8,2 2,1 3,2 5,4 1,1 1,3 2,5 0,1 0,4 0,7l0 27 -7 0 0 -27c0,-3 0,-5 -1,-6 -1,-2 -2,-3 -3,-4 -1,-1 -3,-1 -5,-1 -3,0 -6,1 -8,3 -2,2 -4,6 -4,11l0 24 -7 0z"/>
  <path id="42" class="fil1" d="M2490 1032c-3,3 -6,4 -8,5 -3,1 -5,2 -8,2 -5,0 -9,-2 -11,-4 -3,-2 -4,-5 -4,-9 0,-2 0,-4 1,-6 1,-1 3,-3 4,-4 2,-1 4,-2 5,-2 2,-1 4,-1 7,-1 6,-1 10,-2 13,-3 0,-1 0,-1 0,-2 0,-3 -1,-5 -2,-6 -2,-2 -5,-2 -8,-2 -4,0 -6,0 -8,1 -2,2 -3,4 -4,7l-7 -1c1,-3 2,-6 3,-8 2,-2 4,-3 7,-4 3,-1 6,-2 10,-2 3,0 6,1 9,2 2,1 4,2 5,3 1,1 2,3 2,5 0,1 1,4 1,7l0 10c0,6 0,11 0,12 0,2 1,4 2,6l-8 0c-1,-2 -1,-4 -1,-6zm-1 -16c-3,1 -7,2 -12,3 -3,0 -5,1 -6,1 -2,1 -2,2 -3,3 -1,1 -1,2 -1,3 0,2 1,4 2,5 2,1 4,2 7,2 2,0 5,-1 7,-2 2,-1 4,-3 5,-5 1,-2 1,-4 1,-7l0 -3z"/>
  <path id="43" class="fil1" d="M2506 1041l8 1c0,2 1,4 2,5 2,1 4,2 8,2 3,0 6,-1 7,-2 2,-1 3,-3 4,-6 0,-1 1,-4 1,-9 -4,4 -8,6 -12,6 -6,0 -11,-2 -14,-7 -3,-4 -5,-9 -5,-15 0,-4 1,-8 2,-12 2,-3 4,-6 7,-8 3,-2 6,-3 10,-3 5,0 9,3 12,7l0 -6 7 0 0 38c0,6 -1,11 -2,14 -1,3 -4,5 -6,7 -3,1 -7,2 -11,2 -6,0 -10,-1 -13,-3 -3,-3 -5,-6 -5,-11zm6 -26c0,6 2,10 4,13 2,2 5,4 8,4 4,0 7,-2 9,-4 2,-3 3,-7 3,-12 0,-6 -1,-10 -3,-12 -3,-3 -5,-4 -9,-4 -3,0 -6,1 -8,4 -2,2 -4,6 -4,11z"/>
  <path id="44" class="fil1" d="M2584 1024l7 1c-1,4 -3,7 -6,10 -4,2 -8,4 -13,4 -6,0 -11,-2 -15,-6 -3,-4 -5,-10 -5,-17 0,-7 2,-12 5,-16 4,-5 9,-7 15,-7 6,0 10,2 14,6 4,4 6,10 6,17 0,0 -1,1 -1,2l-32 0c1,5 2,8 4,11 3,2 6,4 9,4 3,0 5,-1 7,-3 2,-1 4,-3 5,-6zm-24 -12l24 0c-1,-4 -1,-6 -3,-8 -2,-3 -5,-5 -9,-5 -3,0 -6,2 -9,4 -2,2 -3,5 -3,9z"/>
  <path id="45" class="fil1" d="M2601 1038l0 -44 6 0 0 7c1,-3 3,-4 6,-6 2,-1 4,-2 7,-2 3,0 6,1 8,2 2,2 4,4 4,6 4,-5 8,-8 14,-8 4,0 7,2 10,4 2,2 3,6 3,11l0 30 -7 0 0 -28c0,-2 0,-5 -1,-6 0,-1 -1,-2 -2,-3 -2,-1 -3,-1 -5,-1 -3,0 -5,1 -7,3 -2,2 -3,5 -3,10l0 25 -8 0 0 -28c0,-4 0,-6 -2,-8 -1,-1 -3,-2 -5,-2 -3,0 -4,0 -6,1 -2,2 -3,3 -4,5 -1,2 -1,5 -1,9l0 23 -7 0z"/>
  <path id="46" class="fil1" d="M2699 1024l8 1c-1,4 -3,7 -7,10 -3,2 -7,4 -12,4 -6,0 -11,-2 -15,-6 -4,-4 -5,-10 -5,-17 0,-7 1,-12 5,-16 4,-5 9,-7 15,-7 5,0 10,2 14,6 3,4 5,10 5,17 0,0 0,1 0,2l-32 0c0,5 2,8 4,11 2,2 5,4 9,4 3,0 5,-1 7,-3 2,-1 3,-3 4,-6zm-24 -12l25 0c-1,-4 -2,-6 -3,-8 -3,-3 -6,-5 -9,-5 -4,0 -6,2 -9,4 -2,2 -3,5 -4,9z"/>
  <path id="47" class="fil1" d="M2716 1038l0 -44 7 0 0 7c3,-5 8,-8 14,-8 2,0 5,1 7,2 2,1 4,2 5,4 1,1 2,3 2,5 0,1 0,4 0,7l0 27 -7 0 0 -27c0,-3 0,-5 -1,-6 0,-2 -1,-3 -3,-4 -1,-1 -3,-1 -5,-1 -3,0 -6,1 -8,3 -2,2 -3,6 -3,11l0 24 -8 0z"/>
  <path id="48" class="fil1" d="M2779 1031l1 7c-3,0 -4,0 -6,0 -3,0 -5,0 -6,-1 -2,-1 -3,-2 -3,-3 -1,-2 -1,-5 -1,-9l0 -25 -6 0 0 -6 6 0 0 -10 7 -5 0 15 8 0 0 6 -8 0 0 25c0,3 0,4 1,4 0,1 0,2 1,2 0,0 1,0 2,0 1,0 2,0 4,0z"/>
  <path class="fil2" d="M4431 1189c-55,30 -156,18 -217,1l73 -135c8,-16 13,-34 35,-34 25,-1 43,45 61,77 9,17 44,76 48,91zm80 -39c-7,-10 -75,-164 -69,-183 11,-31 67,-11 96,-6 15,2 92,14 107,19 0,1 1,1 2,2 -16,57 -89,148 -136,168zm-512 -168c11,-8 85,-17 105,-20 33,-6 87,-25 98,7 8,25 -57,148 -65,182 -50,-22 -120,-110 -138,-169zm344 -177c9,0 22,20 28,28 12,15 11,15 6,38 -5,23 -1,26 -20,34 -11,5 -26,17 -37,15 -4,0 -35,-15 -39,-18 -12,-7 -12,-24 -15,-39 -5,-20 1,-22 11,-34 22,-28 10,-24 66,-24zm325 90c-34,-6 -76,-21 -109,-30 -28,-8 -91,-13 -81,-54 3,-12 56,-58 68,-68 17,-13 60,-55 73,-62 9,24 24,45 33,75 17,52 18,88 16,139zm-692 -43c0,-33 7,-66 16,-95 4,-15 9,-27 16,-42 5,-11 11,-26 21,-33l106 96c83,66 -12,76 -52,88 -23,6 -87,28 -105,28l-2 -42zm401 -332c71,3 153,58 185,92l-139 101c-13,9 -32,8 -42,-4 -11,-14 -14,-148 -14,-167 -4,-6 -4,-16 -3,-26 9,0 6,-3 13,4zm-296 92c34,-37 122,-92 198,-94 2,33 -4,85 -7,121 -1,33 5,94 -41,80l-150 -107zm672 307c5,-63 5,-110 -11,-169 -15,-56 -33,-85 -57,-129 5,-7 5,-4 8,-10 4,-7 1,-2 4,-10 14,-41 139,-65 98,-117 -28,-36 -67,10 -79,24 -49,57 -58,40 -79,52 -11,-8 -18,-16 -28,-25 -69,-57 -152,-101 -248,-106 -7,-37 -13,-15 -14,-45 0,-16 3,-37 6,-53 5,-33 7,-77 -34,-73 -52,4 -19,90 -22,132 -1,23 -4,4 -14,39 -54,2 -118,24 -160,45 -56,29 -73,49 -116,86 -17,-7 -31,-6 -45,-19 -25,-23 -51,-55 -67,-63 -18,-10 -39,-4 -47,9 -33,58 86,70 101,117 6,22 5,8 10,21 -19,17 -48,92 -57,126 -15,59 -16,105 -10,168 -8,7 -8,1 -18,11 -7,8 -4,8 -18,12 -41,11 -133,-1 -122,54 7,38 54,23 82,11 75,-30 61,-9 95,-12 16,79 121,211 190,237 -5,20 -3,10 -3,29 1,25 -49,81 -54,103 -6,20 4,37 18,42 41,15 51,-34 61,-63 11,-36 12,-46 34,-61 14,-9 4,-7 16,-15 37,17 103,28 149,28 79,0 94,-14 153,-27 1,1 1,2 1,2 1,1 1,2 2,2 15,18 18,5 29,29 22,49 29,129 79,103 45,-23 -10,-77 -34,-125 -13,-25 3,-13 -7,-44 11,-9 20,-14 32,-22 65,-46 111,-106 145,-180 24,-55 1,-29 34,-41 13,-4 12,-4 27,0 44,10 113,53 127,7 17,-59 -72,-45 -121,-58 -15,-4 -10,-3 -19,-11 -9,-9 -10,-6 -17,-11z"/>
 </g>
</svg>
