<?xml version="1.0" encoding="UTF-8"?>
<!DOCTYPE svg PUBLIC "-//W3C//DTD SVG 1.1//EN" "http://www.w3.org/Graphics/SVG/1.1/DTD/svg11.dtd">
<!-- Creator: CorelDRAW X7 -->
<svg xmlns="http://www.w3.org/2000/svg" xml:space="preserve" width="5.33333in" height="1.66666in" version="1.1" style="shape-rendering:geometricPrecision; text-rendering:geometricPrecision; image-rendering:optimizeQuality; fill-rule:evenodd; clip-rule:evenodd"
viewBox="0 0 5333 1667"
 xmlns:xlink="http://www.w3.org/1999/xlink"
 xmlns:dc="http://purl.org/dc/elements/1.1/"
 xmlns:cc="http://creativecommons.org/ns#"
 xmlns:rdf="http://www.w3.org/1999/02/22-rdf-syntax-ns#"
 xmlns:svg="http://www.w3.org/2000/svg"
 xmlns:sodipodi="http://sodipodi.sourceforge.net/DTD/sodipodi-0.dtd"
 xmlns:inkscape="http://www.inkscape.org/namespaces/inkscape"
 enable-background="new 0 0 712 860"
 inkscape:version="0.91 r13725"
 sodipodi:docname="Tux Mono.svg"
 inkscape:export-filename="./Tux Mono.png"
 inkscape:export-xdpi="90"
 inkscape:export-ydpi="90">
 <defs>
  <style type="text/css">
   <![CDATA[
    .fil2 {fill:#FEFEFE}
    .fil0 {fill:#E89E09}
    .fil1 {fill:#FEFEFE;fill-rule:nonzero}
   ]]>
  </style>
 </defs>
 <g id="Layer_x0020_1">
  <metadata id="CorelCorpID_0Corel-Layer"/>
  <rect class="fil0" width="5333" height="1667"/>
  <polygon class="fil1" points="742,826 652,826 652,622 616,622 616,856 742,856 "/>
  <path id="1" class="fil1" d="M810 642c0,-12 -9,-21 -21,-21 -12,0 -21,9 -21,21 0,11 9,20 21,20 13,0 21,-9 21,-20zm-4 46l-35 0 0 168 35 0 0 -168z"/>
  <path id="2" class="fil1" d="M990 753c0,-52 -29,-69 -55,-69 -25,0 -43,15 -51,29l-1 0 -2 -25 -30 0c0,14 1,29 1,47l0 121 35 0 0 -101c0,-27 19,-41 36,-41 24,0 32,20 32,43l0 99 35 0 0 -103z"/>
  <path id="3" class="fil1" d="M1171 688l-35 0 0 104c0,25 -19,38 -35,38 -23,0 -31,-19 -31,-48l0 -94 -36 0 0 100c0,53 26,71 55,71 27,0 43,-16 50,-28l1 0 2 25 31 0c-1,-14 -2,-29 -2,-48l0 -120z"/>
  <path id="4" class="fil1" d="M1308 688l-20 33c-4,9 -9,18 -14,28l-1 0c-5,-9 -9,-18 -15,-27l-20 -34 -39 0 52 83 -54 85 38 0 20 -36c6,-10 11,-18 15,-28l1 0c5,10 10,19 15,28l21 36 40 0 -54 -87 53 -81 -38 0z"/>
  <path class="fil1" d="M616 1038l0 -60 23 0c4,0 8,1 11,2 2,1 5,3 6,5 2,3 3,6 3,8 0,3 -1,5 -3,7 -1,3 -3,5 -6,6 4,1 7,3 9,5 1,3 2,6 2,9 0,3 0,6 -1,8 -2,3 -3,4 -5,6 -1,1 -4,2 -6,3 -3,0 -6,1 -10,1l-23 0zm8 -35l13 0c4,0 6,0 8,-1 2,0 3,-1 4,-3 1,-1 2,-3 2,-5 0,-2 -1,-4 -2,-5 -1,-2 -2,-3 -4,-3 -2,-1 -5,-1 -9,-1l-12 0 0 18zm0 28l15 0c3,0 4,0 6,-1 1,0 3,0 4,-1 1,-1 2,-2 3,-4 1,-1 1,-3 1,-5 0,-2 0,-4 -1,-5 -2,-2 -3,-3 -5,-4 -2,-1 -5,-1 -9,-1l-14 0 0 21z"/>
  <path id="1" class="fil1" d="M701 1024l7 1c-1,4 -3,7 -6,10 -3,2 -8,4 -13,4 -6,0 -11,-2 -15,-6 -3,-4 -5,-10 -5,-17 0,-7 2,-12 6,-16 3,-5 8,-7 14,-7 6,0 11,2 14,6 4,4 6,10 6,17 0,0 0,1 0,2l-33 0c1,5 2,8 4,11 3,2 6,4 9,4 3,0 5,-1 7,-3 2,-1 4,-3 5,-6zm-24 -12l24 0c0,-4 -1,-6 -3,-8 -2,-3 -5,-5 -9,-5 -3,0 -6,2 -8,4 -3,2 -4,5 -4,9z"/>
  <path id="2" class="fil1" d="M746 1022l7 1c-1,5 -3,9 -6,11 -3,3 -7,5 -12,5 -6,0 -11,-2 -14,-6 -4,-4 -5,-10 -5,-17 0,-4 0,-9 2,-12 1,-4 4,-6 7,-8 3,-2 6,-3 10,-3 5,0 9,2 12,4 3,2 5,6 5,10l-7 1c0,-3 -2,-5 -3,-6 -2,-2 -4,-3 -7,-3 -3,0 -6,2 -9,4 -2,3 -3,7 -3,13 0,6 1,10 3,13 3,2 5,4 9,4 3,0 5,-1 7,-3 2,-2 3,-5 4,-8z"/>
  <path id="3" class="fil1" d="M757 1016c0,-8 2,-14 6,-18 4,-3 9,-5 14,-5 6,0 11,2 14,6 4,4 6,10 6,16 0,6 -1,10 -2,14 -2,3 -5,5 -8,7 -3,2 -6,3 -10,3 -6,0 -11,-2 -15,-6 -4,-4 -5,-10 -5,-17zm7 0c0,6 1,10 4,12 2,3 5,5 9,5 4,0 7,-2 9,-5 2,-2 4,-7 4,-12 0,-6 -2,-10 -4,-12 -2,-3 -6,-4 -9,-4 -4,0 -7,1 -9,4 -3,2 -4,7 -4,12z"/>
  <path id="4" class="fil1" d="M806 1038l0 -44 6 0 0 7c2,-3 3,-4 6,-6 2,-1 4,-2 7,-2 4,0 6,1 8,2 2,2 4,4 5,6 3,-5 7,-8 13,-8 4,0 8,2 10,4 2,2 3,6 3,11l0 30 -7 0 0 -28c0,-2 0,-5 -1,-6 0,-1 -1,-2 -2,-3 -2,-1 -3,-1 -5,-1 -3,0 -5,1 -7,3 -2,2 -3,5 -3,10l0 25 -8 0 0 -28c0,-4 0,-6 -1,-8 -2,-1 -4,-2 -6,-2 -2,0 -4,0 -6,1 -2,2 -3,3 -4,5 -1,2 -1,5 -1,9l0 23 -7 0z"/>
  <path id="5" class="fil1" d="M905 1024l7 1c-1,4 -3,7 -6,10 -4,2 -8,4 -13,4 -6,0 -11,-2 -15,-6 -3,-4 -5,-10 -5,-17 0,-7 2,-12 5,-16 4,-5 9,-7 15,-7 6,0 10,2 14,6 4,4 5,10 5,17 0,0 0,1 0,2l-32 0c0,5 2,8 4,11 3,2 6,4 9,4 3,0 5,-1 7,-3 2,-1 3,-3 5,-6zm-24 -12l24 0c-1,-4 -2,-6 -3,-8 -2,-3 -5,-5 -9,-5 -3,0 -6,2 -9,4 -2,2 -3,5 -3,9z"/>
  <path id="6" class="fil1" d="M973 1032c-3,3 -5,4 -8,5 -3,1 -5,2 -8,2 -5,0 -9,-2 -11,-4 -3,-2 -4,-5 -4,-9 0,-2 1,-4 2,-6 1,-1 2,-3 3,-4 2,-1 4,-2 6,-2 1,-1 3,-1 6,-1 6,-1 10,-2 13,-3 0,-1 0,-1 0,-2 0,-3 0,-5 -2,-6 -2,-2 -4,-2 -8,-2 -4,0 -6,0 -8,1 -1,2 -3,4 -3,7l-8 -1c1,-3 2,-6 4,-8 1,-2 3,-3 6,-4 3,-1 6,-2 10,-2 4,0 7,1 9,2 2,1 4,2 5,3 1,1 2,3 2,5 1,1 1,4 1,7l0 10c0,6 0,11 0,12 0,2 1,4 2,6l-8 0c0,-2 -1,-4 -1,-6zm-1 -16c-2,1 -6,2 -12,3 -3,0 -5,1 -6,1 -1,1 -2,2 -3,3 -1,1 -1,2 -1,3 0,2 1,4 2,5 2,1 4,2 7,2 2,0 5,-1 7,-2 2,-1 4,-3 5,-5 1,-2 1,-4 1,-7l0 -3z"/>
  <path id="7" class="fil1" d="M1011 1025l7 -1c1,2 2,5 4,6 2,2 4,3 8,3 3,0 6,-1 7,-2 2,-2 3,-3 3,-5 0,-2 -1,-3 -3,-4 -1,-1 -3,-2 -7,-3 -5,-1 -9,-2 -11,-3 -2,-1 -4,-3 -5,-4 -1,-2 -2,-4 -2,-6 0,-2 1,-4 2,-5 1,-2 2,-3 3,-5 1,0 3,-1 5,-2 2,0 4,-1 6,-1 4,0 7,1 9,2 3,1 5,2 6,4 1,2 2,4 2,7l-7 1c0,-3 -1,-4 -3,-6 -1,-1 -3,-2 -6,-2 -3,0 -6,1 -7,2 -2,1 -2,3 -2,4 0,1 0,2 0,3 1,0 2,1 3,2 1,0 3,0 7,1 5,2 8,3 11,4 2,1 3,2 4,4 2,1 2,3 2,6 0,2 -1,5 -2,7 -1,2 -4,4 -6,5 -3,1 -6,2 -9,2 -6,0 -10,-2 -13,-4 -3,-2 -5,-6 -6,-10z"/>
  <path id="8" class="fil1" d="M1084 1038l0 -7c-3,5 -8,8 -14,8 -2,0 -5,-1 -7,-2 -2,-1 -4,-2 -5,-4 -1,-1 -2,-3 -2,-5 0,-1 0,-4 0,-7l0 -27 7 0 0 24c0,4 0,7 0,8 1,2 2,3 3,5 2,1 4,1 6,1 2,0 4,0 6,-1 2,-2 3,-3 4,-5 1,-2 1,-5 1,-8l0 -24 8 0 0 44 -7 0z"/>
  <path id="9" class="fil1" d="M1102 1054l0 -60 7 0 0 6c1,-2 3,-4 5,-5 2,-1 4,-2 7,-2 4,0 7,1 10,3 3,2 5,5 6,8 2,4 3,8 3,12 0,4 -1,8 -3,12 -1,3 -4,6 -7,8 -3,2 -6,3 -9,3 -3,0 -5,-1 -7,-2 -2,-1 -3,-2 -5,-4l0 21 -7 0zm7 -38c0,6 1,10 3,13 2,2 5,4 8,4 4,0 6,-2 9,-5 2,-2 3,-7 3,-12 0,-6 -1,-10 -3,-13 -3,-2 -5,-4 -8,-4 -3,0 -6,2 -9,5 -2,3 -3,7 -3,12z"/>
  <path id="10" class="fil1" d="M1178 1024l8 1c-2,4 -4,7 -7,10 -3,2 -7,4 -12,4 -7,0 -12,-2 -15,-6 -4,-4 -6,-10 -6,-17 0,-7 2,-12 6,-16 3,-5 8,-7 14,-7 6,0 11,2 14,6 4,4 6,10 6,17 0,0 0,1 0,2l-32 0c0,5 1,8 4,11 2,2 5,4 9,4 2,0 5,-1 6,-3 2,-1 4,-3 5,-6zm-24 -12l24 0c0,-4 -1,-6 -3,-8 -2,-3 -5,-5 -9,-5 -3,0 -6,2 -8,4 -3,2 -4,5 -4,9z"/>
  <path id="11" class="fil1" d="M1195 1038l0 -44 6 0 0 7c2,-3 4,-5 5,-6 1,-1 3,-2 5,-2 2,0 5,1 7,3l-2 7c-2,-1 -4,-2 -6,-2 -1,0 -3,1 -4,2 -1,0 -2,2 -3,4 -1,2 -1,5 -1,8l0 23 -7 0z"/>
  <path id="12" class="fil1" d="M1251 1038l0 -7c-4,5 -8,8 -14,8 -2,0 -5,-1 -7,-2 -2,-1 -4,-2 -5,-4 -1,-1 -2,-3 -2,-5 0,-1 -1,-4 -1,-7l0 -27 8 0 0 24c0,4 0,7 0,8 1,2 2,3 3,5 2,1 3,1 6,1 2,0 4,0 6,-1 2,-2 3,-3 4,-5 1,-2 1,-5 1,-8l0 -24 7 0 0 44 -6 0z"/>
  <path id="13" class="fil1" d="M1266 1025l7 -1c1,2 2,5 4,6 2,2 4,3 7,3 4,0 6,-1 8,-2 2,-2 2,-3 2,-5 0,-2 0,-3 -2,-4 -1,-1 -3,-2 -7,-3 -6,-1 -9,-2 -11,-3 -3,-1 -4,-3 -5,-4 -1,-2 -2,-4 -2,-6 0,-2 1,-4 2,-5 0,-2 2,-3 3,-5 1,0 3,-1 5,-2 2,0 4,-1 6,-1 4,0 6,1 9,2 3,1 5,2 6,4 1,2 2,4 2,7l-7 1c0,-3 -1,-4 -3,-6 -1,-1 -3,-2 -6,-2 -4,0 -6,1 -8,2 -1,1 -2,3 -2,4 0,1 1,2 1,3 1,0 2,1 3,2 1,0 3,0 6,1 6,2 9,3 11,4 2,1 4,2 5,4 1,1 2,3 2,6 0,2 -1,5 -2,7 -2,2 -4,4 -6,5 -3,1 -6,2 -10,2 -5,0 -9,-2 -12,-4 -3,-2 -5,-6 -6,-10z"/>
  <path id="14" class="fil1" d="M1340 1024l8 1c-2,4 -4,7 -7,10 -3,2 -7,4 -12,4 -7,0 -12,-2 -15,-6 -4,-4 -6,-10 -6,-17 0,-7 2,-12 6,-16 3,-5 8,-7 14,-7 6,0 11,2 14,6 4,4 6,10 6,17 0,0 0,1 0,2l-32 0c0,5 1,8 4,11 2,2 5,4 9,4 2,0 5,-1 7,-3 1,-1 3,-3 4,-6zm-24 -12l24 0c0,-4 -1,-6 -3,-8 -2,-3 -5,-5 -9,-5 -3,0 -6,2 -8,4 -2,2 -4,5 -4,9z"/>
  <path id="15" class="fil1" d="M1357 1038l0 -44 6 0 0 7c2,-3 4,-5 5,-6 2,-1 3,-2 5,-2 2,0 5,1 7,3l-2 7c-2,-1 -4,-2 -6,-2 -1,0 -3,1 -4,2 -1,0 -2,2 -3,4 0,2 -1,5 -1,8l0 23 -7 0z"/>
  <sodipodi:namedview pagecolor="#ffffff" bordercolor="#666666" borderopacity="1" objecttolerance="10" gridtolerance="10" guidetolerance="10" inkscape:pageopacity="0" inkscape:pageshadow="2" inkscape:window-width="1341" inkscape:window-height="1061" id="namedview19" showgrid="false" inkscape:zoom="0.25" inkscape:cx="730.76384" inkscape:cy="436.78527" inkscape:window-x="0" inkscape:window-y="0" inkscape:window-maximized="0" inkscape:current-layer="Calque_1"/>
  <path id="path3" class="fil2" d="M4666 1145c0,0 0,0 0,0 -7,-9 -11,-24 -15,-42 -4,-17 -8,-35 -22,-47 0,0 0,0 0,0 -3,-2 -6,-4 -9,-6 -3,-2 -6,-3 -8,-4 19,-58 11,-115 -8,-167 -24,-63 -66,-119 -98,-157 -36,-45 -71,-88 -71,-151 1,-97 11,-277 -160,-277 -6,0 -14,0 -21,1 -191,15 -140,216 -143,284 -4,49 -14,88 -47,136 -40,47 -96,124 -123,204 -12,37 -18,76 -13,112 -2,2 -3,3 -5,5 -12,12 -20,28 -30,38 -9,9 -22,12 -36,17 -14,5 -29,13 -39,31 0,0 0,0 0,0 0,0 0,0 0,0 -4,8 -6,17 -6,26 0,8 2,17 3,25 3,17 5,33 2,44 -11,30 -13,51 -5,67 8,15 24,22 42,26 37,7 86,5 125,26l4 -6 -4 6c42,22 85,30 118,22 25,-6 45,-20 55,-43 26,0 55,-11 102,-14 31,-2 71,12 116,9 1,5 3,10 5,14 0,0 0,0 0,0 18,35 50,51 85,49 35,-3 72,-24 102,-59l-6 -5 6 5c28,-35 76,-49 107,-68 16,-10 29,-21 30,-39 1,-17 -10,-36 -33,-62zm-460 -621c-1,0 -2,1 -3,1 -7,3 -13,5 -18,9 0,-4 1,-8 0,-12 0,0 0,0 0,0 0,-6 -2,-11 -4,-15 -2,-5 -4,-9 -7,-11 -3,-3 -5,-4 -8,-4 -1,0 -1,0 -1,0 -3,1 -6,2 -9,5 -2,3 -4,7 -5,12 -1,5 -2,10 -1,16 0,0 0,1 0,1 0,5 2,10 4,15 2,5 4,8 7,11 1,0 1,0 2,1 -4,2 -6,4 -8,6 -2,1 -4,3 -6,4 -5,-4 -9,-10 -13,-18 -4,-9 -6,-19 -7,-30l0 0c0,-11 1,-20 4,-30 3,-10 7,-17 13,-22 5,-6 11,-9 18,-9 1,-1 2,-1 2,-1 7,0 12,3 18,7 7,6 12,12 16,21 4,10 6,19 6,30l0 0c1,5 1,9 0,13l0 0zm146 -13c1,13 -2,24 -6,35 -3,6 -6,12 -10,16 -1,-1 -3,-1 -4,-2 -5,-2 -9,-3 -13,-5 -4,-1 -7,-2 -10,-3 2,-3 7,-6 8,-10 3,-6 4,-12 4,-19 0,0 0,0 0,-1 0,-6 0,-12 -2,-18 -2,-6 -5,-10 -9,-14 -3,-4 -7,-5 -12,-6 0,0 0,0 0,0 -5,0 -8,2 -12,5 -4,3 -7,8 -9,14 -3,5 -4,11 -4,18 0,1 0,1 0,1 -1,4 0,8 0,11 -8,-4 -19,-7 -27,-9 0,-4 -1,-7 -1,-11l0 -1c0,-12 2,-23 7,-34 5,-11 11,-19 19,-26 9,-6 17,-9 27,-9l1 0c9,0 17,3 26,9 9,6 15,14 20,25 5,11 7,21 7,33 0,1 0,1 0,1l0 0zm-2 74c-3,-6 -10,-12 -21,-17l0 0 0 0c-24,-10 -35,-11 -48,-20 -22,-14 -40,-19 -55,-19 -7,0 -14,2 -21,4 -18,6 -30,19 -38,26l0 0c0,0 0,0 0,0 -1,2 -3,3 -8,7 -4,3 -11,8 -21,16 -9,6 -12,15 -9,25 3,11 13,22 31,33l0 0 0 0c11,6 19,15 28,22 4,4 9,7 14,9 6,2 12,4 20,5 19,1 33,-5 46,-12 12,-7 23,-16 35,-20l0 0 0 0c25,-8 42,-23 48,-38 3,-7 3,-14 -1,-21zm239 457c-3,0 -6,0 -8,0 0,0 -1,0 -1,0 7,-22 -8,-37 -48,-55 -41,-19 -74,-17 -80,20 0,2 0,4 -1,6 -3,1 -6,2 -9,4 -19,11 -30,30 -36,54 -6,23 -7,52 -9,84 0,0 0,0 0,0 -1,16 -8,38 -14,61 -68,48 -162,69 -242,15 -5,-9 -11,-17 -18,-26 -4,-5 -8,-10 -12,-16 8,0 15,-1 21,-4 7,-3 12,-8 14,-14 5,-13 0,-32 -16,-53 -15,-21 -41,-45 -80,-69 0,0 0,0 0,0 -29,-17 -45,-39 -52,-62 -7,-24 -6,-50 -1,-75 11,-48 40,-95 58,-124 5,-4 1,6 -19,43 -18,34 -51,113 -5,174 1,-43 12,-88 29,-129 25,-58 79,-158 83,-238 2,2 10,7 13,9 0,0 0,0 0,0 10,5 17,14 27,21 9,8 21,15 39,16 2,0 3,0 5,0 18,0 33,-6 45,-13 13,-8 23,-16 33,-19 0,0 0,0 0,0 21,-7 38,-18 47,-32 17,64 54,157 79,202 13,24 38,75 49,136 8,0 15,1 24,3 29,-75 -25,-156 -50,-179 -10,-9 -10,-14 -5,-13 27,23 61,71 74,124 6,24 7,50 1,75 3,1 6,3 9,4 47,23 64,43 56,70zm95 165c0,10 -8,18 -22,27 -29,17 -79,32 -111,71 -28,33 -62,51 -92,53 -30,3 -56,-10 -71,-40l0 0 0 0c-10,-18 -6,-47 2,-77 8,-30 20,-60 21,-85l0 0c2,-32 4,-60 9,-82 5,-22 14,-36 29,-44 1,-1 1,-1 2,-1 2,27 15,56 40,62 26,7 65,-16 81,-35 3,0 6,0 9,0 14,0 26,0 38,11l0 0 0 0c10,8 14,23 18,40 4,16 7,35 18,48l0 0 1 0c22,24 29,41 28,52zm-539 78l0 0 0 0c-3,34 -22,52 -51,59 -29,7 -69,0 -108,-21 0,0 0,0 0,0 -44,-23 -96,-21 -129,-28 -16,-3 -27,-8 -32,-18 -5,-10 -5,-27 5,-56l0 0 0 0c6,-16 2,-34 -1,-50 -2,-17 -4,-32 2,-42l0 -1c7,-14 18,-19 31,-23 13,-5 29,-9 41,-21l0 0 1 0c11,-12 20,-27 30,-38 8,-9 17,-15 29,-15 1,0 1,0 1,0 2,0 4,0 7,0 17,3 32,15 46,34l41 75 0 0 0 0c11,23 34,48 54,74 20,26 35,51 33,71z"/>
  <path id="path11" class="fil2" d="M4287 622c-19,10 -42,22 -67,22 -24,0 -43,-11 -57,-22 -7,-5 -13,-11 -17,-15 -8,-6 -7,-14 -4,-14 5,1 6,8 9,11 5,4 10,9 17,14 13,11 30,21 52,21 22,0 48,-13 63,-22 9,-5 20,-14 30,-20 7,-6 6,-12 12,-11 6,1 2,7 -6,14 -9,7 -21,16 -32,22l0 0z" inkscape:connector-curvature="0" sodipodi:nodetypes="sscccccssszzs"/>
  <path id="path28396-7" class="fil2" d="M4239 550c0,3 5,2 7,4 2,1 4,3 6,3 3,0 6,-1 7,-3 0,-3 -4,-5 -7,-6 -4,-1 -9,-2 -12,0 -1,0 -2,1 -1,2l0 0z" sodipodi:nodetypes="aaaaaaa" inkscape:connector-curvature="0"/>
  <path id="path5461" class="fil2" d="M4214 550c-1,3 -5,2 -8,4 -2,1 -4,3 -6,3 -2,0 -6,-1 -6,-3 0,-3 4,-5 7,-6 3,-1 8,-2 11,0 1,0 2,1 2,2l0 0z" inkscape:connector-curvature="0" sodipodi:nodetypes="aaaaaaa"/>
 </g>
</svg>
