<?xml version="1.0" encoding="UTF-8"?>
<!DOCTYPE svg PUBLIC "-//W3C//DTD SVG 1.1//EN" "http://www.w3.org/Graphics/SVG/1.1/DTD/svg11.dtd">
<!-- Creator: CorelDRAW X7 -->
<svg xmlns="http://www.w3.org/2000/svg" xml:space="preserve" width="5.33333in" height="1.66666in" version="1.1" style="shape-rendering:geometricPrecision; text-rendering:geometricPrecision; image-rendering:optimizeQuality; fill-rule:evenodd; clip-rule:evenodd"
viewBox="0 0 5333 1667"
 xmlns:xlink="http://www.w3.org/1999/xlink"
 xmlns:dc="http://purl.org/dc/elements/1.1/"
 xmlns:cc="http://web.resource.org/cc/"
 xmlns:rdf="http://www.w3.org/1999/02/22-rdf-syntax-ns#"
 xmlns:svg="http://www.w3.org/2000/svg"
 xmlns:sodipodi="http://sodipodi.sourceforge.net/DTD/sodipodi-0.dtd"
 xmlns:inkscape="http://www.inkscape.org/namespaces/inkscape"
 sodipodi:version="0.32"
 inkscape:version="0.45.1"
 sodipodi:docbase="/home/bene/Desktop"
 sodipodi:docname="dessin-1.svg"
 inkscape:output_extension="org.inkscape.output.svg.inkscape">
 <defs>
  <style type="text/css">
   <![CDATA[
    .fil0 {fill:#2C5D66}
    .fil1 {fill:#FEFEFE;fill-rule:nonzero}
   ]]>
  </style>
 </defs>
 <g id="Layer_x0020_1">
  <metadata id="CorelCorpID_0Corel-Layer"/>
  <rect class="fil0" width="5333" height="1667"/>
  <g id="_512582624">
   <path class="fil1" d="M616 856l35 0 0 -92c6,2 13,2 20,2 42,0 87,-20 87,-76 0,-22 -8,-39 -21,-50 -14,-13 -35,-19 -64,-19 -24,0 -43,2 -57,5l0 230zm35 -205c5,-1 13,-2 24,-2 28,0 48,14 48,42 0,30 -20,47 -52,47 -8,0 -14,0 -20,-2l0 -85z"/>
   <path id="1" class="fil1" d="M888 688l-27 94c-3,12 -6,24 -9,34l0 0c-3,-10 -6,-23 -10,-34l-30 -94 -39 0 58 155c1,3 2,5 2,7 0,5 -13,39 -50,52l9 30c8,-2 24,-8 39,-22 20,-19 34,-50 54,-106l41 -116 -38 0z"/>
   <path id="2" class="fil1" d="M958 688l-24 0 0 26 24 0 0 87c0,22 4,36 12,45 7,9 19,13 33,13 12,0 22,-1 28,-4l-2 -27c-4,1 -8,2 -15,2 -15,0 -21,-10 -21,-31l0 -85 40 0 0 -26 -40 0 0 -41 -35 11 0 30z"/>
   <path id="3" class="fil1" d="M1202 754c0,-53 -30,-70 -55,-70 -18,0 -37,9 -48,27l-1 0 0 -99 -35 0 0 244 35 0 0 -103c0,-25 19,-39 36,-39 24,0 32,20 32,44l0 98 36 0 0 -102z"/>
   <path id="4" class="fil1" d="M1315 684c-45,0 -80,32 -80,89 0,54 34,86 77,86 38,0 79,-26 79,-88 0,-52 -30,-87 -76,-87zm40 87c0,34 -16,62 -42,62 -26,0 -41,-28 -41,-61 0,-29 11,-61 41,-61 30,0 42,33 42,60z"/>
   <path id="5" class="fil1" d="M1565 753c0,-52 -30,-69 -56,-69 -25,0 -43,15 -51,29l-1 0 -2 -25 -30 0c0,14 1,29 1,47l0 121 35 0 0 -101c0,-27 19,-41 36,-41 24,0 32,20 32,43l0 99 36 0 0 -103z"/>
   <path class="fil1" d="M629 978l8 0 0 34c0,6 -1,11 -2,15 -2,3 -4,6 -8,8 -3,3 -8,4 -14,4 -5,0 -10,-1 -13,-3 -4,-2 -6,-5 -8,-9 -1,-3 -2,-8 -2,-15l0 -34 8 0 0 34c0,6 0,9 1,12 1,2 3,4 5,6 2,1 5,2 9,2 5,0 10,-2 12,-4 2,-3 4,-8 4,-16l0 -34z"/>
   <path id="1" class="fil1" d="M649 1038l0 -44 6 0 0 7c4,-5 8,-8 14,-8 3,0 5,1 7,2 3,1 4,2 5,4 1,1 2,3 3,5 0,1 0,4 0,7l0 27 -7 0 0 -27c0,-3 -1,-5 -1,-6 -1,-2 -2,-3 -3,-4 -2,-1 -3,-1 -5,-1 -3,0 -6,1 -8,3 -3,2 -4,6 -4,11l0 24 -7 0z"/>
   <polygon id="2" class="fil1" points="695,1038 695,978 702,978 702,1038 "/>
   <path id="3" class="fil1" d="M743 1024l8 1c-1,4 -4,7 -7,10 -3,2 -7,4 -12,4 -6,0 -11,-2 -15,-6 -4,-4 -6,-10 -6,-17 0,-7 2,-12 6,-16 4,-5 9,-7 14,-7 6,0 11,2 15,6 3,4 5,10 5,17 0,0 0,1 0,2l-32 0c0,5 1,8 4,11 2,2 5,4 9,4 3,0 5,-1 7,-3 2,-1 3,-3 4,-6zm-24 -12l24 0c0,-4 -1,-6 -2,-8 -3,-3 -6,-5 -9,-5 -4,0 -7,2 -9,4 -2,2 -4,5 -4,9z"/>
   <path id="4" class="fil1" d="M788 1032c-2,3 -5,4 -8,5 -2,1 -5,2 -8,2 -4,0 -8,-2 -11,-4 -2,-2 -3,-5 -3,-9 0,-2 0,-4 1,-6 1,-1 2,-3 4,-4 1,-1 3,-2 5,-2 2,-1 4,-1 7,-1 6,-1 10,-2 13,-3 0,-1 0,-1 0,-2 0,-3 -1,-5 -2,-6 -2,-2 -5,-2 -9,-2 -3,0 -6,0 -7,1 -2,2 -3,4 -4,7l-7 -1c0,-3 2,-6 3,-8 2,-2 4,-3 7,-4 2,-1 6,-2 9,-2 4,0 7,1 9,2 3,1 4,2 6,3 1,1 1,3 2,5 0,1 0,4 0,7l0 10c0,6 0,11 1,12 0,2 1,4 1,6l-7 0c-1,-2 -1,-4 -2,-6zm0 -16c-3,1 -7,2 -12,3 -3,0 -5,1 -7,1 -1,1 -2,2 -3,3 0,1 -1,2 -1,3 0,2 1,4 3,5 1,1 3,2 6,2 3,0 5,-1 8,-2 2,-1 4,-3 5,-5 0,-2 1,-4 1,-7l0 -3z"/>
   <path id="5" class="fil1" d="M804 1025l7 -1c0,2 1,5 3,6 2,2 5,3 8,3 3,0 6,-1 7,-2 2,-2 3,-3 3,-5 0,-2 -1,-3 -2,-4 -1,-1 -4,-2 -8,-3 -5,-1 -9,-2 -11,-3 -2,-1 -4,-3 -5,-4 -1,-2 -1,-4 -1,-6 0,-2 0,-4 1,-5 1,-2 2,-3 4,-5 1,0 2,-1 4,-2 2,0 4,-1 7,-1 3,0 6,1 9,2 2,1 4,2 5,4 1,2 2,4 3,7l-7 1c-1,-3 -2,-4 -3,-6 -2,-1 -4,-2 -7,-2 -3,0 -6,1 -7,2 -1,1 -2,3 -2,4 0,1 0,2 1,3 0,0 1,1 3,2 0,0 2,0 6,1 5,2 9,3 11,4 2,1 4,2 5,4 1,1 1,3 1,6 0,2 0,5 -2,7 -1,2 -3,4 -6,5 -3,1 -6,2 -9,2 -6,0 -10,-2 -13,-4 -3,-2 -5,-6 -5,-10z"/>
   <path id="6" class="fil1" d="M848 1038l0 -60 7 0 0 21c4,-4 8,-6 13,-6 4,0 6,1 9,2 2,2 4,3 5,6 1,2 1,5 1,9l0 28 -7 0 0 -28c0,-3 -1,-6 -3,-8 -1,-1 -3,-2 -6,-2 -2,0 -4,0 -6,2 -2,1 -4,2 -4,4 -1,2 -2,5 -2,8l0 24 -7 0z"/>
   <path id="7" class="fil1" d="M934 1031l1 7c-3,0 -4,0 -6,0 -3,0 -5,0 -6,-1 -2,-1 -3,-2 -3,-3 -1,-2 -1,-5 -1,-9l0 -25 -6 0 0 -6 6 0 0 -10 7 -5 0 15 8 0 0 6 -8 0 0 25c0,3 0,4 1,4 0,1 0,2 1,2 0,0 1,0 2,0 1,0 2,0 4,0z"/>
   <path id="8" class="fil1" d="M941 1038l0 -60 7 0 0 21c3,-4 8,-6 13,-6 3,0 6,1 8,2 3,2 4,3 5,6 1,2 2,5 2,9l0 28 -7 0 0 -28c0,-3 -1,-6 -3,-8 -1,-1 -4,-2 -7,-2 -2,0 -4,0 -6,2 -2,1 -3,2 -4,4 -1,2 -1,5 -1,8l0 24 -7 0z"/>
   <path id="9" class="fil1" d="M1017 1024l7 1c-1,4 -3,7 -6,10 -4,2 -8,4 -13,4 -6,0 -11,-2 -15,-6 -3,-4 -5,-10 -5,-17 0,-7 2,-12 5,-16 4,-5 9,-7 15,-7 6,0 10,2 14,6 4,4 5,10 5,17 0,0 0,1 0,2l-32 0c0,5 2,8 4,11 3,2 6,4 9,4 3,0 5,-1 7,-3 2,-1 3,-3 5,-6zm-24 -12l24 0c-1,-4 -2,-6 -3,-8 -2,-3 -5,-5 -9,-5 -3,0 -6,2 -9,4 -2,2 -3,5 -3,9z"/>
   <path id="10" class="fil1" d="M1057 1054l0 -60 6 0 0 6c2,-2 4,-4 6,-5 2,-1 4,-2 7,-2 3,0 7,1 10,3 2,2 5,5 6,8 1,4 2,8 2,12 0,4 -1,8 -2,12 -2,3 -4,6 -7,8 -3,2 -6,3 -10,3 -2,0 -4,-1 -6,-2 -2,-1 -4,-2 -5,-4l0 21 -7 0zm6 -38c0,6 1,10 4,13 2,2 5,4 8,4 3,0 6,-2 8,-5 2,-2 4,-7 4,-12 0,-6 -2,-10 -4,-13 -2,-2 -5,-4 -8,-4 -3,0 -6,2 -8,5 -3,3 -4,7 -4,12z"/>
   <path id="11" class="fil1" d="M1100 1016c0,-8 2,-14 7,-18 4,-3 8,-5 13,-5 6,0 11,2 15,6 4,4 6,10 6,16 0,6 -1,10 -3,14 -1,3 -4,5 -7,7 -3,2 -7,3 -11,3 -6,0 -10,-2 -14,-6 -4,-4 -6,-10 -6,-17zm8 0c0,6 1,10 3,12 3,3 6,5 9,5 4,0 7,-2 10,-5 2,-2 3,-7 3,-12 0,-6 -1,-10 -3,-12 -3,-3 -6,-4 -10,-4 -3,0 -6,1 -9,4 -2,2 -3,7 -3,12z"/>
   <path id="12" class="fil1" d="M1157 1038l-13 -44 8 0 7 25 2 10c0,-1 1,-4 2,-9l7 -26 8 0 6 26 2 8 3 -9 7 -25 7 0 -13 44 -8 0 -7 -26 -1 -8 -9 34 -8 0z"/>
   <path id="13" class="fil1" d="M1239 1024l8 1c-2,4 -4,7 -7,10 -3,2 -7,4 -12,4 -7,0 -12,-2 -15,-6 -4,-4 -6,-10 -6,-17 0,-7 2,-12 6,-16 3,-5 8,-7 14,-7 6,0 11,2 14,6 4,4 6,10 6,17 0,0 0,1 0,2l-32 0c0,5 1,8 4,11 2,2 5,4 9,4 2,0 5,-1 6,-3 2,-1 4,-3 5,-6zm-24 -12l24 0c0,-4 -1,-6 -3,-8 -2,-3 -5,-5 -9,-5 -3,0 -6,2 -8,4 -3,2 -4,5 -4,9z"/>
   <path id="14" class="fil1" d="M1256 1038l0 -44 6 0 0 7c2,-3 4,-5 5,-6 1,-1 3,-2 5,-2 2,0 5,1 7,3l-2 7c-2,-1 -4,-2 -6,-2 -1,0 -3,1 -4,2 -1,0 -2,2 -3,4 -1,2 -1,5 -1,8l0 23 -7 0z"/>
   <path id="15" class="fil1" d="M1304 1016c0,-8 2,-14 7,-18 3,-3 8,-5 13,-5 6,0 11,2 15,6 4,4 5,10 5,16 0,6 0,10 -2,14 -2,3 -4,5 -7,7 -3,2 -7,3 -11,3 -6,0 -11,-2 -14,-6 -4,-4 -6,-10 -6,-17zm7 0c0,6 2,10 4,12 3,3 6,5 9,5 4,0 7,-2 9,-5 3,-2 4,-7 4,-12 0,-6 -1,-10 -4,-12 -2,-3 -5,-4 -9,-4 -3,0 -6,1 -9,4 -2,2 -4,7 -4,12z"/>
   <path id="16" class="fil1" d="M1355 1038l0 -38 -7 0 0 -6 7 0 0 -4c0,-3 0,-5 1,-7 0,-2 2,-3 3,-4 2,-1 5,-2 8,-2 2,0 4,0 7,1l-2 6c-1,0 -2,0 -4,0 -2,0 -4,0 -5,1 0,1 -1,3 -1,5l0 4 8 0 0 6 -8 0 0 38 -7 0z"/>
   <path id="17" class="fil1" d="M1415 1031l1 7c-2,0 -4,0 -5,0 -3,0 -5,0 -6,-1 -2,-1 -3,-2 -3,-3 -1,-2 -1,-5 -1,-9l0 -25 -6 0 0 -6 6 0 0 -10 7 -5 0 15 7 0 0 6 -7 0 0 25c0,3 0,4 0,4 1,1 1,2 2,2 0,0 1,0 2,0 1,0 2,0 3,0z"/>
   <path id="18" class="fil1" d="M1423 1038l0 -60 7 0 0 21c3,-4 8,-6 13,-6 3,0 6,1 8,2 2,2 4,3 5,6 1,2 2,5 2,9l0 28 -8 0 0 -28c0,-3 -1,-6 -2,-8 -2,-1 -4,-2 -7,-2 -2,0 -4,0 -6,2 -2,1 -3,2 -4,4 -1,2 -1,5 -1,8l0 24 -7 0z"/>
   <path id="19" class="fil1" d="M1498 1024l8 1c-1,4 -3,7 -7,10 -3,2 -7,4 -12,4 -6,0 -11,-2 -15,-6 -4,-4 -6,-10 -6,-17 0,-7 2,-12 6,-16 4,-5 9,-7 15,-7 5,0 10,2 14,6 3,4 5,10 5,17 0,0 0,1 0,2l-32 0c0,5 2,8 4,11 2,2 5,4 9,4 3,0 5,-1 7,-3 2,-1 3,-3 4,-6zm-24 -12l24 0c0,-4 -1,-6 -2,-8 -3,-3 -6,-5 -9,-5 -4,0 -7,2 -9,4 -2,2 -3,5 -4,9z"/>
   <path id="20" class="fil1" d="M1546 1038l-13 -44 8 0 7 25 2 10c0,-1 1,-4 2,-9l7 -26 8 0 6 26 2 8 3 -9 7 -25 7 0 -13 44 -8 0 -7 -26 -1 -8 -9 34 -8 0z"/>
   <path id="21" class="fil1" d="M1596 1016c0,-8 2,-14 6,-18 4,-3 9,-5 14,-5 6,0 11,2 15,6 3,4 5,10 5,16 0,6 -1,10 -2,14 -2,3 -4,5 -7,7 -4,2 -7,3 -11,3 -6,0 -11,-2 -15,-6 -3,-4 -5,-10 -5,-17zm7 0c0,6 2,10 4,12 2,3 5,5 9,5 4,0 7,-2 9,-5 3,-2 4,-7 4,-12 0,-6 -1,-10 -4,-12 -2,-3 -5,-4 -9,-4 -4,0 -7,1 -9,4 -2,2 -4,7 -4,12z"/>
   <path id="22" class="fil1" d="M1645 1038l0 -44 6 0 0 7c2,-3 4,-5 5,-6 2,-1 3,-2 5,-2 2,0 5,1 7,3l-2 7c-2,-1 -4,-2 -6,-2 -1,0 -3,1 -4,2 -1,0 -2,2 -3,4 0,2 -1,5 -1,8l0 23 -7 0z"/>
   <polygon id="23" class="fil1" points="1672,1038 1672,978 1680,978 1680,1038 "/>
   <path id="24" class="fil1" d="M1719 1038l0 -6c-3,4 -7,7 -12,7 -3,0 -7,-1 -9,-3 -3,-2 -6,-5 -7,-8 -2,-4 -3,-8 -3,-12 0,-4 1,-8 3,-12 1,-3 3,-6 6,-8 3,-2 6,-3 10,-3 2,0 5,1 7,2 2,1 3,3 5,4l0 -21 7 0 0 60 -7 0zm-23 -22c0,6 1,10 3,12 3,3 6,5 9,5 3,0 6,-2 8,-4 2,-3 3,-7 3,-12 0,-6 -1,-11 -3,-13 -2,-3 -5,-4 -9,-4 -3,0 -6,1 -8,4 -2,2 -3,6 -3,12z"/>
   <path id="25" class="fil1" d="M1737 986l0 -9 8 0 0 7c0,4 0,6 -1,8 -1,2 -3,4 -6,5l-1 -3c1,-1 2,-2 3,-3 1,-1 1,-3 1,-5l-4 0z"/>
   <path id="26" class="fil1" d="M1752 1025l7 -1c0,2 1,5 3,6 2,2 5,3 8,3 3,0 6,-1 8,-2 1,-2 2,-3 2,-5 0,-2 -1,-3 -2,-4 -1,-1 -4,-2 -8,-3 -5,-1 -9,-2 -11,-3 -2,-1 -3,-3 -5,-4 -1,-2 -1,-4 -1,-6 0,-2 0,-4 1,-5 1,-2 2,-3 4,-5 1,0 2,-1 4,-2 2,0 5,-1 7,-1 3,0 6,1 9,2 2,1 4,2 5,4 2,2 2,4 3,7l-7 1c-1,-3 -2,-4 -3,-6 -2,-1 -4,-2 -7,-2 -3,0 -5,1 -7,2 -1,1 -2,3 -2,4 0,1 0,2 1,3 0,0 1,1 3,2 0,0 3,0 6,1 5,2 9,3 11,4 2,1 4,2 5,4 1,1 2,3 2,6 0,2 -1,5 -3,7 -1,2 -3,4 -6,5 -2,1 -6,2 -9,2 -6,0 -10,-2 -13,-4 -3,-2 -5,-6 -5,-10z"/>
   <path id="27" class="fil1" d="M1819 1038l0 -44 7 0 0 7c1,-3 3,-4 5,-6 3,-1 5,-2 8,-2 3,0 6,1 8,2 2,2 3,4 4,6 4,-5 8,-8 14,-8 4,0 7,2 10,4 2,2 3,6 3,11l0 30 -7 0 0 -28c0,-2 -1,-5 -1,-6 -1,-1 -1,-2 -3,-3 -1,-1 -2,-1 -4,-1 -3,0 -6,1 -8,3 -2,2 -3,5 -3,10l0 25 -7 0 0 -28c0,-4 -1,-6 -2,-8 -1,-1 -3,-2 -6,-2 -2,0 -4,0 -5,1 -2,2 -3,3 -4,5 -1,2 -1,5 -1,9l0 23 -8 0z"/>
   <path id="28" class="fil1" d="M1886 1016c0,-8 2,-14 7,-18 3,-3 8,-5 13,-5 6,0 11,2 15,6 4,4 6,10 6,16 0,6 -1,10 -3,14 -2,3 -4,5 -7,7 -3,2 -7,3 -11,3 -6,0 -11,-2 -14,-6 -4,-4 -6,-10 -6,-17zm8 0c0,6 1,10 3,12 3,3 6,5 9,5 4,0 7,-2 9,-5 3,-2 4,-7 4,-12 0,-6 -1,-10 -4,-12 -2,-3 -5,-4 -9,-4 -3,0 -6,1 -9,4 -2,2 -3,7 -3,12z"/>
   <path id="29" class="fil1" d="M1932 1025l7 -1c1,2 2,5 4,6 2,2 4,3 8,3 3,0 6,-1 7,-2 2,-2 3,-3 3,-5 0,-2 -1,-3 -3,-4 -1,-1 -3,-2 -7,-3 -5,-1 -9,-2 -11,-3 -2,-1 -4,-3 -5,-4 -1,-2 -2,-4 -2,-6 0,-2 1,-4 2,-5 1,-2 2,-3 3,-5 2,0 3,-1 5,-2 2,0 4,-1 6,-1 4,0 7,1 9,2 3,1 5,2 6,4 1,2 2,4 2,7l-7 1c0,-3 -1,-4 -3,-6 -1,-1 -3,-2 -6,-2 -3,0 -6,1 -7,2 -2,1 -2,3 -2,4 0,1 0,2 0,3 1,0 2,1 3,2 1,0 3,0 7,1 5,2 8,3 11,4 2,1 3,2 4,4 2,1 2,3 2,6 0,2 -1,5 -2,7 -1,2 -4,4 -6,5 -3,1 -6,2 -9,2 -6,0 -10,-2 -13,-4 -3,-2 -5,-6 -6,-10z"/>
   <path id="30" class="fil1" d="M1993 1031l1 7c-2,0 -4,0 -6,0 -2,0 -5,0 -6,-1 -1,-1 -2,-2 -3,-3 -1,-2 -1,-5 -1,-9l0 -25 -5 0 0 -6 5 0 0 -10 7 -5 0 15 8 0 0 6 -8 0 0 25c0,3 0,4 1,4 0,1 0,2 1,2 1,0 1,0 3,0 0,0 1,0 3,0z"/>
   <path id="31" class="fil1" d="M2023 1054l0 -60 7 0 0 6c1,-2 3,-4 5,-5 2,-1 4,-2 7,-2 4,0 7,1 10,3 3,2 5,5 6,8 2,4 3,8 3,12 0,4 -1,8 -3,12 -1,3 -4,6 -7,8 -3,2 -6,3 -9,3 -3,0 -5,-1 -7,-2 -2,-1 -3,-2 -5,-4l0 21 -7 0zm7 -38c0,6 1,10 3,13 2,2 5,4 8,4 4,0 6,-2 9,-5 2,-2 3,-7 3,-12 0,-6 -1,-10 -3,-13 -3,-2 -5,-4 -8,-4 -4,0 -6,2 -9,5 -2,3 -3,7 -3,12z"/>
   <path id="32" class="fil1" d="M2067 1016c0,-8 2,-14 6,-18 4,-3 9,-5 14,-5 6,0 11,2 15,6 3,4 5,10 5,16 0,6 -1,10 -2,14 -2,3 -4,5 -8,7 -3,2 -6,3 -10,3 -6,0 -11,-2 -15,-6 -3,-4 -5,-10 -5,-17zm7 0c0,6 1,10 4,12 2,3 5,5 9,5 4,0 7,-2 9,-5 2,-2 4,-7 4,-12 0,-6 -2,-10 -4,-12 -2,-3 -5,-4 -9,-4 -4,0 -7,1 -9,4 -3,2 -4,7 -4,12z"/>
   <path id="33" class="fil1" d="M2116 1054l0 -60 6 0 0 6c2,-2 4,-4 6,-5 2,-1 4,-2 7,-2 4,0 7,1 10,3 3,2 5,5 6,8 2,4 2,8 2,12 0,4 -1,8 -2,12 -2,3 -4,6 -7,8 -3,2 -6,3 -10,3 -2,0 -4,-1 -6,-2 -2,-1 -4,-2 -5,-4l0 21 -7 0zm6 -38c0,6 2,10 4,13 2,2 5,4 8,4 3,0 6,-2 8,-5 3,-2 4,-7 4,-12 0,-6 -1,-10 -4,-13 -2,-2 -5,-4 -8,-4 -3,0 -6,2 -8,5 -2,3 -4,7 -4,12z"/>
   <path id="34" class="fil1" d="M2190 1038l0 -7c-3,5 -8,8 -13,8 -3,0 -5,-1 -7,-2 -3,-1 -4,-2 -5,-4 -1,-1 -2,-3 -3,-5 0,-1 0,-4 0,-7l0 -27 7 0 0 24c0,4 0,7 1,8 0,2 1,3 3,5 1,1 3,1 5,1 2,0 4,0 6,-1 2,-2 4,-3 4,-5 1,-2 2,-5 2,-8l0 -24 7 0 0 44 -7 0z"/>
   <polygon id="35" class="fil1" points="2208,1038 2208,978 2216,978 2216,1038 "/>
   <path id="36" class="fil1" d="M2255 1032c-2,3 -5,4 -8,5 -2,1 -5,2 -8,2 -4,0 -8,-2 -11,-4 -2,-2 -4,-5 -4,-9 0,-2 1,-4 2,-6 1,-1 2,-3 4,-4 1,-1 3,-2 5,-2 1,-1 4,-1 7,-1 5,-1 10,-2 13,-3 0,-1 0,-1 0,-2 0,-3 -1,-5 -2,-6 -2,-2 -5,-2 -9,-2 -3,0 -6,0 -7,1 -2,2 -3,4 -4,7l-7 -1c0,-3 1,-6 3,-8 1,-2 4,-3 6,-4 3,-1 7,-2 10,-2 4,0 7,1 9,2 3,1 4,2 5,3 2,1 2,3 3,5 0,1 0,4 0,7l0 10c0,6 0,11 1,12 0,2 0,4 1,6l-7 0c-1,-2 -2,-4 -2,-6zm0 -16c-3,1 -7,2 -12,3 -3,0 -6,1 -7,1 -1,1 -2,2 -3,3 0,1 -1,2 -1,3 0,2 1,4 3,5 1,1 3,2 6,2 3,0 5,-1 8,-2 2,-1 3,-3 4,-5 1,-2 2,-4 2,-7l0 -3z"/>
   <path id="37" class="fil1" d="M2273 1038l0 -44 7 0 0 7c2,-3 3,-5 5,-6 1,-1 3,-2 4,-2 3,0 5,1 8,3l-3 7c-2,-1 -3,-2 -5,-2 -2,0 -3,1 -4,2 -2,0 -3,2 -3,4 -1,2 -1,5 -1,8l0 23 -8 0z"/>
   <polygon id="38" class="fil1" points="2324,1038 2324,978 2331,978 2331,1038 "/>
   <path id="39" class="fil1" d="M2371 1032c-3,3 -5,4 -8,5 -2,1 -5,2 -8,2 -5,0 -8,-2 -11,-4 -2,-2 -4,-5 -4,-9 0,-2 1,-4 2,-6 1,-1 2,-3 3,-4 2,-1 4,-2 6,-2 1,-1 3,-1 6,-1 6,-1 11,-2 13,-3 0,-1 0,-1 0,-2 0,-3 0,-5 -2,-6 -2,-2 -4,-2 -8,-2 -3,0 -6,0 -8,1 -1,2 -3,4 -3,7l-7 -1c0,-3 1,-6 3,-8 1,-2 3,-3 6,-4 3,-1 6,-2 10,-2 4,0 7,1 9,2 2,1 4,2 5,3 1,1 2,3 2,5 1,1 1,4 1,7l0 10c0,6 0,11 0,12 1,2 1,4 2,6l-8 0c0,-2 -1,-4 -1,-6zm-1 -16c-2,1 -6,2 -12,3 -3,0 -5,1 -6,1 -1,1 -2,2 -3,3 -1,1 -1,2 -1,3 0,2 1,4 2,5 2,1 4,2 7,2 3,0 5,-1 7,-2 3,-1 4,-3 5,-5 1,-2 1,-4 1,-7l0 -3z"/>
   <path id="40" class="fil1" d="M2389 1038l0 -44 7 0 0 7c3,-5 7,-8 13,-8 3,0 5,1 8,2 2,1 3,2 5,4 1,1 1,3 2,5 0,1 0,4 0,7l0 27 -7 0 0 -27c0,-3 0,-5 -1,-6 -1,-2 -2,-3 -3,-4 -1,-1 -3,-1 -5,-1 -3,0 -6,1 -8,3 -2,2 -4,6 -4,11l0 24 -7 0z"/>
   <path id="41" class="fil1" d="M2434 1041l7 1c0,2 1,4 3,5 1,1 4,2 7,2 4,0 6,-1 8,-2 2,-1 3,-3 4,-6 0,-1 0,-4 0,-9 -3,4 -7,6 -12,6 -6,0 -10,-2 -14,-7 -3,-4 -4,-9 -4,-15 0,-4 0,-8 2,-12 1,-3 3,-6 6,-8 3,-2 6,-3 10,-3 5,0 10,3 13,7l0 -6 7 0 0 38c0,6 -1,11 -2,14 -2,3 -4,5 -7,7 -3,1 -6,2 -11,2 -5,0 -9,-1 -12,-3 -3,-3 -5,-6 -5,-11zm6 -26c0,6 1,10 3,13 3,2 6,4 9,4 3,0 6,-2 8,-4 3,-3 4,-7 4,-12 0,-6 -1,-10 -4,-12 -2,-3 -5,-4 -8,-4 -3,0 -6,1 -8,4 -3,2 -4,6 -4,11z"/>
   <path id="42" class="fil1" d="M2510 1038l0 -7c-3,5 -8,8 -14,8 -2,0 -5,-1 -7,-2 -2,-1 -4,-2 -5,-4 -1,-1 -1,-3 -2,-5 0,-1 0,-4 0,-7l0 -27 7 0 0 24c0,4 0,7 0,8 1,2 2,3 3,5 2,1 4,1 6,1 2,0 4,0 6,-1 2,-2 3,-3 4,-5 1,-2 1,-5 1,-8l0 -24 8 0 0 44 -7 0z"/>
   <path id="43" class="fil1" d="M2556 1032c-2,3 -5,4 -7,5 -3,1 -6,2 -9,2 -4,0 -8,-2 -11,-4 -2,-2 -3,-5 -3,-9 0,-2 0,-4 1,-6 1,-1 2,-3 4,-4 1,-1 3,-2 5,-2 2,-1 4,-1 7,-1 6,-1 10,-2 13,-3 0,-1 0,-1 0,-2 0,-3 -1,-5 -2,-6 -2,-2 -5,-2 -9,-2 -3,0 -6,0 -7,1 -2,2 -3,4 -4,7l-7 -1c1,-3 2,-6 3,-8 2,-2 4,-3 7,-4 2,-1 6,-2 9,-2 4,0 7,1 9,2 3,1 4,2 6,3 1,1 1,3 2,5 0,1 0,4 0,7l0 10c0,6 0,11 1,12 0,2 1,4 1,6l-7 0c-1,-2 -1,-4 -2,-6zm0 -16c-3,1 -7,2 -12,3 -3,0 -5,1 -7,1 -1,1 -2,2 -2,3 -1,1 -2,2 -2,3 0,2 1,4 3,5 1,1 3,2 6,2 3,0 6,-1 8,-2 2,-1 4,-3 5,-5 0,-2 1,-4 1,-7l0 -3z"/>
   <path id="44" class="fil1" d="M2573 1041l7 1c1,2 1,4 3,5 2,1 4,2 7,2 4,0 6,-1 8,-2 2,-1 3,-3 4,-6 0,-1 0,-4 0,-9 -3,4 -7,6 -12,6 -6,0 -10,-2 -13,-7 -4,-4 -5,-9 -5,-15 0,-4 0,-8 2,-12 1,-3 4,-6 6,-8 3,-2 7,-3 10,-3 5,0 10,3 13,7l0 -6 7 0 0 38c0,6 -1,11 -2,14 -2,3 -4,5 -7,7 -3,1 -6,2 -11,2 -5,0 -9,-1 -12,-3 -3,-3 -5,-6 -5,-11zm6 -26c0,6 1,10 4,13 2,2 5,4 8,4 3,0 6,-2 8,-4 3,-3 4,-7 4,-12 0,-6 -1,-10 -4,-12 -2,-3 -5,-4 -8,-4 -3,0 -6,1 -8,4 -3,2 -4,6 -4,11z"/>
   <path id="45" class="fil1" d="M2650 1024l8 1c-1,4 -3,7 -7,10 -3,2 -7,4 -12,4 -6,0 -11,-2 -15,-6 -4,-4 -6,-10 -6,-17 0,-7 2,-12 6,-16 4,-5 9,-7 15,-7 5,0 10,2 14,6 3,4 5,10 5,17 0,0 0,1 0,2l-32 0c0,5 2,8 4,11 2,2 5,4 9,4 3,0 5,-1 7,-3 2,-1 3,-3 4,-6zm-24 -12l24 0c0,-4 -1,-6 -2,-8 -3,-3 -6,-5 -9,-5 -4,0 -7,2 -9,4 -2,2 -3,5 -4,9z"/>
  </g>
  <g id="Python-logo-notext.svg">
   <sodipodi:namedview id="base" pagecolor="#ffffff" bordercolor="#666666" borderopacity="1.0" inkscape:pageopacity="0.0" inkscape:pageshadow="2" inkscape:zoom="0.24748737" inkscape:cx="-260.46312" inkscape:cy="316.02744" inkscape:document-units="px" inkscape:current-layer="layer1" width="131.10236px" height="184.25197px" inkscape:window-width="872" inkscape:window-height="624" inkscape:window-x="5" inkscape:window-y="48"/>
   <g id="layer1" inkscape:label="Calque 1" inkscape:groupmode="layer">
    <g id="g1894">
     <path id="path8615" class="fil1" d="M4306 373c-235,0 -220,102 -220,102l0 105 225 0 0 32 -314 0c0,0 -151,-17 -151,220 0,237 132,229 132,229l78 0 0 -110c0,0 -4,-131 129,-131 134,0 223,0 223,0 0,0 125,2 125,-121 0,-123 0,-203 0,-203 0,0 19,-123 -227,-123zm-123 71c22,0 40,18 40,40 0,22 -18,40 -40,40 -23,0 -41,-18 -41,-40 0,-22 18,-40 41,-40z"/>
     <path id="path8620" class="fil1" d="M4313 1294c235,0 220,-102 220,-102l0 -106 -224 0 0 -31 313 0c0,0 151,17 151,-220 0,-238 -132,-229 -132,-229l-78 0 0 110c0,0 4,131 -129,131 -134,0 -223,0 -223,0 0,0 -125,-2 -125,121 0,123 0,203 0,203 0,0 -19,123 227,123zm124 -71c-23,0 -41,-18 -41,-40 0,-23 18,-41 41,-41 22,0 40,18 40,41 0,22 -18,40 -40,40z"/>
    </g>
   </g>
  </g>
 </g>
</svg>
