<?xml version="1.0" encoding="UTF-8"?>
<!DOCTYPE svg PUBLIC "-//W3C//DTD SVG 1.1//EN" "http://www.w3.org/Graphics/SVG/1.1/DTD/svg11.dtd">
<!-- Creator: CorelDRAW X7 -->
<svg xmlns="http://www.w3.org/2000/svg" xml:space="preserve" width="1.41666in" height="1.66666in" version="1.1" style="shape-rendering:geometricPrecision; text-rendering:geometricPrecision; image-rendering:optimizeQuality; fill-rule:evenodd; clip-rule:evenodd"
viewBox="0 0 1417 1667"
 xmlns:xlink="http://www.w3.org/1999/xlink"
 xmlns:dc="http://purl.org/dc/elements/1.1/"
 xmlns:cc="http://web.resource.org/cc/"
 xmlns:rdf="http://www.w3.org/1999/02/22-rdf-syntax-ns#"
 xmlns:svg="http://www.w3.org/2000/svg"
 xmlns:sodipodi="http://sodipodi.sourceforge.net/DTD/sodipodi-0.dtd"
 xmlns:inkscape="http://www.inkscape.org/namespaces/inkscape"
 sodipodi:version="0.32"
 inkscape:version="0.45.1"
 sodipodi:docbase="/home/bene/Desktop"
 sodipodi:docname="dessin-1.svg"
 inkscape:output_extension="org.inkscape.output.svg.inkscape">
 <defs>
  <style type="text/css">
   <![CDATA[
    .fil0 {fill:#2C5D66}
    .fil1 {fill:#FEFEFE;fill-rule:nonzero}
   ]]>
  </style>
 </defs>
 <g id="Layer_x0020_1">
  <metadata id="CorelCorpID_0Corel-Layer"/>
  <rect class="fil0" width="1417" height="1667"/>
  <g id="Python-logo-notext.svg">
   <sodipodi:namedview id="base" pagecolor="#ffffff" bordercolor="#666666" borderopacity="1.0" inkscape:pageopacity="0.0" inkscape:pageshadow="2" inkscape:zoom="0.24748737" inkscape:cx="-260.46312" inkscape:cy="316.02744" inkscape:document-units="px" inkscape:current-layer="layer1" width="131.10236px" height="184.25197px" inkscape:window-width="872" inkscape:window-height="624" inkscape:window-x="5" inkscape:window-y="48"/>
   <g id="layer1" inkscape:label="Calque 1" inkscape:groupmode="layer">
    <g id="g1894">
     <path id="path8615" class="fil1" d="M707 313c-100,0 -94,43 -94,43l0 45 96 0 0 14 -133 0c0,0 -64,-8 -64,93 0,101 55,97 55,97l34 0 0 -46c0,0 -2,-56 55,-56 56,0 94,0 94,0 0,0 53,1 53,-52 0,-52 0,-86 0,-86 0,0 8,-52 -96,-52zm-53 30c10,0 18,8 18,17 0,10 -8,17 -18,17 -9,0 -17,-7 -17,-17 0,-9 8,-17 17,-17z"/>
     <path id="path8620" class="fil1" d="M710 704c100,0 93,-43 93,-43l0 -45 -95 0 0 -13 133 0c0,0 64,7 64,-94 0,-101 -56,-97 -56,-97l-33 0 0 47c0,0 2,55 -55,55 -57,0 -94,0 -94,0 0,0 -54,0 -54,52 0,52 0,86 0,86 0,0 -8,52 97,52zm52 -30c-9,0 -17,-8 -17,-17 0,-10 8,-17 17,-17 10,0 17,7 17,17 0,9 -7,17 -17,17z"/>
    </g>
   </g>
  </g>
  <path class="fil1" d="M495 949l16 0 0 -41c2,0 5,0 9,0 19,0 39,-9 39,-34 0,-10 -4,-18 -10,-23 -6,-5 -16,-8 -29,-8 -10,0 -19,1 -25,2l0 104zm16 -93c2,0 5,-1 10,-1 13,0 22,7 22,20 0,13 -9,21 -23,21 -4,0 -7,0 -9,-1l0 -39z"/>
  <path id="1" class="fil1" d="M617 873l-12 43c-1,5 -3,10 -4,15l0 0c-1,-5 -3,-10 -4,-15l-14 -43 -17 0 25 70c1,1 1,2 1,3 0,2 -6,18 -22,23l4 14c4,-1 11,-4 18,-10 9,-9 15,-23 24,-47l18 -53 -17 0z"/>
  <path id="2" class="fil1" d="M649 873l-11 0 0 12 11 0 0 39c0,10 1,16 5,20 3,4 9,6 15,6 5,0 10,0 12,-2l0 -12c-2,1 -4,1 -7,1 -7,0 -10,-4 -10,-14l0 -38 18 0 0 -12 -18 0 0 -19 -15 5 0 14z"/>
  <path id="3" class="fil1" d="M758 903c0,-24 -13,-31 -24,-31 -8,0 -17,4 -22,11l0 0 0 -44 -16 0 0 110 16 0 0 -46c0,-12 8,-18 16,-18 11,0 14,9 14,20l0 44 16 0 0 -46z"/>
  <path id="4" class="fil1" d="M809 872c-20,0 -35,14 -35,39 0,25 15,39 34,39 17,0 36,-11 36,-40 0,-23 -14,-38 -35,-38zm18 39c0,15 -7,27 -18,27 -12,0 -19,-12 -19,-27 0,-13 5,-28 19,-28 13,0 18,15 18,28z"/>
  <path id="5" class="fil1" d="M922 903c0,-24 -13,-31 -25,-31 -12,0 -20,6 -23,12l-1 0 0 -11 -14 0c0,7 0,13 0,21l0 55 16 0 0 -46c0,-12 9,-18 16,-18 11,0 15,9 15,19l0 45 16 0 0 -46z"/>
  <path class="fil1" d="M263 1041l3 0 0 17c0,3 0,5 -1,7 0,2 -1,3 -3,4 -2,2 -4,2 -7,2 -3,0 -5,0 -7,-1 -2,-1 -3,-3 -4,-5 -1,-1 -1,-4 -1,-7l0 -17 4 0 0 17c0,3 0,4 1,6 0,1 1,2 2,3 1,0 3,1 5,1 2,0 4,-1 6,-2 1,-2 2,-4 2,-8l0 -17z"/>
  <path id="1" class="fil1" d="M273 1071l0 -22 3 0 0 3c1,-2 4,-4 7,-4 1,0 2,1 3,1 1,1 2,1 3,2 0,1 1,2 1,3 0,0 0,2 0,3l0 14 -4 0 0 -14c0,-1 0,-2 0,-3 0,-1 -1,-1 -1,-2 -1,0 -2,0 -3,0 -2,0 -3,0 -4,1 -1,1 -2,3 -2,6l0 12 -3 0z"/>
  <polygon id="2" class="fil1" points="296,1071 296,1041 299,1041 299,1071 "/>
  <path id="3" class="fil1" d="M320 1064l4 0c-1,2 -2,4 -4,5 -1,1 -3,2 -6,2 -3,0 -6,-1 -7,-3 -2,-2 -3,-5 -3,-8 0,-4 1,-6 3,-8 2,-3 4,-4 7,-4 3,0 5,1 7,3 2,2 3,5 3,9 0,0 0,0 0,1l-16 0c0,2 0,4 2,5 1,1 2,2 4,2 1,0 3,0 4,-1 0,-1 1,-2 2,-3zm-12 -6l12 0c0,-2 -1,-3 -2,-4 -1,-2 -2,-3 -4,-3 -2,0 -3,1 -4,2 -1,1 -2,3 -2,5z"/>
  <path id="4" class="fil1" d="M342 1068c-1,1 -2,2 -4,2 -1,1 -2,1 -4,1 -2,0 -4,-1 -5,-2 -1,-1 -2,-2 -2,-4 0,-1 0,-2 1,-3 0,-1 1,-2 2,-2 0,-1 1,-1 2,-1 1,-1 2,-1 3,-1 3,0 6,-1 7,-1 0,-1 0,-1 0,-1 0,-2 0,-3 -1,-3 -1,-1 -2,-1 -4,-1 -2,0 -3,0 -4,0 -1,1 -1,2 -2,4l-3 -1c0,-1 0,-3 1,-4 1,-1 2,-1 3,-2 2,0 4,-1 5,-1 2,0 4,1 5,1 1,1 2,1 2,2 1,0 1,1 2,2 0,1 0,2 0,4l0 5c0,3 0,5 0,6 0,1 0,2 1,3l-4 0c0,-1 -1,-2 -1,-3zm0 -8c-1,0 -3,1 -6,1 -1,0 -3,1 -3,1 -1,0 -1,1 -2,1 0,1 0,1 0,2 0,1 0,2 1,2 1,1 2,1 3,1 2,0 3,0 4,-1 1,0 2,-1 2,-2 1,-1 1,-2 1,-4l0 -1z"/>
  <path id="5" class="fil1" d="M350 1064l4 0c0,1 0,2 1,3 1,1 3,1 4,1 2,0 3,0 4,-1 1,-1 1,-1 1,-2 0,-1 0,-2 -1,-2 0,-1 -2,-1 -4,-2 -2,0 -4,-1 -5,-1 -1,-1 -2,-2 -3,-2 0,-1 0,-2 0,-3 0,-1 0,-2 0,-3 1,-1 1,-1 2,-2 1,0 1,-1 2,-1 1,0 2,-1 4,-1 1,0 3,1 4,1 1,1 2,1 3,2 0,1 1,2 1,4l-4 0c0,-1 0,-2 -1,-3 -1,0 -2,-1 -3,-1 -2,0 -3,1 -4,1 -1,1 -1,2 -1,2 0,1 0,1 1,2 0,0 0,0 1,1 0,0 1,0 3,0 3,1 5,2 6,2 1,1 1,1 2,2 1,1 1,2 1,3 0,1 0,3 -1,4 -1,1 -2,2 -3,2 -2,1 -3,1 -5,1 -3,0 -5,-1 -6,-2 -2,-1 -3,-3 -3,-5z"/>
  <path id="6" class="fil1" d="M372 1071l0 -30 4 0 0 10c2,-2 4,-3 6,-3 2,0 3,1 4,1 2,1 3,2 3,3 1,1 1,3 1,5l0 14 -4 0 0 -14c0,-2 0,-3 -1,-4 -1,-1 -2,-1 -3,-1 -1,0 -3,0 -3,1 -1,0 -2,1 -2,2 -1,1 -1,2 -1,4l0 12 -4 0z"/>
  <path id="7" class="fil1" d="M415 1067l0 4c-1,0 -2,0 -2,0 -2,0 -3,0 -3,-1 -1,0 -2,-1 -2,-1 0,-1 0,-3 0,-5l0 -12 -3 0 0 -3 3 0 0 -5 3 -3 0 8 4 0 0 3 -4 0 0 12c0,2 0,2 0,2 1,1 1,1 1,1 0,0 1,0 1,0 1,0 1,0 2,0z"/>
  <path id="8" class="fil1" d="M419 1071l0 -30 3 0 0 10c2,-2 4,-3 7,-3 1,0 3,1 4,1 1,1 2,2 2,3 1,1 1,3 1,5l0 14 -4 0 0 -14c0,-2 0,-3 -1,-4 -1,-1 -2,-1 -3,-1 -1,0 -2,0 -3,1 -1,0 -2,1 -2,2 -1,1 -1,2 -1,4l0 12 -3 0z"/>
  <path id="9" class="fil1" d="M456 1064l4 0c0,2 -1,4 -3,5 -2,1 -4,2 -6,2 -3,0 -6,-1 -8,-3 -2,-2 -2,-5 -2,-8 0,-4 0,-6 2,-8 2,-3 5,-4 8,-4 2,0 5,1 7,3 1,2 2,5 2,9 0,0 0,0 0,1l-16 0c0,2 1,4 2,5 1,1 3,2 5,2 1,0 2,0 3,-1 1,-1 2,-2 2,-3zm-12 -6l13 0c-1,-2 -1,-3 -2,-4 -1,-2 -3,-3 -4,-3 -2,0 -3,1 -5,2 -1,1 -1,3 -2,5z"/>
  <path id="10" class="fil1" d="M476 1079l0 -30 4 0 0 3c1,-1 1,-2 2,-3 1,0 3,-1 4,-1 2,0 4,1 5,2 1,1 2,2 3,4 1,2 1,4 1,6 0,2 0,4 -1,6 -1,1 -2,3 -3,4 -2,1 -4,1 -5,1 -1,0 -3,0 -3,-1 -1,0 -2,-1 -3,-2l0 11 -4 0zm4 -19c0,3 0,5 1,6 2,1 3,2 5,2 1,0 3,-1 4,-2 1,-1 1,-4 1,-6 0,-3 0,-5 -1,-7 -1,-1 -3,-2 -4,-2 -2,0 -3,1 -4,3 -2,1 -2,3 -2,6z"/>
  <path id="11" class="fil1" d="M498 1060c0,-4 1,-7 4,-9 1,-2 4,-3 6,-3 3,0 6,1 8,3 2,2 3,5 3,8 0,3 -1,5 -2,7 -1,2 -2,3 -3,4 -2,1 -4,1 -6,1 -3,0 -5,-1 -7,-3 -2,-2 -3,-5 -3,-8zm4 0c0,3 1,5 2,6 1,1 3,2 4,2 2,0 4,-1 5,-2 1,-1 2,-4 2,-6 0,-3 -1,-5 -2,-6 -1,-2 -3,-2 -5,-2 -1,0 -3,0 -4,2 -1,1 -2,3 -2,6z"/>
  <path id="12" class="fil1" d="M527 1071l-7 -22 4 0 3 12 2 5c0,0 0,-2 1,-4l3 -13 4 0 3 13 1 4 2 -5 3 -12 4 0 -7 22 -4 0 -3 -13 -1 -4 -4 17 -4 0z"/>
  <path id="13" class="fil1" d="M568 1064l3 0c0,2 -1,4 -3,5 -1,1 -4,2 -6,2 -3,0 -6,-1 -8,-3 -1,-2 -2,-5 -2,-8 0,-4 1,-6 3,-8 1,-3 4,-4 7,-4 3,0 5,1 7,3 2,2 3,5 3,9 0,0 0,0 0,1l-17 0c1,2 1,4 2,5 2,1 3,2 5,2 1,0 2,0 3,-1 1,-1 2,-2 3,-3zm-12 -6l12 0c0,-2 -1,-3 -2,-4 -1,-2 -2,-3 -4,-3 -2,0 -3,1 -4,2 -2,1 -2,3 -2,5z"/>
  <path id="14" class="fil1" d="M576 1071l0 -22 3 0 0 3c1,-1 2,-2 3,-3 0,0 1,-1 2,-1 1,0 3,1 4,2l-2 3c0,0 -1,-1 -2,-1 -1,0 -2,1 -2,1 -1,0 -1,1 -2,2 0,1 0,3 0,4l0 12 -4 0z"/>
  <path id="15" class="fil1" d="M600 1060c0,-4 1,-7 4,-9 1,-2 4,-3 6,-3 3,0 6,1 8,3 1,2 2,5 2,8 0,3 0,5 -1,7 -1,2 -2,3 -3,4 -2,1 -4,1 -6,1 -3,0 -5,-1 -7,-3 -2,-2 -3,-5 -3,-8zm4 0c0,3 1,5 2,6 1,1 2,2 4,2 2,0 4,-1 5,-2 1,-1 2,-4 2,-6 0,-3 -1,-5 -2,-6 -1,-2 -3,-2 -5,-2 -2,0 -3,0 -4,2 -1,1 -2,3 -2,6z"/>
  <path id="16" class="fil1" d="M626 1071l0 -19 -4 0 0 -3 4 0 0 -2c0,-2 0,-3 0,-4 0,-1 1,-1 2,-2 1,0 2,-1 4,-1 1,0 2,0 3,1l-1 3c0,0 -1,0 -2,0 -1,0 -2,0 -2,0 -1,1 -1,2 -1,3l0 2 4 0 0 3 -4 0 0 19 -3 0z"/>
  <path id="17" class="fil1" d="M656 1067l0 4c-1,0 -2,0 -2,0 -2,0 -3,0 -4,-1 0,0 -1,-1 -1,-1 0,-1 -1,-3 -1,-5l0 -12 -2 0 0 -3 2 0 0 -5 4 -3 0 8 4 0 0 3 -4 0 0 12c0,2 0,2 0,2 0,1 1,1 1,1 0,0 1,0 1,0 1,0 1,0 2,0z"/>
  <path id="18" class="fil1" d="M659 1071l0 -30 4 0 0 10c2,-2 4,-3 7,-3 1,0 3,1 4,1 1,1 2,2 2,3 1,1 1,3 1,5l0 14 -4 0 0 -14c0,-2 0,-3 -1,-4 -1,-1 -2,-1 -3,-1 -1,0 -2,0 -3,1 -1,0 -2,1 -2,2 -1,1 -1,2 -1,4l0 12 -4 0z"/>
  <path id="19" class="fil1" d="M697 1064l4 0c0,2 -2,4 -3,5 -2,1 -4,2 -6,2 -3,0 -6,-1 -8,-3 -2,-2 -3,-5 -3,-8 0,-4 1,-6 3,-8 2,-3 4,-4 7,-4 3,0 6,1 8,3 1,2 2,5 2,9 0,0 0,0 0,1l-16 0c0,2 1,4 2,5 1,1 3,2 5,2 1,0 2,0 3,-1 1,-1 2,-2 2,-3zm-12 -6l12 0c0,-2 0,-3 -1,-4 -1,-2 -3,-3 -5,-3 -1,0 -3,1 -4,2 -1,1 -2,3 -2,5z"/>
  <path id="20" class="fil1" d="M721 1071l-6 -22 4 0 3 12 1 5c0,0 1,-2 1,-4l4 -13 4 0 3 13 1 4 1 -5 4 -12 3 0 -6 22 -4 0 -4 -13 -1 -4 -4 17 -4 0z"/>
  <path id="21" class="fil1" d="M746 1060c0,-4 1,-7 3,-9 2,-2 5,-3 7,-3 3,0 6,1 7,3 2,2 3,5 3,8 0,3 0,5 -1,7 -1,2 -2,3 -4,4 -1,1 -3,1 -5,1 -3,0 -5,-1 -7,-3 -2,-2 -3,-5 -3,-8zm4 0c0,3 0,5 2,6 1,1 2,2 4,2 2,0 4,-1 5,-2 1,-1 2,-4 2,-6 0,-3 -1,-5 -2,-6 -1,-2 -3,-2 -5,-2 -2,0 -3,0 -4,2 -2,1 -2,3 -2,6z"/>
  <path id="22" class="fil1" d="M771 1071l0 -22 3 0 0 3c1,-1 1,-2 2,-3 1,0 2,-1 3,-1 1,0 2,1 3,2l-1 3c-1,0 -2,-1 -3,-1 0,0 -1,1 -2,1 0,0 -1,1 -1,2 -1,1 -1,3 -1,4l0 12 -3 0z"/>
  <polygon id="23" class="fil1" points="784,1071 784,1041 788,1041 788,1071 "/>
  <path id="24" class="fil1" d="M808 1071l0 -3c-2,2 -4,3 -6,3 -2,0 -4,0 -5,-1 -2,-1 -3,-3 -3,-4 -1,-2 -2,-4 -2,-6 0,-2 1,-4 1,-6 1,-2 2,-3 4,-4 1,-1 3,-2 4,-2 2,0 3,1 4,1 1,1 2,2 2,2l0 -10 4 0 0 30 -3 0zm-12 -11c0,3 1,5 2,6 1,1 2,2 4,2 2,0 3,-1 4,-2 1,-1 2,-3 2,-6 0,-3 -1,-5 -2,-6 -1,-2 -2,-2 -4,-2 -2,0 -3,0 -4,2 -1,1 -2,3 -2,6z"/>
  <path id="25" class="fil1" d="M817 1045l0 -5 4 0 0 4c0,2 -1,3 -1,4 -1,1 -1,2 -3,2l-1 -1c1,-1 2,-1 2,-2 0,0 1,-1 1,-2l-2 0z"/>
  <path id="26" class="fil1" d="M824 1064l4 0c0,1 0,2 1,3 1,1 3,1 4,1 2,0 3,0 4,-1 1,-1 1,-1 1,-2 0,-1 0,-2 -1,-2 0,-1 -2,-1 -4,-2 -2,0 -4,-1 -5,-1 -1,-1 -2,-2 -3,-2 0,-1 0,-2 0,-3 0,-1 0,-2 0,-3 1,-1 1,-1 2,-2 1,0 1,-1 2,-1 1,0 2,-1 4,-1 1,0 3,1 4,1 1,1 2,1 3,2 0,1 1,2 1,4l-3 0c-1,-1 -1,-2 -2,-3 -1,0 -2,-1 -3,-1 -2,0 -3,1 -4,1 -1,1 -1,2 -1,2 0,1 0,1 1,2 0,0 0,0 1,1 0,0 1,0 3,0 3,1 5,2 6,2 1,1 1,1 2,2 1,1 1,2 1,3 0,1 0,3 -1,4 -1,1 -2,2 -3,2 -2,1 -3,1 -5,1 -3,0 -5,-1 -6,-2 -2,-1 -3,-3 -3,-5z"/>
  <path id="27" class="fil1" d="M858 1071l0 -22 3 0 0 3c1,-1 2,-2 3,-3 1,0 2,-1 4,-1 1,0 3,1 4,1 1,1 1,2 2,3 1,-2 4,-4 6,-4 3,0 4,1 5,2 2,1 2,3 2,6l0 15 -3 0 0 -14c0,-1 -1,-3 -1,-3 0,-1 -1,-1 -1,-2 -1,0 -2,0 -2,0 -2,0 -3,0 -4,1 -1,1 -2,3 -2,5l0 13 -3 0 0 -14c0,-2 -1,-3 -1,-4 -1,-1 -2,-1 -3,-1 -1,0 -2,0 -3,0 -1,1 -2,2 -2,3 0,1 0,2 0,4l0 12 -4 0z"/>
  <path id="28" class="fil1" d="M891 1060c0,-4 1,-7 4,-9 1,-2 4,-3 6,-3 3,0 6,1 8,3 1,2 2,5 2,8 0,3 0,5 -1,7 -1,2 -2,3 -3,4 -2,1 -4,1 -6,1 -3,0 -5,-1 -7,-3 -2,-2 -3,-5 -3,-8zm4 0c0,3 1,5 2,6 1,1 2,2 4,2 2,0 4,-1 5,-2 1,-1 2,-4 2,-6 0,-3 -1,-5 -2,-6 -1,-2 -3,-2 -5,-2 -2,0 -3,0 -4,2 -1,1 -2,3 -2,6z"/>
  <path id="29" class="fil1" d="M914 1064l4 0c0,1 1,2 2,3 1,1 2,1 3,1 2,0 3,0 4,-1 1,-1 1,-1 1,-2 0,-1 0,-2 -1,-2 0,-1 -1,-1 -3,-2 -3,0 -5,-1 -6,-1 -1,-1 -2,-2 -2,-2 -1,-1 -1,-2 -1,-3 0,-1 0,-2 1,-3 0,-1 1,-1 1,-2 1,0 2,-1 3,-1 1,0 2,-1 3,-1 2,0 3,1 4,1 2,1 3,1 3,2 1,1 1,2 1,4l-3 0c0,-1 -1,-2 -2,-3 0,0 -1,-1 -3,-1 -2,0 -3,1 -3,1 -1,1 -2,2 -2,2 0,1 1,1 1,2 0,0 1,0 1,1 1,0 2,0 4,0 2,1 4,2 5,2 1,1 2,1 2,2 1,1 1,2 1,3 0,1 0,3 -1,4 -1,1 -2,2 -3,2 -1,1 -3,1 -4,1 -3,0 -5,-1 -7,-2 -1,-1 -2,-3 -3,-5z"/>
  <path id="30" class="fil1" d="M945 1067l0 4c-1,0 -2,0 -3,0 -1,0 -2,0 -3,-1 -1,0 -1,-1 -1,-1 -1,-1 -1,-3 -1,-5l0 -12 -3 0 0 -3 3 0 0 -5 4 -3 0 8 4 0 0 3 -4 0 0 12c0,2 0,2 0,2 0,1 0,1 1,1 0,0 0,0 1,0 0,0 1,0 2,0z"/>
  <path id="31" class="fil1" d="M960 1079l0 -30 3 0 0 3c1,-1 2,-2 3,-3 1,0 2,-1 3,-1 2,0 4,1 5,2 2,1 3,2 3,4 1,2 1,4 1,6 0,2 0,4 -1,6 -1,1 -2,3 -3,4 -2,1 -3,1 -5,1 -1,0 -2,0 -3,-1 -1,0 -2,-1 -3,-2l0 11 -3 0zm3 -19c0,3 1,5 2,6 1,1 2,2 4,2 1,0 3,-1 4,-2 1,-1 2,-4 2,-6 0,-3 -1,-5 -2,-7 -1,-1 -2,-2 -4,-2 -2,0 -3,1 -4,3 -1,1 -2,3 -2,6z"/>
  <path id="32" class="fil1" d="M982 1060c0,-4 1,-7 3,-9 2,-2 4,-3 7,-3 3,0 5,1 7,3 2,2 3,5 3,8 0,3 -1,5 -1,7 -1,2 -3,3 -4,4 -2,1 -3,1 -5,1 -3,0 -6,-1 -8,-3 -2,-2 -2,-5 -2,-8zm3 0c0,3 1,5 2,6 1,1 3,2 5,2 1,0 3,-1 4,-2 1,-1 2,-4 2,-6 0,-3 -1,-5 -2,-6 -1,-2 -3,-2 -4,-2 -2,0 -4,0 -5,2 -1,1 -2,3 -2,6z"/>
  <path id="33" class="fil1" d="M1006 1079l0 -30 3 0 0 3c1,-1 2,-2 3,-3 1,0 2,-1 4,-1 1,0 3,1 5,2 1,1 2,2 3,4 0,2 1,4 1,6 0,2 -1,4 -1,6 -1,1 -2,3 -4,4 -1,1 -3,1 -5,1 -1,0 -2,0 -3,-1 -1,0 -2,-1 -2,-2l0 11 -4 0zm3 -19c0,3 1,5 2,6 1,1 3,2 4,2 2,0 3,-1 4,-2 1,-1 2,-4 2,-6 0,-3 -1,-5 -2,-7 -1,-1 -2,-2 -4,-2 -1,0 -3,1 -4,3 -1,1 -2,3 -2,6z"/>
  <path id="34" class="fil1" d="M1043 1071l0 -4c-1,3 -4,4 -6,4 -2,0 -3,0 -4,-1 -1,0 -2,-1 -3,-2 0,0 0,-1 -1,-2 0,-1 0,-2 0,-4l0 -13 4 0 0 12c0,2 0,3 0,4 0,1 1,1 1,2 1,1 2,1 3,1 1,0 2,0 3,-1 1,-1 2,-1 2,-2 1,-1 1,-3 1,-4l0 -12 4 0 0 22 -4 0z"/>
  <polygon id="35" class="fil1" points="1052,1071 1052,1041 1056,1041 1056,1071 "/>
  <path id="36" class="fil1" d="M1076 1068c-2,1 -3,2 -4,2 -1,1 -3,1 -4,1 -3,0 -4,-1 -6,-2 -1,-1 -2,-2 -2,-4 0,-1 1,-2 1,-3 1,-1 1,-2 2,-2 1,-1 2,-1 3,-1 0,-1 1,-1 3,-1 3,0 5,-1 6,-1 0,-1 0,-1 0,-1 0,-2 0,-3 -1,-3 0,-1 -2,-1 -4,-1 -1,0 -3,0 -4,0 0,1 -1,2 -1,4l-4 -1c0,-1 1,-3 2,-4 0,-1 1,-1 3,-2 1,0 3,-1 5,-1 2,0 3,1 4,1 1,1 2,1 3,2 0,0 1,1 1,2 0,1 0,2 0,4l0 5c0,3 0,5 0,6 1,1 1,2 1,3l-4 0c0,-1 0,-2 0,-3zm-1 -8c-1,0 -3,1 -6,1 -1,0 -2,1 -3,1 0,0 -1,1 -1,1 -1,1 -1,1 -1,2 0,1 1,2 1,2 1,1 2,1 4,1 1,0 2,0 3,-1 2,0 2,-1 3,-2 0,-1 0,-2 0,-4l0 -1z"/>
  <path id="37" class="fil1" d="M1085 1071l0 -22 3 0 0 3c1,-1 2,-2 2,-3 1,0 2,-1 3,-1 1,0 2,1 4,2l-2 3c-1,0 -2,-1 -2,-1 -1,0 -2,1 -3,1 0,0 -1,1 -1,2 0,1 -1,3 -1,4l0 12 -3 0z"/>
  <polygon id="38" class="fil1" points="1110,1071 1110,1041 1114,1041 1114,1071 "/>
  <path id="39" class="fil1" d="M1134 1068c-2,1 -3,2 -4,2 -2,1 -3,1 -4,1 -3,0 -5,-1 -6,-2 -1,-1 -2,-2 -2,-4 0,-1 1,-2 1,-3 0,-1 1,-2 2,-2 1,-1 2,-1 3,-1 0,-1 1,-1 3,-1 3,0 5,-1 6,-1 0,-1 0,-1 0,-1 0,-2 0,-3 -1,-3 -1,-1 -2,-1 -4,-1 -2,0 -3,0 -4,0 -1,1 -1,2 -2,4l-3 -1c0,-1 1,-3 2,-4 0,-1 1,-1 3,-2 1,0 3,-1 5,-1 2,0 3,1 4,1 1,1 2,1 3,2 0,0 1,1 1,2 0,1 0,2 0,4l0 5c0,3 0,5 0,6 0,1 1,2 1,3l-4 0c0,-1 0,-2 0,-3zm-1 -8c-1,0 -3,1 -6,1 -1,0 -2,1 -3,1 0,0 -1,1 -1,1 -1,1 -1,1 -1,2 0,1 1,2 1,2 1,1 2,1 4,1 1,0 2,0 3,-1 1,0 2,-1 3,-2 0,-1 0,-2 0,-4l0 -1z"/>
  <path id="40" class="fil1" d="M1143 1071l0 -22 3 0 0 3c2,-2 4,-4 7,-4 1,0 2,1 3,1 2,1 2,1 3,2 0,1 1,2 1,3 0,0 0,2 0,3l0 14 -3 0 0 -14c0,-1 -1,-2 -1,-3 0,-1 -1,-1 -1,-2 -1,0 -2,0 -3,0 -1,0 -3,0 -4,1 -1,1 -2,3 -2,6l0 12 -3 0z"/>
  <path id="41" class="fil1" d="M1165 1072l4 1c0,1 0,2 1,2 1,1 2,1 4,1 1,0 3,0 4,-1 1,0 1,-1 2,-3 0,0 0,-2 0,-4 -2,2 -4,3 -6,3 -3,0 -5,-1 -7,-4 -2,-2 -3,-4 -3,-7 0,-2 1,-4 2,-6 0,-2 1,-3 3,-4 1,-1 3,-2 5,-2 2,0 4,2 6,4l0 -3 3 0 0 19c0,3 0,5 -1,7 0,1 -1,2 -3,3 -1,1 -3,1 -5,1 -3,0 -5,0 -6,-1 -2,-2 -3,-3 -3,-6zm3 -13c0,3 1,5 2,7 1,1 2,2 4,2 2,0 3,-1 4,-2 2,-2 2,-4 2,-6 0,-3 -1,-5 -2,-6 -1,-2 -2,-2 -4,-2 -2,0 -3,0 -4,2 -1,1 -2,3 -2,5z"/>
  <path id="42" class="fil1" d="M1203 1071l0 -4c-2,3 -4,4 -7,4 -1,0 -2,0 -3,-1 -1,0 -2,-1 -3,-2 0,0 -1,-1 -1,-2 0,-1 0,-2 0,-4l0 -13 4 0 0 12c0,2 0,3 0,4 0,1 1,1 1,2 1,1 2,1 3,1 1,0 2,0 3,-1 1,-1 2,-1 2,-2 1,-1 1,-3 1,-4l0 -12 3 0 0 22 -3 0z"/>
  <path id="43" class="fil1" d="M1226 1068c-1,1 -2,2 -4,2 -1,1 -2,1 -4,1 -2,0 -4,-1 -5,-2 -1,-1 -2,-2 -2,-4 0,-1 0,-2 1,-3 0,-1 1,-2 2,-2 0,-1 1,-1 2,-1 1,-1 2,-1 3,-1 3,0 6,-1 7,-1 0,-1 0,-1 0,-1 0,-2 0,-3 -1,-3 -1,-1 -2,-1 -4,-1 -2,0 -3,0 -4,0 -1,1 -1,2 -2,4l-3 -1c0,-1 0,-3 1,-4 1,-1 2,-1 3,-2 2,0 4,-1 5,-1 2,0 4,1 5,1 1,1 2,1 2,2 1,0 1,1 2,2 0,1 0,2 0,4l0 5c0,3 0,5 0,6 0,1 0,2 1,3l-4 0c0,-1 -1,-2 -1,-3zm0 -8c-1,0 -3,1 -6,1 -1,0 -3,1 -3,1 -1,0 -1,1 -2,1 0,1 0,1 0,2 0,1 0,2 1,2 1,1 2,1 3,1 2,0 3,0 4,-1 1,0 2,-1 2,-2 1,-1 1,-2 1,-4l0 -1z"/>
  <path id="44" class="fil1" d="M1235 1072l3 1c0,1 1,2 2,2 0,1 2,1 3,1 2,0 3,0 4,-1 1,0 2,-1 2,-3 0,0 0,-2 0,-4 -1,2 -3,3 -6,3 -3,0 -5,-1 -7,-4 -1,-2 -2,-4 -2,-7 0,-2 0,-4 1,-6 1,-2 2,-3 3,-4 2,-1 3,-2 5,-2 3,0 5,2 7,4l0 -3 3 0 0 19c0,3 0,5 -1,7 -1,1 -2,2 -3,3 -2,1 -4,1 -6,1 -2,0 -4,0 -6,-1 -2,-2 -2,-3 -2,-6zm3 -13c0,3 0,5 1,7 2,1 3,2 5,2 1,0 3,-1 4,-2 1,-2 2,-4 2,-6 0,-3 -1,-5 -2,-6 -1,-2 -3,-2 -4,-2 -2,0 -3,0 -5,2 -1,1 -1,3 -1,5z"/>
  <path id="45" class="fil1" d="M1273 1064l4 0c0,2 -2,4 -3,5 -2,1 -4,2 -6,2 -4,0 -6,-1 -8,-3 -2,-2 -3,-5 -3,-8 0,-4 1,-6 3,-8 2,-3 4,-4 7,-4 3,0 6,1 7,3 2,2 3,5 3,9 0,0 0,0 0,1l-16 0c0,2 1,4 2,5 1,1 3,2 5,2 1,0 2,0 3,-1 1,-1 2,-2 2,-3zm-12 -6l12 0c0,-2 0,-3 -1,-4 -1,-2 -3,-3 -5,-3 -1,0 -3,1 -4,2 -1,1 -2,3 -2,5z"/>
 </g>
</svg>
