<?xml version="1.0" encoding="UTF-8"?>
<!DOCTYPE svg PUBLIC "-//W3C//DTD SVG 1.1//EN" "http://www.w3.org/Graphics/SVG/1.1/DTD/svg11.dtd">
<!-- Creator: CorelDRAW X7 -->
<svg xmlns="http://www.w3.org/2000/svg" xml:space="preserve" width="5.33333in" height="1.66666in" version="1.1" style="shape-rendering:geometricPrecision; text-rendering:geometricPrecision; image-rendering:optimizeQuality; fill-rule:evenodd; clip-rule:evenodd"
viewBox="0 0 5333 1667"
 xmlns:xlink="http://www.w3.org/1999/xlink">
 <defs>
  <style type="text/css">
   <![CDATA[
    .fil4 {fill:#FEFEFE}
    .fil1 {fill:#FDE101}
    .fil3 {fill:#FEAE01}
    .fil2 {fill:#FFCB00}
    .fil7 {fill:#373435;fill-rule:nonzero}
    .fil8 {fill:#DE521F;fill-rule:nonzero}
    .fil5 {fill:url(#id0)}
    .fil0 {fill:url(#id1)}
    .fil6 {fill:url(#id2);fill-rule:nonzero}
   ]]>
  </style>
  <linearGradient id="id0" gradientUnits="userSpaceOnUse" x1="2262.05" y1="373.748" x2="2613.69" y2="1024.61">
   <stop offset="0" style="stop-opacity:1; stop-color:#F58634"/>
   <stop offset="1" style="stop-opacity:1; stop-color:#542424"/>
  </linearGradient>
  <radialGradient id="id1" gradientUnits="userSpaceOnUse" gradientTransform="matrix(1.15138 0.00494734 -0.00154724 0.359807 -402 520)" cx="2666.67" cy="833.331" r="2666.67" fx="2666.67" fy="833.331">
   <stop offset="0" style="stop-opacity:1; stop-color:#FEFEFE"/>
   <stop offset="1" style="stop-opacity:1; stop-color:#DBDBDA"/>
  </radialGradient>
  <linearGradient id="id2" gradientUnits="userSpaceOnUse" x1="2273.64" y1="395.197" x2="2602.1" y2="1003.15">
   <stop offset="0" style="stop-opacity:1; stop-color:#FEFEFE"/>
   <stop offset="1" style="stop-opacity:1; stop-color:#FEFEFE"/>
  </linearGradient>
 </defs>
 <g id="Layer_x0020_1">
  <metadata id="CorelCorpID_0Corel-Layer"/>
  <rect class="fil0" width="5333" height="1667"/>
  <g id="_705401456">
   <polygon class="fil1" points="3220,212 3285,335 3386,238 3410,376 3535,314 3516,453 3654,433 3593,559 3731,583 3633,683 3757,749 3633,814 3731,915 3593,939 3654,1065 3516,1045 3535,1184 3410,1122 3386,1260 3285,1163 3220,1286 3154,1163 3054,1260 3029,1122 2904,1184 2923,1045 2785,1065 2846,939 2709,915 2806,814 2682,749 2806,683 2709,583 2846,559 2785,433 2923,453 2904,314 3029,376 3054,238 3154,335 "/>
   <path class="fil1" d="M3214 448c170,0 308,138 308,309 0,170 -138,308 -308,308 -171,0 -309,-138 -309,-308 0,-171 138,-309 309,-309z"/>
   <path class="fil2" d="M3517 323l18 -9 -19 139 138 -20 -61 126 138 24 -98 100 124 66 -124 65 98 101 -138 24 61 126 -138 -20 19 139 -125 -62 -24 138 -101 -97 -65 123 -66 -123 -100 97 -25 -138 -125 62 19 -139 -5 1c470,-27 664,-322 599,-723z"/>
   <path class="fil3" d="M3220 408c192,0 348,156 348,349 0,192 -156,348 -348,348 -193,0 -349,-156 -349,-348 0,-193 156,-349 349,-349zm0 40c170,0 308,138 308,309 0,170 -138,308 -308,308 -171,0 -309,-138 -309,-308 0,-171 138,-309 309,-309z"/>
   <path class="fil4" d="M3298 585c20,-17 26,-36 23,-58 13,20 32,29 58,23 -23,11 -31,30 -23,58 -15,-19 -34,-27 -58,-23z"/>
   <path class="fil4" d="M3398 668c14,-12 19,-26 16,-41 10,14 23,20 42,17 -17,7 -23,21 -17,41 -10,-14 -24,-20 -41,-17z"/>
   <g>
    <path class="fil5" d="M2022 735c9,-31 21,-62 31,-87l0 -1c6,-14 13,-29 20,-43l5 -11 12 -5c4,-1 9,-2 13,-2l1 0 2 0c16,1 33,15 45,26l1 0 1 1c9,9 19,19 23,32 6,-14 11,-28 17,-42l1 -4 2 -3c6,-10 17,-15 28,-15l3 0 2 0c16,2 31,14 43,24l0 1 1 0c3,3 6,6 9,9 1,-2 2,-5 2,-8l5 -12 12 -6c5,-2 10,-4 16,-4l2 0 2 1c16,2 31,13 43,24l0 0 1 1c1,1 2,2 4,3 0,0 0,-1 1,-1 13,-13 29,-21 48,-21 17,0 33,6 45,18 5,5 10,10 14,16 7,-8 15,-16 23,-21 11,-8 24,-13 38,-13l2 0c22,0 40,13 55,28 1,-4 3,-8 4,-13l4 -12 12 -6c5,-2 11,-4 16,-4l2 0 3 1c16,2 31,13 42,24l1 0 1 1c1,1 2,2 3,3 1,0 1,-1 2,-1 13,-13 29,-21 47,-21 18,0 34,6 46,18 5,5 10,10 14,16 6,-8 14,-16 23,-21 11,-8 24,-13 37,-13l3 0c25,0 45,16 60,35l0 0 0 1c3,3 5,7 7,11 21,-23 47,-41 79,-41l2 0c17,0 34,7 48,17 0,0 0,0 0,1 1,-17 5,-34 9,-50l0 -1 0 -1c3,-10 7,-21 12,-31 5,-12 12,-24 20,-36l1 0 0 -1c12,-16 27,-33 46,-43 8,-4 16,-6 25,-6l1 0c21,0 40,12 55,26 16,14 22,33 22,54 0,21 -10,44 -19,62 -1,1 -1,3 -2,4 11,6 21,14 29,22l1 0 0 1c11,11 22,23 22,39l0 6 -2 6c-7,19 -15,39 -21,60l2 0c13,2 23,10 32,19l1 0 0 1c8,9 14,18 14,30l0 10 -6 8c-21,30 -65,93 -104,99l-2 0 -2 0c-26,0 -46,-13 -61,-34l-1 -1 0 -1c-7,-12 -11,-24 -11,-38 0,-17 3,-36 7,-53 1,-5 2,-11 3,-16 -3,5 -6,9 -9,14 -8,11 -15,22 -23,33l-2 2 -2 2c0,1 -1,2 -2,3 -7,9 -15,17 -22,26l-1 0 0 1c-10,10 -22,22 -33,30 -20,16 -44,30 -70,30l-3 0c-23,0 -44,-13 -61,-28l-1 0 -1 -1c0,0 -1,-1 -1,-1 -15,14 -32,27 -49,29l-8 1 -3 -1c-14,-1 -27,-6 -40,-13l-1 0 -1 -1c-10,-7 -18,-15 -22,-25 -1,-1 -1,-2 -1,-2 -3,5 -5,11 -7,17 -2,4 -3,8 -3,12 -3,16 -17,28 -34,28l-2 0 -1 0c-17,-1 -33,-14 -46,-25l0 0 -1 -1c-10,-10 -21,-21 -23,-35l-2 4c-4,10 -7,20 -10,30 -1,6 -3,14 -3,20l0 13 -10 10c-6,6 -14,10 -23,10l-1 0c-18,0 -35,-14 -48,-25l-1 -1 -1 -1c-5,-5 -11,-10 -15,-16 -2,0 -5,1 -7,1l-8 1 -4 -1c-14,-1 -27,-6 -39,-13l-2 0 -1 -1c-9,-7 -17,-15 -22,-25 0,-1 -1,-2 -1,-2 -3,5 -5,11 -7,17 -1,4 -2,8 -3,12 -3,16 -17,28 -34,28l-2 0 -1 0c-17,-1 -33,-14 -45,-25l-1 0 0 -1c-11,-10 -21,-21 -24,-35l-2 4c-4,10 -7,20 -10,30 -1,6 -3,14 -3,20l0 13 -9 10c-7,6 -15,10 -24,10l-1 0c-18,0 -35,-14 -48,-25l-1 -1 -1 -1c-5,-4 -10,-10 -14,-15 -4,1 -7,2 -11,2l-1 0 -3 0c-23,0 -42,-15 -56,-32 -1,-1 -2,-2 -3,-3 -15,16 -36,35 -59,35 -12,0 -22,-3 -32,-8 -7,24 -23,45 -44,63l-1 0 0 0c-8,6 -15,11 -24,16 -9,4 -18,8 -28,11l0 0 -1 1c-18,5 -36,8 -55,8l-6 0c-32,0 -63,-8 -91,-24 -9,-6 -18,-13 -26,-20l-1 -1c-24,-23 -37,-53 -37,-86l0 -1c0,-8 0,-17 2,-25 -4,2 -8,3 -12,5 -10,4 -47,20 -48,35 7,8 11,17 11,28l0 3 0 2c-3,17 -16,29 -33,29 -20,0 -38,-16 -51,-28l-1 0 0 -1c-18,-18 -34,-40 -34,-66l0 -3c0,-30 20,-54 43,-71 10,-7 21,-13 32,-19 15,-7 31,-12 46,-17 27,-8 55,-14 83,-18 10,-2 24,-5 34,-5l2 0 2 1c15,1 29,12 40,22l1 0 0 0c13,12 28,27 28,46l0 14 -10 9c-3,4 -8,7 -13,9 -4,3 -9,8 -13,12 -5,5 -10,11 -13,17l0 1c-6,11 -10,24 -10,37l0 1c0,3 0,6 0,9 10,2 21,4 32,4 23,0 45,-6 65,-19 18,-13 30,-30 30,-53 0,-35 -26,-69 -50,-94 -9,-8 -18,-16 -27,-25l-1 0c-26,-25 -48,-58 -48,-96 0,-43 26,-80 55,-108l3 -3 1 -1c2,-2 5,-4 7,-6l0 0 1 -1c14,-11 29,-22 44,-31 26,-15 61,-32 92,-32l2 0c23,0 43,12 59,27 5,5 10,10 14,15 9,10 15,22 15,35 0,1 0,2 0,2 0,33 -31,68 -52,91l-10 10 -14 0c-16,0 -29,-11 -40,-22l0 0 -1 -1c-5,-6 -9,-12 -11,-19 0,0 -1,1 -1,1 -22,17 -57,47 -57,78 0,5 1,11 4,15 14,12 28,26 41,39l0 0 0 0c14,15 28,31 39,47 1,1 2,2 2,3z"/>
   </g>
   <path class="fil6" d="M2032 446l2 0c11,0 24,6 37,19 5,4 9,8 12,12 5,6 7,11 7,14 0,1 0,1 0,2 0,15 -14,38 -44,69l0 0c-3,0 -9,-4 -17,-13 -2,-2 -4,-4 -4,-6 17,-18 28,-32 34,-42 4,-7 7,-12 9,-17l-1 0c-10,0 -28,6 -54,19 -11,6 -25,14 -39,24 -46,35 -70,70 -70,104 0,17 5,29 14,39 8,6 21,18 40,37 16,17 28,32 36,43 24,35 36,66 36,95l0 1c0,30 -13,56 -39,77 -7,5 -13,9 -19,12 -5,3 -13,6 -23,10 -17,5 -32,7 -46,7l-6 0c-27,0 -51,-6 -75,-20 -6,-3 -12,-9 -20,-16 -19,-18 -28,-39 -28,-63l0 -1c0,-26 9,-50 26,-72 -33,7 -60,14 -80,22 -45,18 -68,40 -68,65 0,6 2,12 5,17 4,5 6,9 6,11 0,1 0,2 -1,2 -6,0 -15,-7 -30,-20 -16,-15 -23,-30 -23,-43l0 -3c0,-16 9,-31 29,-45 7,-5 16,-11 26,-15 14,-7 28,-12 43,-16 20,-6 46,-12 78,-17 18,-3 27,-4 29,-4 4,0 12,5 24,14 11,11 17,18 17,22 0,1 -3,2 -8,5 -5,3 -11,9 -19,16 -9,9 -15,18 -19,26 -9,17 -13,34 -13,52l0 1c0,13 2,25 7,34 18,7 37,11 57,11 30,0 58,-8 83,-25 29,-20 44,-47 44,-79 0,-37 -20,-76 -60,-117 -6,-5 -15,-14 -27,-25 -26,-25 -39,-49 -39,-73 0,-27 15,-55 46,-85 1,-1 4,-4 9,-9 16,-12 29,-22 40,-28 32,-19 58,-28 76,-28zm192 167c6,1 15,6 27,17 10,10 15,16 15,20 -13,36 -26,74 -38,112 -4,15 -9,32 -13,51 -2,8 -2,12 -2,12 12,-12 22,-23 30,-33 7,-9 15,-20 25,-34l1 0c5,1 11,6 19,15 1,1 2,2 2,3 0,0 -6,8 -16,21 -8,12 -20,26 -35,42 -8,8 -15,14 -20,17 -4,3 -8,5 -11,5l-2 0c-9,0 -20,-7 -32,-21 -5,-7 -8,-15 -8,-23l0 -2c0,-10 2,-23 5,-40l0 0 0 0c-11,17 -25,35 -43,56 -18,20 -31,30 -40,30 -9,0 -17,-4 -25,-11 -8,-8 -12,-13 -13,-16 -5,-6 -7,-14 -7,-24l0 -3c0,-32 13,-81 40,-147 6,-16 12,-29 18,-42 1,0 2,0 2,0 5,0 14,6 27,18 10,9 15,15 15,18l0 1c-11,22 -20,46 -30,70 -7,20 -14,40 -19,61 -3,12 -5,23 -7,33 -1,6 -1,11 -1,12 5,-4 12,-12 22,-22 19,-23 35,-45 48,-65 15,-21 27,-42 36,-63 10,-20 19,-43 29,-67 0,-1 1,-1 1,-1zm22 226l0 -1c0,0 0,-1 1,-2 5,-29 18,-72 37,-129 10,-29 20,-59 31,-89 0,0 1,0 2,0 5,0 14,6 26,16 10,10 15,17 15,20 -7,22 -13,40 -18,55 11,-20 24,-38 36,-55 5,-6 10,-12 16,-18 8,-8 17,-11 26,-11 10,0 17,2 23,8 8,7 12,13 12,17 -3,14 -11,50 -24,108l-1 1 0 1 1 0c17,-31 33,-56 46,-76 7,-12 16,-24 25,-36 8,-9 14,-15 18,-17 6,-4 13,-6 20,-6l2 0c11,0 23,7 35,22 2,3 3,5 3,6l0 0c-11,35 -20,62 -26,82 -10,29 -17,58 -23,86 -1,1 -1,3 -1,3 11,-11 20,-20 25,-27 10,-12 19,-25 30,-39 0,-1 1,-1 1,-1l0 0c3,0 9,3 17,11 3,3 4,5 4,6l0 1c0,0 -2,4 -7,10 -35,48 -60,72 -75,74l0 0 -1 0c-9,0 -19,-3 -30,-9 -6,-4 -9,-8 -11,-12 -2,-4 -4,-8 -4,-12 0,-11 4,-30 10,-58 7,-26 16,-57 27,-91l0 -1c-36,55 -62,99 -81,135 -8,16 -14,31 -19,45 -2,5 -4,12 -5,18 0,1 0,1 -2,1l-1 0c-4,0 -13,-6 -26,-17 -10,-9 -15,-16 -15,-19 8,-58 17,-108 28,-151 0,-1 1,-5 3,-12 -44,64 -75,117 -92,158l-2 4c-4,13 -8,24 -11,34 -3,12 -4,21 -4,28 -1,0 -1,1 -1,1l-1 0c-5,0 -14,-6 -27,-18 -10,-9 -14,-15 -15,-18l0 -1c0,-6 1,-15 3,-25zm315 0l0 -1c0,0 0,-1 0,-2 6,-29 18,-72 37,-129 11,-29 21,-59 31,-89 1,0 2,0 2,0 6,0 14,6 26,16 11,10 16,17 16,20 -7,22 -14,40 -19,55 12,-20 24,-38 37,-55 4,-6 10,-12 16,-18 8,-8 17,-11 25,-11 10,0 18,2 24,8 7,7 11,13 11,17 -3,14 -11,50 -24,108l0 1 0 1 0 0c18,-31 33,-56 46,-76 8,-12 17,-24 26,-36 8,-9 14,-15 17,-17 7,-4 13,-6 20,-6l3 0c11,0 23,7 35,22 2,3 3,5 3,6l0 0c-12,35 -20,62 -27,82 -9,29 -17,58 -23,86 0,1 0,3 0,3 11,-11 20,-20 25,-27 9,-12 19,-25 29,-39 1,-1 1,-1 1,-1l1 0c3,0 8,3 16,11 3,3 5,5 5,6l0 1c0,0 -3,4 -7,10 -35,48 -60,72 -75,74l-1 0 0 0c-10,0 -20,-3 -30,-9 -6,-4 -10,-8 -11,-12 -3,-4 -4,-8 -4,-12 0,-11 3,-30 10,-58 6,-26 16,-57 27,-91l0 -1c-36,55 -63,99 -81,135 -8,16 -15,31 -19,45 -2,5 -4,12 -5,18 0,1 -1,1 -2,1l-1 0c-5,0 -14,-6 -27,-17 -9,-9 -14,-16 -14,-19 8,-58 17,-108 27,-151 1,-1 2,-5 3,-12 -44,64 -74,117 -91,158l-2 4c-5,13 -8,24 -11,34 -3,12 -4,21 -4,28 -1,0 -1,1 -1,1l-1 0c-5,0 -14,-6 -28,-18 -9,-9 -14,-15 -14,-18l0 -1c0,-6 1,-15 3,-25zm440 -208l2 0c10,0 20,3 29,11 13,7 19,17 19,28l0 1c0,12 -9,31 -27,54 -4,5 -10,13 -21,23 -16,14 -29,25 -40,31 -7,5 -15,9 -23,13 -2,11 -3,20 -3,29 0,7 0,13 2,19l0 0c13,0 27,-6 44,-19 10,-8 20,-17 32,-28 12,-13 21,-24 27,-32 1,-2 2,-4 3,-4l1 0c2,0 7,3 15,11 3,3 5,5 5,6l0 1c-8,11 -18,23 -28,34 -13,14 -23,23 -30,28 -18,15 -35,22 -50,22l-3 0c-11,0 -25,-6 -41,-19 -6,-7 -11,-12 -13,-16 -6,-9 -8,-21 -8,-34 0,-23 6,-50 20,-80 6,-12 13,-24 21,-36 23,-29 45,-43 67,-43zm-49 124l0 0c8,-5 18,-13 30,-25 12,-11 19,-20 24,-26 10,-14 16,-26 20,-36l0 0c-17,6 -34,20 -49,41 -7,11 -14,22 -20,33 -2,5 -4,9 -5,13zm212 -276l1 0c9,0 20,6 34,18 7,7 11,17 11,30 0,11 -5,27 -16,48 -11,23 -32,57 -60,100l-2 2c2,5 3,8 3,8 8,-2 14,-4 18,-7 5,-2 11,-7 19,-15 8,-9 14,-18 18,-27 3,-5 5,-11 7,-17 0,0 1,-1 2,-1 6,2 16,8 29,20 9,9 13,14 13,17 -18,48 -30,86 -36,117 -6,30 -9,47 -9,49 7,-7 15,-16 23,-27 9,-11 18,-23 27,-35l0 0c4,0 9,4 16,10 3,4 5,6 5,8 -38,54 -66,83 -82,85 -13,0 -25,-7 -35,-20 -4,-7 -6,-15 -6,-22 0,-22 8,-62 24,-120 -9,4 -18,7 -25,7 -7,0 -15,-3 -25,-8 -11,17 -22,33 -32,48 -10,14 -17,25 -22,33 -1,0 -1,0 -1,0 -2,1 -8,-3 -19,-13 -2,-3 -3,-4 -3,-5l0 -1c25,-35 43,-61 54,-77 2,-3 2,-4 2,-4 -7,-9 -11,-18 -13,-28 -1,-6 -1,-13 -1,-20 0,-17 2,-37 8,-58 2,-9 6,-18 10,-27 5,-11 11,-21 18,-32 12,-17 24,-28 35,-33 4,-2 7,-3 10,-3zm-34 151l0 0 0 0c31,-47 49,-82 56,-103 -8,6 -14,13 -19,19 -7,10 -13,18 -17,26 -4,8 -8,17 -12,27 -3,8 -5,18 -8,30 0,1 0,1 0,1z"/>
   <g>
    <path class="fil7" d="M2093 1056c0,0 0,0 0,0 0,1 0,1 0,1 0,0 0,0 0,0 0,0 0,0 0,-1l0 0zm45 -117c0,0 0,0 0,0 0,0 0,0 0,0 0,0 0,0 0,0 0,0 0,0 0,0l0 0zm17 -14c-1,-2 1,-4 -1,-6 -1,-5 -5,-9 -8,-12 0,-1 -1,-1 -1,-1 -3,-1 -5,-4 -7,-6 -4,-3 -9,-6 -14,-5 -2,0 -4,0 -5,0 -5,-1 -9,0 -12,2 -2,1 -3,2 -4,1 -3,0 -5,-2 -6,-3 -1,-2 -4,-3 -5,-3 -2,0 -3,-1 -4,-1 -1,3 -4,6 -5,9 -3,5 -5,10 -8,16 -3,5 -5,11 -8,16 -3,8 -7,16 -10,24 -2,7 -5,13 -7,20 -2,6 -5,13 -6,19 -1,2 -1,3 -2,5 0,0 0,1 1,1 0,0 1,0 1,0 -1,-2 0,-3 1,-4 2,-7 4,-13 7,-19 1,-3 2,-5 3,-7 2,-6 5,-12 7,-18 1,-2 2,-1 3,-1 0,3 -3,5 -1,9 3,-6 4,-13 8,-18 0,0 0,0 1,0 -2,5 -4,10 -6,15 -2,5 -5,10 -6,16 -2,5 -5,9 -6,15 -1,0 -3,0 -4,0 -1,1 -1,3 -1,3 -1,2 -1,4 0,6 1,2 1,3 0,4 -1,3 -2,6 -3,9 -3,8 -5,17 -7,25 -1,4 -2,7 -2,11 -1,3 -2,6 -2,9 -1,3 0,5 2,7 2,2 3,3 5,5 2,2 4,3 7,3 3,-1 3,-3 6,-4 1,0 -1,-2 -1,-3 0,-1 0,-1 0,-2 0,-4 2,-9 2,-13 1,-4 2,-8 3,-11 1,-5 2,-10 3,-14 2,-1 1,-4 2,-5 1,-1 1,-1 2,-1 0,0 1,0 1,1 2,7 6,14 9,21 4,8 9,15 15,21 1,1 3,2 4,3 4,2 9,4 15,4 1,1 3,2 5,1 1,-1 2,0 3,0 2,-1 3,0 5,-1 0,0 1,1 1,-1 0,0 -1,0 -1,0 -2,0 -3,-1 -5,-2 2,0 1,-1 2,-2 1,-1 2,-3 5,-1 0,1 2,0 4,0 0,-1 0,-3 -1,-3 -5,-2 -8,-6 -11,-9 -4,-4 -7,-9 -9,-14 -4,-6 -7,-13 -10,-20 -1,-3 -3,-7 -5,-10 -1,-3 -1,-5 1,-6 4,-2 7,-5 10,-7 4,-4 9,-7 12,-11 5,-6 10,-11 16,-16 4,-3 7,-8 11,-12 2,-2 4,-5 5,-8 3,-5 6,-10 6,-16 1,-2 1,-4 0,-5l0 0zm-44 -12c1,-1 2,-1 3,0 -1,1 -2,0 -3,0 0,2 -1,1 -2,1 1,-1 2,-1 2,-1l0 0zm-2 -2c-1,2 -1,2 -2,2 0,-1 1,-2 2,-2l0 0zm0 3c-1,1 -2,2 -3,2 0,-2 2,-2 3,-2l0 0zm-25 51c1,-3 3,-6 4,-9 1,-3 3,-6 4,-10 1,-3 3,-6 4,-9 1,-4 3,-7 4,-11 1,-1 2,-3 3,-3 5,-3 10,-5 15,-6 3,-1 6,-2 10,-2 4,0 4,1 3,5 2,-1 2,-1 3,-3 2,2 0,3 -1,4 -3,5 -6,9 -10,13 -1,2 -2,4 -4,5 -1,1 -3,2 -3,5 0,0 -1,0 -1,1 -6,5 -10,11 -16,16 0,0 -1,1 -2,2 0,1 0,2 -2,2 0,0 -1,1 -1,1 -4,4 -8,9 -13,12 2,-4 2,-9 3,-13l0 0zm-5 29c0,0 1,-1 2,0 -1,1 -1,2 -3,1 0,0 1,-1 1,-1l0 0zm2 47c-3,-4 -5,-9 -7,-13 -2,-4 -4,-8 -5,-12 0,0 0,-1 0,-1 1,0 1,0 2,1 3,9 7,16 11,24 3,5 6,10 10,14 0,0 0,1 0,2 0,0 0,0 0,0 -5,-5 -8,-10 -11,-15zm13 16c-1,0 -1,0 -1,0 0,0 0,0 0,0 0,0 0,0 0,0 0,0 0,0 0,0 -1,-1 -1,-1 -1,-1 1,0 1,0 1,0 0,0 0,0 0,0 0,1 0,1 1,1l0 0zm45 -118c-1,0 -1,0 -1,0 0,1 0,1 0,1 -2,3 -3,6 -5,8 -8,8 -15,17 -24,24 -2,2 -5,4 -7,7 -3,2 -5,4 -8,6 -2,2 -4,4 -7,6 -1,1 -3,1 -5,1 3,-3 5,-5 8,-6 2,-3 6,-5 9,-8 10,-9 20,-20 31,-30 2,-2 4,-6 7,-8 0,0 0,-1 1,-1 0,0 0,0 0,0 0,0 0,-1 1,-1 0,0 0,1 -1,1 1,-1 1,0 1,0 0,0 0,0 0,0l0 0zm80 34c0,-15 -14,-32 -28,-36 -5,-1 -9,-1 -14,1 -8,4 -14,10 -19,16 -18,24 -27,50 -29,79 0,11 2,22 11,30 13,12 24,13 35,4 11,-9 19,-20 25,-32 11,-18 18,-38 19,-59 0,-1 0,-2 0,-3l0 0zm-82 64c-2,0 -1,-4 -1,-6 0,-22 14,-58 28,-70 -7,11 -14,21 -17,34 1,-2 2,-5 4,-7 5,-12 16,-21 24,-30 3,-4 9,-6 14,-9 1,-1 3,-1 4,0 0,2 -2,2 -3,3 -5,1 -8,5 -11,8 -19,21 -32,44 -39,72 0,2 0,6 -3,5l0 0zm59 -15c-5,14 -14,26 -26,36 -2,2 -5,4 -7,5 -2,0 -4,1 -5,-1 -1,-2 1,-3 2,-4 6,-4 12,-10 16,-17 -6,6 -12,13 -20,16 8,-8 16,-15 22,-25 -3,0 -3,2 -4,3 -4,5 -9,10 -13,14 -2,2 -4,4 -7,3 -2,-2 -2,-4 -2,-7 0,-12 4,-24 7,-36 4,-13 11,-24 17,-35 4,-7 9,-11 16,-15 4,-2 5,-2 6,4 0,9 0,18 -3,27 0,2 -1,4 0,7 1,-3 2,-5 3,-8 10,12 1,23 -2,33l0 0zm83 -20c-3,-2 -2,-4 0,-6 6,-6 11,-14 14,-22 4,-9 3,-18 -4,-25 -7,-8 -15,-10 -23,-4 -4,2 -8,1 -11,-2 -5,-4 -5,-4 -8,3 0,1 -1,2 -1,4 -9,16 -16,34 -22,52 -6,15 -9,30 -11,46 -1,5 1,10 5,14 2,4 4,7 10,5 1,-1 3,0 4,1 7,5 15,5 22,2 15,-5 27,-14 34,-28 9,-17 7,-32 -9,-40l0 0zm-58 39c-1,-1 -2,-1 -2,-1 1,-7 2,-14 5,-21 0,0 1,1 1,1 -1,7 -3,14 -4,21zm24 -45c5,-11 9,-23 15,-34 3,-6 5,-10 12,-11 2,-1 5,-2 6,0 1,3 -3,3 -4,4 -1,0 -2,0 -4,1 3,0 7,-3 9,0 2,3 0,6 -1,9 -7,14 -18,25 -30,33 -1,1 -2,2 -3,1 0,0 0,-2 0,-3zm-15 51c2,-7 4,-15 6,-23 0,-4 2,-5 6,-4 4,1 7,-1 10,-2 6,-3 11,-6 18,-6 5,-1 6,1 5,6 -2,7 -5,13 -10,18 -8,8 -16,15 -26,20 0,0 0,0 0,0 -9,2 -11,0 -9,-9l0 0zm49 -25c-1,5 -3,10 -7,14 -8,9 -17,15 -29,20 -1,1 -3,3 -4,0 17,-6 29,-18 37,-35 1,-1 1,-2 2,-4 2,2 1,4 1,5l0 0zm108 -49c-1,-15 -14,-32 -28,-36 -5,-1 -9,-1 -14,1 -8,4 -14,10 -19,16 -18,24 -27,50 -29,79 0,11 2,22 11,30 13,12 24,13 35,4 11,-9 19,-20 25,-32 10,-18 18,-38 19,-59 0,-1 0,-2 0,-3l0 0zm-82 64c-3,0 -2,-4 -1,-6 0,-22 14,-58 28,-70 -7,11 -15,21 -17,34 1,-2 2,-5 4,-7 5,-12 16,-21 24,-30 3,-4 9,-6 14,-9 1,-1 3,-1 4,0 0,2 -2,2 -3,3 -5,1 -8,5 -11,8 -20,21 -33,44 -39,72 0,2 -1,6 -3,5l0 0zm59 -15c-5,14 -14,26 -26,36 -2,2 -5,4 -8,5 -1,0 -3,1 -5,-1 -1,-2 1,-3 3,-4 6,-4 11,-10 16,-17 -7,6 -12,13 -20,16 8,-8 16,-15 22,-25 -3,0 -4,2 -5,3 -3,5 -8,10 -13,14 -1,2 -3,4 -6,3 -2,-2 -2,-4 -2,-7 0,-12 3,-24 7,-36 4,-13 11,-24 17,-35 3,-7 9,-11 15,-15 5,-2 6,-2 6,4 1,9 0,18 -2,27 0,2 -1,4 0,7 1,-3 2,-5 3,-8 10,12 1,23 -2,33l0 0zm133 -65c-3,0 -6,-1 -9,-1 -7,-1 -14,-1 -22,-2 4,-1 6,-1 8,-1 7,1 13,2 19,2 1,0 4,1 4,-1 0,-2 -2,-3 -3,-3 -6,-2 -11,-2 -16,-3 -8,0 -16,0 -23,-2 5,-2 10,-1 15,-1 8,1 16,2 25,2 1,1 3,1 3,-1 1,-2 -1,-3 -2,-4 -3,-1 -5,-1 -7,-2 -20,-2 -40,-2 -60,-1 -11,1 -22,3 -32,6 -7,2 -2,6 -2,10 0,4 3,2 5,2 6,-1 13,-2 20,-3 6,0 11,0 17,-1 -2,2 -5,2 -7,2 -10,0 -20,2 -30,3 -2,0 -5,0 -4,3 0,2 2,2 4,2 10,-1 20,0 30,-1 9,-1 10,1 7,10 -10,23 -20,46 -26,71 -4,16 0,19 13,28 3,2 8,-1 9,-4 0,-16 6,-30 11,-45 6,-18 14,-37 21,-56 1,-3 3,-4 6,-4 7,0 14,2 21,0 1,-1 3,0 4,-1 2,0 4,0 4,-2 0,-2 -2,-2 -3,-2l0 0zm-58 -9c-13,1 -27,-1 -41,2 14,-4 27,-5 41,-5 1,0 3,0 3,1 0,2 -1,1 -3,2l0 0zm82 -3c0,0 -1,0 -2,-1 -2,-2 -3,-1 -4,1 -2,2 -3,4 -4,6 -11,22 -21,44 -28,67 -4,11 -7,21 -8,32 -1,6 1,10 5,13 3,2 6,5 8,7 1,1 2,3 4,2 2,-2 5,-2 5,-6 0,-13 5,-26 9,-38 7,-22 16,-44 24,-65 4,-10 1,-15 -9,-18l0 0zm-9 18c-1,0 -1,-1 -1,-1 2,-4 4,-8 6,-12 0,0 1,0 1,0 -2,5 -4,9 -6,13l0 0zm92 -9c-2,-2 -4,-5 -8,-3 -1,0 -2,1 -2,1 -1,-6 -7,-3 -10,-6 -3,-3 -7,-4 -11,-6 -4,-2 -9,-3 -12,1 -4,4 -8,9 -11,14 -15,23 -24,49 -29,75 -4,20 1,32 17,41 5,3 10,2 15,0 3,-2 5,-4 8,-7 9,-13 19,-25 27,-39 2,-4 5,-8 1,-10 -5,-3 -7,2 -9,5 -8,13 -17,25 -28,36 -1,1 -2,3 -6,4 13,-12 23,-26 32,-41 -2,1 -3,3 -3,4 -8,10 -15,21 -25,29 -1,2 -3,5 -6,3 -2,-1 -1,-4 -1,-6 -1,-7 1,-13 2,-20 5,-25 14,-48 28,-69 1,-2 4,-5 7,-4 3,2 4,5 4,9 -1,2 -1,4 -2,6 0,3 -1,5 0,8 2,-4 3,-7 4,-11 0,0 1,0 1,0 -1,4 -2,7 -3,11 0,3 2,5 5,6 3,1 3,-1 4,-3 4,-7 6,-14 11,-20 3,-2 2,-6 0,-8l0 0zm75 3c-2,-12 -22,-25 -34,-22 0,1 0,1 0,1 -10,4 -17,11 -22,19 6,-5 12,-11 20,-13 3,-1 7,-4 8,-1 1,2 -4,3 -6,4 -16,10 -30,22 -36,40 -3,11 -1,20 7,28 5,4 9,7 12,12 8,12 6,24 -5,32 -4,3 -8,2 -10,-2 -3,-6 -3,-12 -3,-18 1,-3 1,-6 1,-9 -1,-6 -4,-7 -9,-5 -2,0 -3,2 -5,3 -10,12 -7,34 8,41 7,5 16,6 25,6 8,-1 14,-5 18,-12 5,-10 6,-21 1,-32 -3,-8 -9,-15 -16,-21 -8,-7 -9,-16 -4,-26 5,-10 13,-17 22,-22 2,-1 4,-3 6,-1 1,1 1,3 1,5 -1,5 -1,10 -1,16 0,4 2,8 4,12 1,3 5,6 8,6 3,0 2,-4 4,-6 0,-1 1,-2 1,-4 4,-10 6,-20 5,-31l0 0zm-25 -1c-5,3 -11,7 -16,11 4,-6 7,-12 14,-14 1,-1 3,-2 4,0 0,1 -1,2 -2,3l0 0z"/>
    <path class="fil7" d="M2825 1006c0,0 0,0 0,0 0,0 0,0 0,0 0,0 0,0 0,0zm-36 -99c0,0 0,0 0,0 0,0 0,0 0,0 0,0 0,0 0,-1 0,0 0,1 0,1l0 0zm69 6c-1,-1 -2,-1 -3,-1 -3,2 -6,1 -10,1 0,-1 0,-1 0,-2 1,-2 1,-3 -1,-3 -1,0 -2,0 -3,-1 -2,-1 -1,1 -2,2 -1,-3 -3,-4 -5,-5 -2,-3 -5,-4 -8,-6 -2,0 -3,-1 -4,-2 -2,-2 -4,-3 -6,-3 -2,-1 -5,-2 -7,-3 -2,0 -3,1 -4,1 -6,2 -12,5 -17,10 -4,5 -7,9 -11,13 -6,8 -11,16 -15,25 -2,3 -2,6 -4,8 -2,3 -3,6 -4,9 -2,3 -2,6 -4,10 -1,3 -2,6 -3,9 -1,3 -2,6 -2,9 0,1 0,1 0,2 -1,4 -3,9 -3,13 -1,1 -2,2 -1,4 0,1 0,2 -1,3 -1,2 0,4 0,5 -1,2 -1,4 -1,6 0,3 0,7 0,10 -1,3 0,6 1,9 0,4 2,7 3,10 2,3 4,6 7,8 0,1 1,1 2,2 2,0 3,2 5,3 2,2 4,4 6,6 2,3 5,4 8,5 0,1 1,1 2,1 3,0 5,0 8,0 1,1 3,0 4,-1 1,-1 4,-2 5,-4 11,-12 23,-23 33,-35 5,-6 9,-11 13,-17 3,-3 3,-6 3,-9 -1,-1 -1,-2 -2,-3 -1,-2 -2,1 -2,0 -2,-1 -3,-1 -4,0 -2,1 -3,1 -5,2 0,1 0,2 -1,2 0,0 0,0 0,0 0,0 0,0 0,0 0,0 0,0 0,0 0,0 0,0 0,0 0,0 -1,1 -1,1 0,-1 0,-1 0,-1 0,0 1,0 1,0 0,-1 0,-2 0,-2 1,-1 2,-1 1,-3 0,0 -1,0 -2,1 -2,1 -3,2 -4,4 -4,5 -8,9 -12,13 -6,6 -11,11 -16,17 -4,4 -9,7 -14,11 -1,1 -3,3 -5,3 -1,-1 -2,-1 -2,-2 -1,-3 -1,-6 -2,-9 0,-3 0,-6 1,-9 1,-3 0,-7 1,-10 0,-3 1,-5 1,-8 0,-2 1,-5 2,-7 1,-7 3,-14 5,-21 3,-7 5,-15 8,-22 4,-8 8,-17 14,-25 5,-7 10,-15 16,-20 2,-2 3,-3 5,-3 0,3 1,5 2,8 1,-2 0,-4 3,-4 0,2 0,4 0,6 0,1 0,2 1,3 2,1 2,3 1,6 -1,1 -2,2 -2,4 -1,1 -2,3 -2,4 -2,4 -3,7 -4,11 -1,2 -1,4 0,5 1,3 3,4 4,6 1,2 3,0 4,2 1,-1 3,-2 4,-4 0,-1 0,-3 1,-4 1,-1 1,-2 2,-4 4,-7 7,-14 11,-21 3,-6 6,-11 10,-16 1,-1 1,-2 1,-3l0 0zm-69 -6c0,0 0,0 0,0 0,1 -1,1 -1,1 0,0 -1,1 -1,1 0,2 -1,3 -3,3 0,1 0,1 -1,1 0,2 -1,3 -3,4 -1,5 -5,8 -7,12 -1,-3 1,-5 2,-6 2,-2 3,-5 6,-6 -1,-2 1,-3 2,-4 0,0 0,-1 1,-1 0,-2 1,-3 3,-3 0,-1 0,-1 1,-1 0,-1 0,-1 1,-1 0,0 0,0 0,-1 0,0 0,0 0,0 0,0 0,0 0,0 0,0 1,0 1,0 -1,0 -1,1 -1,1l0 0zm45 25c-2,4 -4,8 -5,12 -1,1 -2,1 -2,2 -1,-3 1,-4 1,-6 1,-3 3,-5 3,-8 0,0 1,0 1,-1 1,0 1,-2 2,-1 2,1 0,2 0,2l0 0zm8 -11c0,-3 0,-4 0,-7 0,0 1,0 2,0 1,3 0,5 -2,7l0 0zm86 52c0,-15 -13,-32 -27,-36 -5,-1 -10,-1 -14,1 -8,4 -14,10 -20,16 -17,24 -27,50 -28,79 -1,11 1,22 10,30 14,12 25,13 36,4 11,-9 18,-20 25,-32 10,-18 18,-38 18,-59 0,-1 0,-2 0,-3l0 0zm-82 64c-2,0 -1,-4 -1,-6 1,-22 15,-58 28,-70 -6,11 -14,21 -17,34 2,-2 3,-5 4,-7 6,-12 16,-21 25,-30 3,-4 9,-6 13,-9 2,-1 4,-1 4,0 1,2 -1,2 -2,3 -5,1 -9,5 -12,8 -19,21 -32,44 -38,72 -1,2 -1,6 -4,5l0 0zm60 -15c-5,14 -14,26 -26,36 -2,2 -5,4 -8,5 -2,0 -4,1 -5,-1 -1,-2 1,-3 2,-4 7,-4 12,-10 16,-17 -6,6 -11,13 -20,16 8,-8 16,-15 23,-25 -3,0 -4,2 -5,3 -4,5 -8,10 -13,14 -2,2 -3,4 -6,3 -3,-2 -2,-4 -2,-7 0,-12 3,-24 7,-36 4,-13 11,-24 17,-35 3,-7 9,-11 15,-15 4,-2 6,-2 6,4 1,9 0,18 -2,27 -1,2 -1,4 -1,7 2,-3 2,-5 4,-8 10,12 1,23 -2,33l0 0zm115 -72c-1,-1 -2,-1 -2,-2 -1,-7 -5,-4 -9,-3 -3,1 -5,4 -6,7 -9,19 -15,40 -26,59 0,0 0,1 0,2 -3,15 -12,26 -21,37 -1,0 -1,1 -2,0 4,-5 8,-10 10,-17 -3,5 -7,9 -10,13 -2,2 -3,4 -5,3 -2,-1 -1,-4 -1,-5 3,-19 8,-37 15,-54 3,-9 7,-19 10,-28 4,-10 -1,-17 -12,-17 -1,0 -2,0 -2,-2 0,-2 -1,-3 -3,-3 -2,1 -3,3 -3,4 -1,5 -2,10 -5,15 -11,27 -21,55 -26,84 0,3 -1,7 1,10 5,8 12,13 20,18 2,1 4,0 6,0 8,-2 14,-7 19,-14 1,-1 1,-4 3,-4 3,1 2,3 3,5 3,8 14,17 21,16 3,0 5,-1 4,-4 -1,-4 -1,-9 -1,-13 2,-18 6,-35 11,-53 4,-15 9,-30 14,-45 1,-4 1,-7 -3,-9l0 0zm45 73c9,-6 17,-14 25,-23 5,-5 9,-10 12,-17 8,-18 1,-29 -16,-40 -4,-2 -9,-2 -13,0 -7,5 -13,1 -17,-2 -6,-3 -7,-1 -9,3 -10,18 -19,36 -26,56 -1,3 -3,7 -2,12 5,-11 9,-22 14,-33 0,0 0,0 1,1 -1,2 -2,4 -3,6 -5,15 -10,31 -14,46 -2,9 -3,17 -3,25 0,6 3,11 7,14 4,3 9,0 12,3 1,1 2,-1 2,-3 -2,-9 0,-17 2,-26 1,-1 1,-4 3,-4 3,0 3,2 4,4 1,1 1,2 2,3 5,11 11,22 20,30 7,7 15,8 23,3 4,-2 4,-4 1,-8 -12,-12 -20,-27 -27,-43 -1,-3 -1,-5 2,-7l0 0zm6 -75c3,-2 6,-3 11,-1 -4,1 -7,2 -10,3 -1,1 -2,1 -2,0 0,-1 0,-2 1,-2l0 0zm-16 46c4,-14 9,-27 24,-32 2,-1 4,-2 5,0 1,1 0,3 -1,4 -6,11 -16,20 -25,29 -1,1 -1,2 -3,1 -1,-1 0,-2 0,-2l0 0zm-4 15c0,-4 2,-4 3,-5 11,-9 21,-20 30,-31 0,-1 1,-3 3,-2 1,0 0,2 0,2 -9,15 -22,25 -36,36l0 0zm130 -52c-2,-12 -21,-25 -33,-22 0,1 -1,1 -1,1 -9,4 -16,11 -22,19 7,-5 12,-11 20,-13 3,-1 7,-4 9,-1 1,2 -4,3 -7,4 -16,10 -29,22 -35,40 -4,11 -1,20 7,28 4,4 9,7 12,12 8,12 6,24 -5,32 -5,3 -8,2 -10,-2 -3,-6 -4,-12 -3,-18 1,-3 1,-6 0,-9 -1,-6 -3,-7 -8,-5 -2,0 -4,2 -5,3 -11,12 -7,34 7,41 8,5 17,6 26,6 8,-1 14,-5 17,-12 6,-10 6,-21 2,-32 -3,-8 -9,-15 -16,-21 -8,-7 -10,-16 -5,-26 5,-10 13,-17 23,-22 1,-1 3,-3 5,-1 2,1 2,3 1,5 -1,5 0,10 0,16 0,4 1,8 3,12 2,3 5,6 9,6 3,0 2,-4 3,-6 1,-1 1,-2 2,-4 4,-10 6,-20 4,-31l0 0zm-25 -1c-5,3 -10,7 -16,11 5,-6 7,-12 15,-14 1,-1 2,-2 3,0 1,1 -1,2 -2,3l0 0zm90 -16c-9,-2 -18,-3 -26,-4 -7,-2 -10,1 -12,6 -6,13 -12,25 -17,39 -7,19 -13,39 -16,59 -1,16 5,27 19,34 2,1 4,1 7,0 8,-5 18,-8 27,-12 2,-1 4,-2 3,-4 0,-2 -2,-4 -5,-4 -1,1 -3,1 -5,2 -5,2 -11,3 -17,5 -5,2 -7,-1 -6,-5 1,-9 0,-18 12,-21 0,0 1,0 2,-1 -8,-1 -8,-2 -7,-8 6,-22 14,-43 21,-64 5,-14 6,-14 19,-14 3,-1 7,0 8,-3 0,-4 -4,-4 -7,-5l0 0z"/>
   </g>
  </g>
  <polygon class="fil8" points="2191,1429 2174,1429 2170,1354 2156,1429 2140,1429 2158,1339 2185,1339 2187,1401 2216,1339 2242,1339 2226,1429 2209,1429 2225,1355 "/>
  <path id="1" class="fil8" d="M2268 1382l-17 -1c2,-6 6,-11 10,-14 5,-3 12,-5 20,-5 8,0 14,2 18,5 4,4 6,8 6,13 0,2 0,4 0,6 -1,2 -2,8 -4,17 -2,8 -2,13 -2,17 0,2 0,5 1,9l-17 0c-1,-3 -1,-5 -1,-8 -3,3 -6,6 -9,7 -3,2 -7,2 -10,2 -6,0 -10,-1 -14,-5 -3,-3 -5,-8 -5,-14 0,-6 2,-11 6,-14 4,-4 11,-6 21,-7 8,-1 14,-2 16,-3 1,-2 1,-4 1,-6 0,-1 0,-3 -2,-4 -1,-2 -4,-2 -7,-2 -3,0 -5,0 -7,2 -2,1 -3,3 -4,5zm17 16c-1,1 -2,1 -4,1 -9,1 -15,3 -17,5 -2,1 -3,3 -3,6 0,2 0,4 2,5 1,2 3,2 6,2 2,0 5,0 7,-2 3,-1 4,-3 5,-5 2,-2 3,-5 4,-9l0 -3z"/>
  <polygon id="2" class="fil8" points="2313,1429 2332,1339 2349,1339 2339,1386 2362,1364 2385,1364 2359,1387 2373,1429 2355,1429 2346,1399 2334,1409 2330,1429 "/>
  <path id="3" class="fil8" d="M2446 1402l-44 0c0,0 0,1 0,1 0,5 1,8 3,11 3,3 6,4 10,4 5,0 10,-3 13,-9l16 3c-3,6 -7,11 -12,14 -5,3 -11,4 -18,4 -8,0 -15,-2 -21,-8 -5,-5 -8,-13 -8,-22 0,-9 2,-17 7,-24 7,-9 17,-14 29,-14 8,0 14,3 19,8 5,5 7,11 7,20 0,5 0,8 -1,12zm-15 -11c0,-1 0,-1 0,-2 0,-4 -1,-8 -3,-11 -2,-2 -5,-3 -9,-3 -3,0 -7,1 -10,4 -2,3 -4,7 -5,12l27 0z"/>
  <path id="4" class="fil8" d="M2492 1364l18 0 4 32c1,9 2,14 2,18 2,-7 5,-14 10,-21l15 -29 18 0 -40 71c-3,6 -5,10 -7,13 -2,2 -5,4 -7,5 -3,1 -6,2 -10,2 -3,0 -8,0 -12,-2l1 -13c2,1 4,1 6,1 6,0 10,-4 14,-12l-12 -65z"/>
  <path id="5" class="fil8" d="M2559 1402c0,-12 3,-22 10,-29 7,-7 16,-11 27,-11 9,0 17,3 22,8 6,6 8,13 8,22 0,10 -3,19 -10,27 -6,8 -15,11 -27,11 -6,0 -11,-1 -16,-3 -5,-3 -8,-6 -10,-11 -3,-4 -4,-9 -4,-14zm50 -13c0,-4 -1,-7 -4,-10 -2,-2 -5,-4 -9,-4 -4,0 -7,2 -10,4 -3,2 -5,6 -7,10 -2,5 -2,9 -2,13 0,4 1,8 3,11 3,3 6,4 10,4 5,0 9,-2 12,-6 5,-6 7,-13 7,-22z"/>
  <path id="6" class="fil8" d="M2647 1364l17 0 -8 38c-1,5 -2,8 -2,9 0,2 1,4 2,5 1,1 3,2 5,2 1,0 3,0 4,-1 1,-1 3,-2 4,-3 2,-1 3,-2 4,-4 1,-2 2,-4 3,-6 1,-2 2,-5 3,-9l7 -31 17 0 -15 65 -16 0 2 -9c-7,7 -14,10 -22,10 -5,0 -8,-1 -11,-4 -3,-3 -4,-7 -4,-13 0,-2 0,-6 2,-13l8 -36z"/>
  <path id="7" class="fil8" d="M2722 1364l16 0 -2 12c6,-9 12,-14 19,-14 3,0 6,1 8,2l-6 15c-2,-1 -4,-1 -5,-1 -3,0 -7,1 -10,3 -3,2 -5,5 -7,9 -2,4 -3,10 -5,18l-4 21 -18 0 14 -65z"/>
  <path id="8" class="fil8" d="M2795 1402c0,-12 4,-22 10,-29 7,-7 16,-11 27,-11 10,0 17,3 22,8 6,6 8,13 8,22 0,10 -3,19 -10,27 -6,8 -15,11 -27,11 -6,0 -11,-1 -16,-3 -5,-3 -8,-6 -10,-11 -3,-4 -4,-9 -4,-14zm50 -13c0,-4 -1,-7 -4,-10 -2,-2 -5,-4 -9,-4 -4,0 -7,2 -10,4 -3,2 -5,6 -7,10 -1,5 -2,9 -2,13 0,4 1,8 4,11 2,3 5,4 9,4 5,0 9,-2 12,-6 5,-6 7,-13 7,-22z"/>
  <polygon id="9" class="fil8" points="2936,1429 2920,1429 2917,1387 2897,1429 2881,1429 2873,1364 2888,1364 2893,1407 2913,1364 2929,1364 2931,1407 2951,1364 2969,1364 "/>
  <path id="10" class="fil8" d="M2980 1364l17 0 -2 8c4,-3 8,-6 12,-7 3,-2 7,-3 11,-3 5,0 10,2 13,5 3,3 4,7 4,12 0,3 0,7 -2,13l-8 37 -17 0 8 -37c1,-5 2,-9 2,-10 0,-2 -1,-4 -2,-5 -2,-2 -4,-2 -6,-2 -3,0 -5,1 -9,3 -3,2 -5,5 -7,9 -1,2 -3,7 -5,15l-5 27 -18 0 14 -65z"/>
  <path id="11" class="fil8" d="M3077 1429l18 -90 18 0 -6 30c3,-2 6,-4 9,-5 2,-1 5,-2 9,-2 7,0 12,3 16,7 4,5 6,11 6,20 0,6 -1,12 -2,17 -2,6 -5,11 -8,14 -4,4 -7,6 -10,8 -4,2 -8,2 -12,2 -9,0 -16,-4 -20,-12l-2 11 -16 0zm23 -27c0,5 1,8 4,11 2,3 5,4 9,4 3,0 5,-1 8,-3 3,-2 5,-5 7,-10 2,-5 2,-10 2,-14 0,-5 -1,-9 -3,-11 -3,-3 -5,-4 -9,-4 -4,0 -8,2 -11,6 -5,6 -7,13 -7,21z"/>
  <path id="12" class="fil8" d="M3156 1402c0,-12 4,-22 10,-29 7,-7 16,-11 27,-11 10,0 17,3 22,8 6,6 8,13 8,22 0,10 -3,19 -10,27 -6,8 -15,11 -27,11 -6,0 -11,-1 -16,-3 -5,-3 -8,-6 -10,-11 -3,-4 -4,-9 -4,-14zm50 -13c0,-4 -1,-7 -4,-10 -2,-2 -5,-4 -9,-4 -4,0 -7,2 -10,4 -3,2 -5,6 -7,10 -1,5 -2,9 -2,13 0,4 1,8 4,11 2,3 5,4 9,4 5,0 9,-2 12,-6 5,-6 7,-13 7,-22z"/>
  <path id="13" class="fil8" d="M3234 1377l3 -13 9 0 2 -10 20 -12 -5 22 11 0 -3 13 -11 0 -5 27c-1,5 -2,8 -2,9 0,1 1,2 1,3 1,1 3,1 5,1 1,0 3,0 6,0l-3 12c-3,1 -6,1 -9,1 -6,0 -11,-1 -14,-3 -2,-3 -4,-6 -4,-10 0,-2 1,-7 2,-14l6 -26 -9 0z"/>
 </g>
</svg>
