<?xml version="1.0" encoding="UTF-8"?>
<!DOCTYPE svg PUBLIC "-//W3C//DTD SVG 1.1//EN" "http://www.w3.org/Graphics/SVG/1.1/DTD/svg11.dtd">
<!-- Creator: CorelDRAW X7 -->
<svg xmlns="http://www.w3.org/2000/svg" xml:space="preserve" width="5.33333in" height="1.66666in" version="1.1" style="shape-rendering:geometricPrecision; text-rendering:geometricPrecision; image-rendering:optimizeQuality; fill-rule:evenodd; clip-rule:evenodd"
viewBox="0 0 5333 1667"
 xmlns:xlink="http://www.w3.org/1999/xlink"
 xmlns:dc="http://purl.org/dc/elements/1.1/"
 xmlns:cc="http://creativecommons.org/ns#"
 xmlns:rdf="http://www.w3.org/1999/02/22-rdf-syntax-ns#"
 xmlns:svg="http://www.w3.org/2000/svg"
 xmlns:sodipodi="http://sodipodi.sourceforge.net/DTD/sodipodi-0.dtd"
 xmlns:inkscape="http://www.inkscape.org/namespaces/inkscape"
 inkscape:version="0.91 r13725"
 sodipodi:docname="CSS3.svg">
 <defs>
  <style type="text/css">
   <![CDATA[
    .fil2 {fill:#FEFEFE}
    .fil0 {fill:#00A49B}
    .fil1 {fill:#FEFEFE;fill-rule:nonzero}
   ]]>
  </style>
 </defs>
 <g id="Layer_x0020_1">
  <metadata id="CorelCorpID_0Corel-Layer"/>
  <rect class="fil0" width="5333" height="1667"/>
  <path class="fil1" d="M833 622l-25 111c-6,28 -12,54 -16,82l0 0c-4,-27 -9,-54 -15,-81l-24 -112 -36 0 -26 111c-7,30 -14,57 -17,82l-1 0c-4,-24 -9,-53 -15,-81l-23 -112 -38 0 55 234 37 0 28 -113c7,-28 12,-50 16,-75l1 0c2,25 7,48 13,75l25 113 37 0 60 -234 -36 0z"/>
  <path id="1" class="fil1" d="M1012 824c-11,5 -23,8 -42,8 -26,0 -50,-14 -51,-52l107 0c0,-4 1,-9 1,-15 0,-41 -19,-81 -66,-81 -48,0 -76,40 -76,90 0,51 29,85 80,85 23,0 41,-4 53,-10l-6 -25zm-93 -69c2,-20 13,-45 39,-45 27,0 36,25 35,45l-74 0z"/>
  <path id="2" class="fil1" d="M1096 711l0 -99 -35 0 0 199c0,15 -1,34 -1,45l30 0 2 -25 1 0c11,19 28,28 49,28 35,0 71,-28 71,-90 0,-51 -27,-85 -65,-85 -24,0 -41,10 -51,27l-1 0zm0 46c0,-23 17,-44 39,-44 28,0 42,26 42,58 0,36 -15,60 -42,60 -24,0 -39,-20 -39,-42l0 -32z"/>
  <path id="3" class="fil1" d="M1317 855c14,2 30,3 51,3 41,0 74,-10 95,-31 21,-20 34,-50 34,-93l0 0c0,-52 -21,-113 -120,-113 -22,0 -43,2 -60,5l0 229zm36 -204c6,-1 15,-2 27,-2 50,0 80,29 80,86 0,64 -32,95 -84,95 -9,0 -17,-1 -23,-2l0 -177z"/>
  <path id="4" class="fil1" d="M1648 824c-11,5 -23,8 -42,8 -27,0 -50,-14 -51,-52l107 0c0,-4 1,-9 1,-15 0,-41 -19,-81 -66,-81 -48,0 -76,40 -76,90 0,51 29,85 80,85 23,0 41,-4 53,-10l-6 -25zm-93 -69c2,-20 13,-45 39,-45 27,0 35,25 35,45l-74 0z"/>
  <path id="5" class="fil1" d="M1794 688l-27 90c-4,14 -8,28 -11,42l-1 0c-3,-14 -7,-28 -11,-43l-28 -89 -38 0 59 168 34 0 60 -168 -37 0z"/>
  <path id="6" class="fil1" d="M1974 824c-11,5 -23,8 -42,8 -27,0 -50,-14 -51,-52l107 0c0,-4 1,-9 1,-15 0,-41 -19,-81 -66,-81 -48,0 -76,40 -76,90 0,51 29,85 80,85 23,0 41,-4 53,-10l-6 -25zm-93 -69c2,-20 13,-45 39,-45 27,0 35,25 35,45l-74 0z"/>
  <polygon id="7" class="fil1" points="2058,612 2023,612 2023,856 2058,856 "/>
  <path id="8" class="fil1" d="M2172 684c-45,0 -79,32 -79,89 0,54 33,86 76,86 38,0 79,-26 79,-88 0,-52 -30,-87 -76,-87zm40 87c0,34 -16,62 -42,62 -26,0 -41,-28 -41,-61 0,-29 11,-61 42,-61 29,0 41,33 41,60z"/>
  <path id="9" class="fil1" d="M2315 714l-2 -26 -31 0c0,15 1,32 1,54l0 182 35 0 0 -88 1 0c8,14 25,23 45,23 35,0 71,-28 71,-89 0,-52 -29,-86 -66,-86 -24,0 -42,11 -54,30l0 0zm3 43c0,-25 18,-44 39,-44 27,0 42,26 42,58 0,35 -15,60 -43,60 -17,0 -38,-13 -38,-43l0 -31z"/>
  <path id="10" class="fil1" d="M2700 754c0,-53 -28,-70 -53,-70 -24,0 -40,13 -51,31l-1 0c-7,-19 -23,-31 -45,-31 -25,0 -40,15 -49,29l0 0 -2 -25 -31 0c1,14 1,28 1,47l0 121 35 0 0 -102c0,-26 18,-41 34,-41 20,0 29,18 29,42l0 101 35 0 0 -104c0,-24 16,-39 33,-39 21,0 30,19 30,47l0 96 35 0 0 -102z"/>
  <path id="11" class="fil1" d="M2861 824c-11,5 -24,8 -42,8 -27,0 -50,-14 -51,-52l106 0c1,-4 1,-9 1,-15 0,-41 -19,-81 -66,-81 -47,0 -75,40 -75,90 0,51 29,85 79,85 23,0 42,-4 54,-10l-6 -25zm-93 -69c2,-20 13,-45 39,-45 27,0 35,25 35,45l-74 0z"/>
  <path id="12" class="fil1" d="M3048 753c0,-52 -29,-69 -55,-69 -26,0 -43,15 -51,29l-1 0 -2 -25 -31 0c1,14 1,29 1,47l0 121 36 0 0 -101c0,-27 18,-41 36,-41 24,0 32,20 32,43l0 99 35 0 0 -103z"/>
  <path id="13" class="fil1" d="M3100 688l-24 0 0 26 24 0 0 87c0,22 3,36 12,45 7,9 19,13 33,13 12,0 22,-1 28,-4l-2 -27c-4,1 -8,2 -15,2 -15,0 -21,-10 -21,-31l0 -85 39 0 0 -26 -39 0 0 -41 -35 11 0 30z"/>
  <path class="fil1" d="M659 1017l8 2c-2,6 -5,11 -9,15 -4,3 -10,5 -16,5 -6,0 -12,-2 -16,-4 -4,-3 -7,-7 -9,-12 -2,-5 -3,-10 -3,-16 0,-6 1,-11 4,-16 2,-4 5,-8 10,-10 4,-3 9,-4 14,-4 6,0 11,2 15,5 4,3 7,7 9,12l-8 2c-1,-4 -3,-7 -6,-9 -3,-2 -6,-3 -10,-3 -5,0 -8,1 -11,3 -3,2 -6,5 -7,9 -1,4 -2,7 -2,11 0,5 1,10 2,14 2,3 4,6 7,8 3,2 7,3 10,3 5,0 9,-1 12,-4 3,-2 5,-6 6,-11z"/>
  <path id="1" class="fil1" d="M673 1016c0,-8 2,-14 7,-18 3,-3 8,-5 13,-5 6,0 11,2 15,6 3,4 5,10 5,16 0,6 0,10 -2,14 -2,3 -4,5 -7,7 -4,2 -7,3 -11,3 -6,0 -11,-2 -15,-6 -3,-4 -5,-10 -5,-17zm7 0c0,6 2,10 4,12 2,3 5,5 9,5 4,0 7,-2 9,-5 3,-2 4,-7 4,-12 0,-6 -1,-10 -4,-12 -2,-3 -5,-4 -9,-4 -4,0 -7,1 -9,4 -2,2 -4,7 -4,12z"/>
  <path id="2" class="fil1" d="M722 1038l0 -44 7 0 0 7c3,-5 7,-8 13,-8 3,0 5,1 7,2 3,1 4,2 5,4 1,1 2,3 3,5 0,1 0,4 0,7l0 27 -7 0 0 -27c0,-3 -1,-5 -1,-6 -1,-2 -2,-3 -3,-4 -2,-1 -3,-1 -5,-1 -3,0 -6,1 -8,3 -3,2 -4,6 -4,11l0 24 -7 0z"/>
  <path id="3" class="fil1" d="M768 1038l0 -44 7 0 0 7c3,-5 8,-8 14,-8 2,0 5,1 7,2 2,1 4,2 5,4 1,1 2,3 2,5 0,1 0,4 0,7l0 27 -7 0 0 -27c0,-3 0,-5 -1,-6 0,-2 -1,-3 -3,-4 -1,-1 -3,-1 -5,-1 -3,0 -6,1 -8,3 -2,2 -3,6 -3,11l0 24 -8 0z"/>
  <path id="4" class="fil1" d="M844 1024l8 1c-1,4 -4,7 -7,10 -3,2 -7,4 -12,4 -7,0 -12,-2 -15,-6 -4,-4 -6,-10 -6,-17 0,-7 2,-12 6,-16 4,-5 8,-7 14,-7 6,0 11,2 14,6 4,4 6,10 6,17 0,0 0,1 0,2l-32 0c0,5 1,8 4,11 2,2 5,4 9,4 2,0 5,-1 7,-3 2,-1 3,-3 4,-6zm-24 -12l24 0c0,-4 -1,-6 -3,-8 -2,-3 -5,-5 -9,-5 -3,0 -6,2 -8,4 -2,2 -4,5 -4,9z"/>
  <path id="5" class="fil1" d="M889 1022l7 1c0,5 -2,9 -6,11 -3,3 -7,5 -12,5 -5,0 -10,-2 -14,-6 -3,-4 -5,-10 -5,-17 0,-4 1,-9 2,-12 2,-4 4,-6 7,-8 3,-2 7,-3 10,-3 5,0 9,2 12,4 3,2 5,6 6,10l-7 1c-1,-3 -2,-5 -4,-6 -2,-2 -4,-3 -6,-3 -4,0 -7,2 -9,4 -3,3 -4,7 -4,13 0,6 1,10 4,13 2,2 5,4 8,4 3,0 6,-1 8,-3 1,-2 3,-5 3,-8z"/>
  <path id="6" class="fil1" d="M919 1031l1 7c-2,0 -4,0 -6,0 -3,0 -5,0 -6,-1 -2,-1 -3,-2 -3,-3 -1,-2 -1,-5 -1,-9l0 -25 -6 0 0 -6 6 0 0 -10 7 -5 0 15 8 0 0 6 -8 0 0 25c0,3 0,4 1,4 0,1 0,2 1,2 0,0 1,0 2,0 1,0 2,0 4,0z"/>
  <path id="7" class="fil1" d="M965 1031l1 7c-2,0 -4,0 -6,0 -2,0 -4,0 -6,-1 -1,-1 -2,-2 -3,-3 -1,-2 -1,-5 -1,-9l0 -25 -5 0 0 -6 5 0 0 -10 8 -5 0 15 7 0 0 6 -7 0 0 25c0,3 0,4 0,4 0,1 1,2 1,2 1,0 2,0 3,0 0,0 2,0 3,0z"/>
  <path id="8" class="fil1" d="M972 1038l0 -60 7 0 0 21c4,-4 8,-6 13,-6 4,0 6,1 9,2 2,2 4,3 5,6 1,2 1,5 1,9l0 28 -7 0 0 -28c0,-3 -1,-6 -3,-8 -1,-1 -3,-2 -6,-2 -2,0 -4,0 -6,2 -2,1 -4,2 -4,4 -1,2 -2,5 -2,8l0 24 -7 0z"/>
  <path id="9" class="fil1" d="M1048 1024l8 1c-2,4 -4,7 -7,10 -3,2 -7,4 -12,4 -7,0 -12,-2 -15,-6 -4,-4 -6,-10 -6,-17 0,-7 2,-12 6,-16 3,-5 8,-7 14,-7 6,0 11,2 14,6 4,4 6,10 6,17 0,0 0,1 0,2l-32 0c0,5 1,8 4,11 2,2 5,4 9,4 2,0 5,-1 6,-3 2,-1 4,-3 5,-6zm-24 -12l24 0c0,-4 -1,-6 -3,-8 -2,-3 -5,-5 -9,-5 -3,0 -6,2 -8,4 -3,2 -4,5 -4,9z"/>
  <path id="10" class="fil1" d="M1096 1038l-13 -44 7 0 7 25 3 10c0,-1 1,-4 2,-9l7 -26 7 0 7 26 2 8 2 -9 8 -25 7 0 -14 44 -7 0 -7 -26 -2 -8 -9 34 -7 0z"/>
  <path id="11" class="fil1" d="M1145 1016c0,-8 3,-14 7,-18 4,-3 8,-5 14,-5 6,0 10,2 14,6 4,4 6,10 6,16 0,6 -1,10 -3,14 -1,3 -4,5 -7,7 -3,2 -7,3 -10,3 -6,0 -11,-2 -15,-6 -4,-4 -6,-10 -6,-17zm8 0c0,6 1,10 4,12 2,3 5,5 9,5 3,0 6,-2 9,-5 2,-2 3,-7 3,-12 0,-6 -1,-10 -3,-12 -3,-3 -6,-4 -9,-4 -4,0 -7,1 -9,4 -3,2 -4,7 -4,12z"/>
  <path id="12" class="fil1" d="M1194 1038l0 -44 7 0 0 7c2,-3 3,-5 5,-6 1,-1 3,-2 4,-2 3,0 5,1 8,3l-3 7c-1,-1 -3,-2 -5,-2 -2,0 -3,1 -4,2 -2,0 -3,2 -3,4 -1,2 -1,5 -1,8l0 23 -8 0z"/>
  <polygon id="13" class="fil1" points="1222,1038 1222,978 1229,978 1229,1038 "/>
  <path id="14" class="fil1" d="M1269 1038l0 -6c-3,4 -7,7 -12,7 -4,0 -7,-1 -10,-3 -3,-2 -5,-5 -7,-8 -1,-4 -2,-8 -2,-12 0,-4 1,-8 2,-12 2,-3 4,-6 7,-8 2,-2 6,-3 9,-3 3,0 5,1 7,2 2,1 4,3 5,4l0 -21 8 0 0 60 -7 0zm-23 -22c0,6 1,10 3,12 2,3 5,5 8,5 4,0 6,-2 8,-4 3,-3 4,-7 4,-12 0,-6 -1,-11 -4,-13 -2,-3 -5,-4 -8,-4 -3,0 -6,1 -8,4 -2,2 -3,6 -3,12z"/>
  <path id="15" class="fil1" d="M1326 1031l1 7c-2,0 -4,0 -5,0 -3,0 -5,0 -7,-1 -1,-1 -2,-2 -3,-3 0,-2 0,-5 0,-9l0 -25 -6 0 0 -6 6 0 0 -10 7 -5 0 15 7 0 0 6 -7 0 0 25c0,3 0,4 0,4 0,1 1,2 1,2 1,0 2,0 3,0 1,0 2,0 3,0z"/>
  <path id="16" class="fil1" d="M1333 1038l0 -60 8 0 0 21c3,-4 7,-6 13,-6 3,0 6,1 8,2 2,2 4,3 5,6 1,2 1,5 1,9l0 28 -7 0 0 -28c0,-3 -1,-6 -2,-8 -2,-1 -4,-2 -7,-2 -2,0 -4,0 -6,2 -2,1 -3,2 -4,4 -1,2 -1,5 -1,8l0 24 -8 0z"/>
  <path id="17" class="fil1" d="M1380 1038l0 -44 6 0 0 7c2,-3 3,-5 5,-6 1,-1 3,-2 5,-2 2,0 5,1 7,3l-2 7c-2,-1 -4,-2 -6,-2 -1,0 -3,1 -4,2 -1,0 -2,2 -3,4 -1,2 -1,5 -1,8l0 23 -7 0z"/>
  <path id="18" class="fil1" d="M1405 1016c0,-8 2,-14 6,-18 4,-3 9,-5 14,-5 6,0 11,2 15,6 3,4 5,10 5,16 0,6 -1,10 -2,14 -2,3 -4,5 -8,7 -3,2 -6,3 -10,3 -6,0 -11,-2 -15,-6 -3,-4 -5,-10 -5,-17zm7 0c0,6 1,10 4,12 2,3 5,5 9,5 4,0 7,-2 9,-5 3,-2 4,-7 4,-12 0,-6 -1,-10 -4,-12 -2,-3 -5,-4 -9,-4 -4,0 -7,1 -9,4 -3,2 -4,7 -4,12z"/>
  <path id="19" class="fil1" d="M1482 1038l0 -7c-3,5 -8,8 -14,8 -2,0 -4,-1 -7,-2 -2,-1 -4,-2 -5,-4 -1,-1 -1,-3 -2,-5 0,-1 0,-4 0,-7l0 -27 7 0 0 24c0,4 0,7 0,8 1,2 2,3 3,5 2,1 4,1 6,1 2,0 4,0 6,-1 2,-2 3,-3 4,-5 1,-2 1,-5 1,-8l0 -24 8 0 0 44 -7 0z"/>
  <path id="20" class="fil1" d="M1499 1041l7 1c0,2 1,4 2,5 2,1 5,2 8,2 3,0 6,-1 8,-2 2,-1 3,-3 3,-6 1,-1 1,-4 1,-9 -3,4 -7,6 -12,6 -6,0 -11,-2 -14,-7 -3,-4 -5,-9 -5,-15 0,-4 1,-8 3,-12 1,-3 3,-6 6,-8 3,-2 6,-3 10,-3 5,0 9,3 13,7l0 -6 6 0 0 38c0,6 0,11 -2,14 -1,3 -3,5 -6,7 -3,1 -7,2 -11,2 -5,0 -9,-1 -13,-3 -3,-3 -4,-6 -4,-11zm6 -26c0,6 1,10 3,13 2,2 5,4 9,4 3,0 6,-2 8,-4 2,-3 4,-7 4,-12 0,-6 -2,-10 -4,-12 -2,-3 -5,-4 -8,-4 -4,0 -6,1 -9,4 -2,2 -3,6 -3,11z"/>
  <path id="21" class="fil1" d="M1547 1038l0 -60 7 0 0 21c3,-4 8,-6 13,-6 3,0 6,1 8,2 2,2 4,3 5,6 1,2 2,5 2,9l0 28 -8 0 0 -28c0,-3 0,-6 -2,-8 -2,-1 -4,-2 -7,-2 -2,0 -4,0 -6,2 -2,1 -3,2 -4,4 -1,2 -1,5 -1,8l0 24 -7 0z"/>
  <path id="22" class="fil1" d="M1644 1032c-2,3 -5,4 -8,5 -2,1 -5,2 -8,2 -4,0 -8,-2 -11,-4 -2,-2 -3,-5 -3,-9 0,-2 0,-4 1,-6 1,-1 2,-3 4,-4 1,-1 3,-2 5,-2 1,-1 4,-1 7,-1 6,-1 10,-2 13,-3 0,-1 0,-1 0,-2 0,-3 -1,-5 -2,-6 -2,-2 -5,-2 -9,-2 -3,0 -6,0 -7,1 -2,2 -3,4 -4,7l-7 -1c0,-3 2,-6 3,-8 2,-2 4,-3 7,-4 2,-1 6,-2 9,-2 4,0 7,1 9,2 3,1 4,2 5,3 2,1 2,3 3,5 0,1 0,4 0,7l0 10c0,6 0,11 1,12 0,2 0,4 1,6l-7 0c-1,-2 -1,-4 -2,-6zm0 -16c-3,1 -7,2 -12,3 -3,0 -5,1 -7,1 -1,1 -2,2 -3,3 0,1 -1,2 -1,3 0,2 1,4 3,5 1,1 3,2 6,2 3,0 5,-1 8,-2 2,-1 3,-3 4,-5 1,-2 2,-4 2,-7l0 -3z"/>
  <path id="23" class="fil1" d="M1662 1038l0 -44 7 0 0 7c1,-3 3,-4 5,-6 3,-1 5,-2 8,-2 3,0 6,1 8,2 2,2 3,4 4,6 4,-5 8,-8 14,-8 4,0 7,2 10,4 2,2 3,6 3,11l0 30 -7 0 0 -28c0,-2 -1,-5 -1,-6 0,-1 -1,-2 -3,-3 -1,-1 -2,-1 -4,-1 -3,0 -6,1 -8,3 -2,2 -3,5 -3,10l0 25 -7 0 0 -28c0,-4 -1,-6 -2,-8 -1,-1 -3,-2 -6,-2 -2,0 -4,0 -5,1 -2,2 -3,3 -4,5 -1,2 -1,5 -1,9l0 23 -8 0z"/>
  <path id="24" class="fil1" d="M1760 1032c-3,3 -5,4 -8,5 -2,1 -5,2 -8,2 -5,0 -8,-2 -11,-4 -2,-2 -4,-5 -4,-9 0,-2 1,-4 2,-6 1,-1 2,-3 4,-4 1,-1 3,-2 5,-2 1,-1 3,-1 6,-1 6,-1 11,-2 13,-3 0,-1 0,-1 0,-2 0,-3 0,-5 -2,-6 -1,-2 -4,-2 -8,-2 -3,0 -6,0 -8,1 -1,2 -2,4 -3,7l-7 -1c0,-3 1,-6 3,-8 1,-2 3,-3 6,-4 3,-1 6,-2 10,-2 4,0 7,1 9,2 2,1 4,2 5,3 1,1 2,3 3,5 0,1 0,4 0,7l0 10c0,6 0,11 0,12 1,2 1,4 2,6l-8 0c0,-2 -1,-4 -1,-6zm-1 -16c-2,1 -6,2 -12,3 -3,0 -5,1 -6,1 -1,1 -2,2 -3,3 -1,1 -1,2 -1,3 0,2 1,4 2,5 2,1 4,2 7,2 3,0 5,-1 7,-2 3,-1 4,-3 5,-5 1,-2 1,-4 1,-7l0 -3z"/>
  <path id="25" class="fil1" d="M1774 1038l0 -6 28 -32c-3,0 -6,0 -9,0l-17 0 0 -6 35 0 0 5 -23 28 -5 5c4,-1 7,-1 10,-1l20 0 0 7 -39 0z"/>
  <path id="26" class="fil1" d="M1820 986l0 -8 7 0 0 8 -7 0zm0 52l0 -44 7 0 0 44 -7 0z"/>
  <path id="27" class="fil1" d="M1838 1038l0 -44 7 0 0 7c3,-5 8,-8 14,-8 2,0 5,1 7,2 2,1 4,2 5,4 1,1 2,3 2,5 0,1 0,4 0,7l0 27 -7 0 0 -27c0,-3 0,-5 -1,-6 0,-2 -1,-3 -3,-4 -1,-1 -3,-1 -5,-1 -3,0 -6,1 -8,3 -2,2 -3,6 -3,11l0 24 -8 0z"/>
  <path id="28" class="fil1" d="M1883 1041l7 1c1,2 2,4 3,5 2,1 4,2 7,2 4,0 6,-1 8,-2 2,-1 3,-3 4,-6 0,-1 1,-4 0,-9 -3,4 -7,6 -11,6 -6,0 -11,-2 -14,-7 -4,-4 -5,-9 -5,-15 0,-4 1,-8 2,-12 2,-3 4,-6 7,-8 2,-2 6,-3 10,-3 5,0 9,3 12,7l0 -6 7 0 0 38c0,6 -1,11 -2,14 -2,3 -4,5 -7,7 -3,1 -6,2 -11,2 -5,0 -9,-1 -12,-3 -3,-3 -5,-6 -5,-11zm6 -26c0,6 1,10 4,13 2,2 5,4 8,4 4,0 6,-2 9,-4 2,-3 3,-7 3,-12 0,-6 -1,-10 -3,-12 -3,-3 -6,-4 -9,-4 -3,0 -6,1 -8,4 -3,2 -4,6 -4,11z"/>
  <path id="29" class="fil1" d="M1962 1038l-13 -44 8 0 6 25 3 10c0,-1 1,-4 2,-9l7 -26 7 0 7 26 2 8 3 -9 7 -25 7 0 -13 44 -8 0 -7 -26 -2 -8 -8 34 -8 0z"/>
  <path id="30" class="fil1" d="M2044 1024l7 1c-1,4 -3,7 -6,10 -3,2 -8,4 -13,4 -6,0 -11,-2 -15,-6 -3,-4 -5,-10 -5,-17 0,-7 2,-12 6,-16 3,-5 8,-7 14,-7 6,0 11,2 14,6 4,4 6,10 6,17 0,0 0,1 0,2l-33 0c1,5 2,8 4,11 3,2 6,4 9,4 3,0 5,-1 7,-3 2,-1 4,-3 5,-6zm-24 -12l24 0c0,-4 -1,-6 -3,-8 -2,-3 -5,-5 -9,-5 -3,0 -6,2 -8,4 -3,2 -4,5 -4,9z"/>
  <path id="31" class="fil1" d="M2067 1038l-6 0 0 -60 7 0 0 21c3,-4 7,-6 12,-6 2,0 5,1 7,2 3,1 5,3 6,5 2,2 3,4 4,7 1,2 1,5 1,8 0,8 -2,13 -5,18 -4,4 -8,6 -14,6 -5,0 -9,-3 -12,-7l0 6zm0 -22c0,5 1,9 2,11 3,4 6,6 10,6 3,0 6,-2 8,-5 2,-2 4,-7 4,-12 0,-6 -1,-10 -4,-12 -2,-3 -5,-5 -8,-5 -3,0 -6,2 -8,5 -2,2 -4,6 -4,12z"/>
  <path id="32" class="fil1" d="M2104 1025l7 -1c1,2 2,5 4,6 2,2 4,3 8,3 3,0 5,-1 7,-2 2,-2 3,-3 3,-5 0,-2 -1,-3 -3,-4 -1,-1 -3,-2 -7,-3 -6,-1 -9,-2 -11,-3 -2,-1 -4,-3 -5,-4 -1,-2 -2,-4 -2,-6 0,-2 1,-4 2,-5 1,-2 2,-3 3,-5 1,0 3,-1 5,-2 2,0 4,-1 6,-1 4,0 7,1 9,2 3,1 5,2 6,4 1,2 2,4 2,7l-7 1c0,-3 -1,-4 -3,-6 -1,-1 -3,-2 -6,-2 -4,0 -6,1 -7,2 -2,1 -3,3 -3,4 0,1 1,2 1,3 1,0 2,1 3,2 1,0 3,0 7,1 5,2 8,3 10,4 3,1 4,2 5,4 1,1 2,3 2,6 0,2 -1,5 -2,7 -2,2 -4,4 -6,5 -3,1 -6,2 -9,2 -6,0 -10,-2 -13,-4 -3,-2 -5,-6 -6,-10z"/>
  <path id="33" class="fil1" d="M2149 986l0 -8 7 0 0 8 -7 0zm0 52l0 -44 7 0 0 44 -7 0z"/>
  <path id="34" class="fil1" d="M2183 1031l1 7c-2,0 -4,0 -5,0 -3,0 -5,0 -7,-1 -1,-1 -2,-2 -3,-3 0,-2 -1,-5 -1,-9l0 -25 -5 0 0 -6 5 0 0 -10 8 -5 0 15 7 0 0 6 -7 0 0 25c0,3 0,4 0,4 0,1 1,2 1,2 1,0 2,0 3,0 1,0 2,0 3,0z"/>
  <path id="35" class="fil1" d="M2220 1024l7 1c-1,4 -3,7 -6,10 -3,2 -7,4 -12,4 -7,0 -12,-2 -15,-6 -4,-4 -6,-10 -6,-17 0,-7 2,-12 6,-16 3,-5 8,-7 14,-7 6,0 11,2 14,6 4,4 6,10 6,17 0,0 0,1 0,2l-33 0c1,5 2,8 4,11 3,2 6,4 10,4 2,0 4,-1 6,-3 2,-1 4,-3 5,-6zm-24 -12l24 0c0,-4 -1,-6 -3,-8 -2,-3 -5,-5 -9,-5 -3,0 -6,2 -8,4 -3,2 -4,5 -4,9z"/>
  <path id="36" class="fil1" d="M2234 1025l7 -1c0,2 2,5 3,6 2,2 5,3 8,3 4,0 6,-1 8,-2 1,-2 2,-3 2,-5 0,-2 -1,-3 -2,-4 -1,-1 -3,-2 -7,-3 -6,-1 -10,-2 -12,-3 -2,-1 -3,-3 -4,-4 -1,-2 -2,-4 -2,-6 0,-2 1,-4 1,-5 1,-2 2,-3 4,-5 1,0 3,-1 5,-2 2,0 4,-1 6,-1 3,0 6,1 9,2 2,1 4,2 6,4 1,2 2,4 2,7l-7 1c0,-3 -1,-4 -3,-6 -1,-1 -4,-2 -7,-2 -3,0 -5,1 -7,2 -1,1 -2,3 -2,4 0,1 0,2 1,3 1,0 2,1 3,2 1,0 3,0 6,1 5,2 9,3 11,4 2,1 4,2 5,4 1,1 2,3 2,6 0,2 -1,5 -2,7 -2,2 -4,4 -7,5 -2,1 -5,2 -9,2 -5,0 -10,-2 -13,-4 -2,-2 -4,-6 -5,-10z"/>
  <sodipodi:namedview id="base" pagecolor="#ffffff" bordercolor="#666666" borderopacity="1.0" inkscape:pageopacity="0.0" inkscape:pageshadow="2" inkscape:zoom="0.35" inkscape:cx="181.367" inkscape:cy="256" inkscape:document-units="px" inkscape:current-layer="layer1" showgrid="false" fit-margin-top="0" fit-margin-left="0" fit-margin-right="0" fit-margin-bottom="0" inkscape:window-width="1366" inkscape:window-height="704" inkscape:window-x="0" inkscape:window-y="27" inkscape:window-maximized="1"/>
  <g id="_513288336">
   <g>
    <path class="fil2" d="M3682 1016l-95 -27 -7 -73 47 0 3 37 53 14c0,-12 0,-25 0,-38 0,-6 1,-32 -1,-36l-104 -1 -13 -141 117 0 117 0 -4 45c0,3 1,1 -1,2l-112 0 -63 0c-3,0 -1,0 -2,1l66 0 0 47 108 0 -1 2c1,5 -5,61 -6,71 -2,23 -4,47 -6,70 -5,2 -93,26 -95,26l-1 1zm0 81c2,0 6,-2 9,-3 4,-1 6,-1 10,-2l115 -32c7,-2 13,-4 19,-6l2 -23c1,-4 1,-8 2,-12 0,-4 0,-8 1,-12l4 -47c1,-9 2,-27 3,-36 0,-2 1,-4 1,-6l1 -18c1,-11 3,-26 3,-36l2 -23c1,-4 1,-8 2,-12l4 -48c1,-8 2,-27 3,-36l2 -24c1,-9 4,-41 4,-48l-373 0c0,6 3,28 3,35 0,10 3,27 3,35 0,9 3,26 3,35 1,6 2,12 2,18 0,8 2,25 3,35 1,15 3,36 5,52l7 87c1,6 1,12 2,18 1,5 1,12 1,17l4 44c0,1 0,3 1,4 0,2 1,2 3,2 10,3 20,6 29,9 20,5 41,11 60,16l60 17z"/>
    <path class="fil2" d="M3686 641l24 0 0 -34 16 24c2,-1 14,-23 16,-24l0 34 25 0 0 -71 -25 0c-1,0 -3,3 -4,6 -2,3 -10,18 -12,19 -1,-2 -6,-10 -7,-13l-8 -12 -25 0 0 71z"/>
    <polygon class="fil2" points="3530,641 3555,641 3555,617 3576,617 3576,641 3600,641 3600,570 3576,570 3576,593 3555,593 3555,570 3530,570 "/>
    <path class="fil2" d="M3683 967l0 0 51 -14c1,-1 1,-1 1,-1l0 -6c1,-11 5,-48 5,-53l-58 0c2,4 1,30 1,36 0,13 0,26 0,38z"/>
    <polygon class="fil2" points="3683,846 3683,799 3617,799 3621,846 "/>
    <polygon class="fil2" points="3610,594 3631,594 3631,641 3655,641 3655,594 3676,594 3676,570 3610,570 "/>
    <polygon class="fil2" points="3778,641 3835,641 3835,617 3802,617 3802,570 3778,570 "/>
   </g>
   <g>
    <path id="polygon2989" class="fil2" d="M4312 680l-33 373 -150 42 -149 -42 -33 -373 365 0zm-126 215l-6 59 -51 14 0 48 94 -26 1 -8 11 -121 1 -12 8 -93 -115 0 0 46 65 0 -4 47 -61 0 0 46 57 0zm-57 120l0 -47 0 0 -51 -14 -3 -37 -25 0 -21 0 6 72 94 26 0 0zm-106 -166l4 46 102 0 0 -46 -106 0zm106 -93l0 0 -114 0 4 46 110 0 0 -46z"/>
    <path id="polygon2991" class="fil2" d="M4250 1029l29 -319 -150 0 0 46 115 0 -8 93 -1 12 -11 121 -1 7 -94 26 0 48 121 -34zm-121 -227l0 47 61 0 4 -47 -65 0zm0 93l0 73 51 -14 6 -59 -57 0z"/>
    <polygon id="path2999" class="fil2" points="4033,578 4088,578 4088,602 4056,602 4056,625 4088,625 4088,648 4033,648 " inkscape:connector-curvature="0"/>
    <polygon id="path3001" class="fil2" points="4099,578 4155,578 4155,599 4122,599 4122,603 4155,603 4155,649 4099,649 4099,628 4131,628 4131,624 4099,624 " inkscape:connector-curvature="0"/>
    <polygon id="path3003" class="fil2" points="4166,578 4221,578 4221,599 4189,599 4189,603 4221,603 4221,649 4166,649 4166,628 4198,628 4198,624 4166,624 " inkscape:connector-curvature="0"/>
   </g>
   <path class="fil2" d="M4610 995c3,47 -54,62 -89,43 -9,-4 -21,-15 -23,-27 9,-7 19,-12 29,-18 8,6 8,17 22,19 13,2 22,-5 23,-17 5,-9 2,-117 2,-137l36 0 0 137zm115 -91c-6,-6 -7,-11 -16,-14 -25,-9 -45,21 -7,37 28,12 58,23 63,55 9,61 -61,76 -103,55 -11,-5 -25,-19 -29,-30 5,-4 24,-15 30,-17 11,10 14,21 35,22 16,1 36,-9 27,-27 -7,-15 -55,-23 -71,-46 -21,-29 -9,-66 18,-78 33,-15 73,0 81,25 -6,5 -22,16 -28,18zm-336 174l408 0 0 -408 -408 0 0 408z"/>
  </g>
 </g>
</svg>
