<?xml version="1.0" encoding="UTF-8"?>
<!DOCTYPE svg PUBLIC "-//W3C//DTD SVG 1.1//EN" "http://www.w3.org/Graphics/SVG/1.1/DTD/svg11.dtd">
<!-- Creator: CorelDRAW X7 -->
<svg xmlns="http://www.w3.org/2000/svg" xml:space="preserve" width="0.585in" height="0.46in" version="1.1" style="shape-rendering:geometricPrecision; text-rendering:geometricPrecision; image-rendering:optimizeQuality; fill-rule:evenodd; clip-rule:evenodd"
viewBox="0 0 585 460"
 xmlns:xlink="http://www.w3.org/1999/xlink">
 <defs>
  <style type="text/css">
   <![CDATA[
    .fil0 {fill:#673B84;fill-rule:nonzero}
   ]]>
  </style>
 </defs>
 <g id="Layer_x0020_1">
  <metadata id="CorelCorpID_0Corel-Layer"/>
  <g id="_705397616">
   <path class="fil0" d="M443 147c2,-1 3,-2 3,-4 0,-7 -11,-19 -25,-26 -6,-3 -12,-5 -17,-6 -26,-3 -57,21 -64,38 -3,9 -2,14 -2,20 0,6 1,12 -3,23 -3,10 1,14 4,16l0 0c8,4 24,-1 30,-12 7,-14 4,-19 1,-23 0,0 0,-1 0,-1 -1,-3 -2,-8 -1,-10 0,0 0,0 1,0 0,0 2,2 3,8 1,6 4,12 10,15 4,2 9,3 15,1 13,-4 16,-3 22,-1 0,0 0,0 1,0 1,0 8,-1 10,-5 1,-1 1,-2 0,-4 -1,-1 0,-9 3,-17 3,-6 6,-11 9,-12z"/>
   <path class="fil0" d="M187 218c0,0 5,9 16,15 7,3 15,5 23,5 1,0 1,0 1,0 1,-1 11,-5 12,-12 1,-3 -1,-6 -4,-9 0,0 0,0 -1,0 0,0 0,0 0,0 -1,0 -4,-3 -2,-20 3,-20 7,-36 12,-43 3,-4 4,-7 3,-10 0,-2 -1,-3 -3,-4 -1,-1 -4,-1 -9,1l0 0c-2,2 -50,39 -48,76 0,0 0,0 0,1z"/>
   <path class="fil0" d="M179 222c3,-5 3,-23 -8,-31 -9,-6 -16,-13 -18,-35 -1,-18 -5,-23 -8,-24l0 0c-1,-10 -5,-28 -16,-34 -11,-6 -37,8 -38,9 0,0 -1,1 -1,2 1,0 1,1 2,1 0,0 0,0 0,0 4,2 4,11 5,20 1,16 3,36 16,43 2,1 3,2 5,2 5,1 10,3 13,5 11,5 15,12 19,19 2,3 4,6 6,8 8,9 13,14 17,16 4,3 6,0 6,-1z"/>
   <path class="fil0" d="M225 43c-1,-1 -2,-2 -2,-2 -16,-8 -37,5 -38,6 -1,1 -1,2 -1,3 0,3 4,7 5,8 4,9 7,24 7,24 0,0 0,1 1,1 0,0 0,0 1,0 5,0 22,-4 23,-4 1,0 1,-1 1,-1 1,-6 -1,-9 -3,-10 -2,-2 -3,-3 1,-9 4,-7 6,-13 5,-16z"/>
   <path class="fil0" d="M185 190c6,-2 10,-9 13,-16 1,-1 1,-3 2,-4 5,-11 22,-33 35,-37 14,-4 12,-19 12,-19 0,0 0,-1 0,-1 -3,-4 -6,-7 -9,-8 -8,-4 -15,2 -21,8 -1,2 -3,3 -4,5 -4,3 -6,3 -7,3 1,-1 2,-4 7,-9 7,-6 9,-9 9,-13 -1,-3 -3,-6 -9,-9 -1,-1 -2,-1 -4,-2 -12,-5 -23,6 -32,14 -3,3 -6,6 -9,7 0,1 -1,1 -1,1 0,-2 3,-6 11,-15 12,-13 10,-19 8,-27 -1,-1 -1,-3 -2,-4 -1,-5 -3,-8 -6,-9 -3,-2 -6,-1 -6,-1l0 0c-9,5 -21,10 -38,13 -12,3 -28,19 -29,20 -3,3 -4,4 -4,6 1,1 1,1 2,2 2,0 5,-1 7,-1 0,-1 1,-1 1,-1 8,-8 23,-3 25,-2 8,9 11,35 11,35 0,0 1,1 1,1 3,3 6,6 9,7 7,4 14,3 18,2 1,-1 2,-1 3,-1 0,0 0,0 0,1 -1,4 1,10 2,15 0,2 1,5 1,6 0,0 -1,0 -1,0 -4,-2 -4,-3 -4,-5 0,-4 0,-6 -6,-9 0,-1 -1,-1 -2,-1 -5,-3 -8,-1 -9,1 -5,5 0,21 11,38 3,4 6,7 9,8 2,2 4,2 6,1z"/>
   <path class="fil0" d="M116 216c3,2 9,6 16,10 8,4 19,9 31,9 1,0 4,0 5,-3 1,-2 0,-6 -12,-16 -7,-5 -10,-11 -14,-16 -4,-6 -7,-11 -17,-16 -3,-2 -7,-4 -12,-5 0,0 0,0 -1,0 0,0 -22,3 -19,33 -3,3 -13,15 -10,25 0,0 0,0 0,0 1,1 10,10 21,16 12,6 21,6 27,1 1,0 1,-1 1,-1 0,0 4,-8 11,-7 0,0 1,-1 1,-1 0,0 2,-3 1,-7 0,-1 -1,-3 -3,-4 -2,0 -3,-1 -6,-1 0,0 -1,-1 -3,-2 -6,-3 -19,-10 -23,-17 -1,-2 -2,-3 -2,-4 1,0 1,1 2,1 2,1 4,3 6,5z"/>
   <path class="fil0" d="M346 88c-9,1 -16,11 -16,12l-1 0c-3,9 -16,14 -16,14 -25,6 -23,29 -22,33 -17,37 -14,46 -12,48 3,7 3,10 3,11l0 0c-7,-3 -7,-8 -7,-19 0,-2 0,-3 0,-4 0,-14 11,-39 11,-39 1,0 1,-1 0,-1 -3,-10 5,-24 7,-28 3,-5 18,-9 23,-10 0,0 1,-1 1,-1 0,-1 1,-2 1,-2 3,-7 4,-9 17,-16 15,-9 15,-20 15,-20 0,-6 -2,-10 -6,-12 -9,-4 -22,-1 -22,-1 0,0 0,0 -1,0 -21,17 -33,17 -44,16 -12,0 -18,18 -19,20 -7,8 -10,14 -9,18 0,3 2,4 3,4l0 0c1,1 3,7 3,11 0,30 -8,46 -9,46 -9,18 -12,34 -8,46 4,12 12,17 15,18 1,1 3,2 4,2 5,1 9,1 13,1 6,0 13,-1 22,4 17,9 29,-1 37,-11 8,-9 3,-21 1,-28 -1,-3 -2,-5 -2,-6 0,-1 1,-3 2,-5 1,-4 4,-9 3,-18 -1,-14 4,-28 9,-37 4,-7 4,-11 4,-16 0,-2 -1,-4 0,-8 0,-5 2,-9 4,-10 0,0 1,0 1,0 0,0 0,0 0,1 1,2 0,8 -1,9 0,1 0,1 0,1 -1,7 1,11 4,13 3,1 5,0 6,0 0,0 1,-1 1,-1 5,-17 13,-15 20,-13 4,1 9,0 14,-2 4,-1 9,-3 16,-4 4,0 9,1 14,4 8,4 14,9 14,9 5,7 10,9 14,7 3,-2 5,-7 5,-8 8,-16 5,-32 -7,-39 0,0 -1,0 -1,-1 -4,-2 -7,-2 -9,0 -2,2 -2,6 -2,7 1,5 0,10 -4,12 -4,3 -8,4 -11,2 -2,-1 -3,-2 -3,-3 0,-2 4,-4 5,-5l1 -1c3,-3 4,-6 4,-10 -1,-7 -6,-11 -6,-11 -4,-4 -8,-6 -12,-8 -16,-8 -27,-4 -36,-1 -3,1 -6,3 -9,3 -11,1 -20,22 -22,27z"/>
   <path class="fil0" d="M544 327c3,5 2,16 0,21 0,1 -1,2 -1,2 -3,-2 -7,0 -9,3 -3,2 -4,5 -3,8 1,3 -1,13 -2,19 -14,31 -16,31 -21,34 -3,1 -7,3 -13,8 -7,5 -11,10 -10,14 0,1 1,4 4,5 3,2 5,2 5,2 25,5 47,-44 48,-46 31,-74 20,-103 20,-104 0,-1 -1,-1 -2,-1 -1,0 -4,0 -16,34 0,0 0,1 0,1z"/>
   <path class="fil0" d="M494 412c3,-2 8,-3 13,-7 11,-9 13,-23 15,-36 0,-2 0,-5 1,-7 2,-12 -11,-26 -21,-31 -4,-2 -9,-2 -11,0 -8,6 -10,6 -23,5 -5,0 -8,1 -10,4 -3,3 -2,7 -2,8 0,0 0,0 1,1 4,2 11,-1 12,-2 3,0 5,0 7,2 5,2 9,6 10,7 10,15 -12,54 -12,54 0,1 0,1 0,1 -3,14 -2,16 0,17 3,2 5,-1 6,-2l0 0c5,-10 9,-12 14,-14z"/>
   <path class="fil0" d="M450 135c0,4 4,6 7,8 6,3 9,-3 12,-8 1,-2 3,-5 5,-6 1,-2 6,-5 12,-2 4,2 7,6 10,11 5,13 12,17 16,20 2,0 4,1 5,2 1,0 1,0 2,0 5,2 8,1 9,-1 1,-1 0,-3 -1,-4 -1,0 -1,0 -2,0 -1,-1 -2,-1 -3,-2 -4,-2 -8,-6 -12,-13 -7,-13 -11,-21 -27,-34 -7,-6 -12,-8 -14,-6 -3,2 -2,5 -2,6 -1,11 -8,20 -10,21 -5,3 -7,6 -7,8z"/>
   <path class="fil0" d="M446 353c7,-13 -6,-28 -14,-31 -6,-2 -17,-2 -29,-2 -2,1 -4,1 -6,1 -8,0 -10,3 -12,6 -2,3 -3,5 -8,8 -10,6 -11,8 -12,9 0,0 0,1 0,2 1,0 2,0 2,0 2,-1 7,0 17,5 1,1 3,2 5,3 2,1 2,2 2,2 0,1 0,1 -1,1 -5,1 -13,-3 -20,-6 -10,-5 -20,-10 -27,-6 -4,1 -7,5 -9,10 -4,13 -1,22 10,27 4,2 8,4 12,5 2,1 4,1 6,2 5,2 9,2 15,3 6,1 13,2 19,5 2,1 3,2 5,3 5,4 4,6 4,6 0,1 0,1 -1,1 -2,-1 -4,-2 -6,-4 -8,-4 -18,-6 -27,-8 -4,-1 -8,-2 -11,-3 -11,-4 -19,-4 -25,10 -3,5 -6,8 -7,8 -1,-1 -1,-1 -2,-2 0,-1 2,-5 4,-8 3,-6 7,-12 5,-16 -1,-2 -2,-4 -3,-6 -5,-6 -11,-15 -8,-21 5,-9 1,-14 1,-14 0,-1 -1,-1 -1,-1 -1,-1 -3,-1 -5,-2 -9,-5 -16,-10 -17,-11 -7,-8 -12,-13 -20,-16 -4,-2 -8,-4 -13,-6l-2 -1c-8,-2 -13,-2 -19,-1 -6,1 -12,1 -21,0 -19,-5 -34,-3 -35,-3l0 0c-20,7 -30,9 -46,3 -3,0 -4,-1 -6,-2 -2,-1 -3,-2 -3,-3 0,0 0,-1 0,-1 1,1 2,1 3,2 13,7 23,3 24,3 8,-3 6,-10 4,-16 -1,-2 -2,-5 -2,-7 0,-3 1,-3 1,-3 0,0 1,0 2,0 0,0 0,0 0,0 4,3 4,5 3,10 -1,4 -2,10 6,13 7,3 12,1 16,-2 4,-2 9,-4 15,-3 13,3 33,3 46,-1 7,-3 9,-7 10,-11 1,-4 2,-7 6,-11 8,-8 9,-11 9,-17 0,-1 0,-3 0,-4 0,-1 1,-1 1,-1l0 0c0,0 2,1 2,4 1,2 2,8 -2,15 -4,5 -7,8 -9,9 -5,4 -5,6 0,16 3,5 5,8 8,9 6,3 11,0 16,-9 1,-3 3,-3 5,-3 2,-1 5,-1 6,-6 2,-5 3,-8 3,-9 1,-1 1,-1 2,0 3,1 -2,12 -4,16 -1,3 -2,5 -4,7 -3,4 -7,8 -6,13 1,4 4,8 10,13 3,2 6,3 9,5 18,9 42,12 52,1 11,-12 26,-16 36,-17 2,0 3,0 3,0 10,-1 12,-2 18,-13 7,-13 -5,-32 -12,-37 -2,0 -3,-2 -3,-3 0,0 0,-1 1,-2 0,1 1,1 2,1 15,8 16,21 17,30 0,3 0,5 1,6 0,2 -1,5 -1,8 -1,4 -3,8 1,10 2,1 5,1 10,0 21,-5 39,-38 39,-39 1,-1 2,-3 2,-4 3,-5 3,-5 6,-4 0,0 0,0 1,1 0,7 -18,30 -33,43 -9,8 -12,10 -12,13 0,2 2,3 5,5 1,0 1,0 2,1l1 0c10,5 34,2 57,-28 14,-19 14,-30 14,-35 0,-1 0,-1 0,-1 0,0 2,0 2,0 1,1 1,1 2,2 2,9 -13,36 -20,46 -3,1 -5,3 -6,6 -1,2 0,4 0,5 0,0 1,1 2,0 2,0 4,0 7,2 6,3 12,12 13,13 1,2 2,3 3,4 3,1 7,-1 10,-3 2,-2 3,-5 2,-7 -2,-6 0,-13 9,-30 8,-16 8,-20 7,-40 0,-3 0,-6 -1,-9 -1,-21 -5,-26 -10,-29 -1,0 -2,-1 -3,-1 -1,0 -1,-1 -2,-1 -2,-1 -4,-1 -6,0 -7,3 -16,14 -18,23 -1,3 -1,7 -1,11 1,8 1,17 -8,29 -7,8 -10,10 -11,11 4,-7 12,-26 13,-29 0,0 0,0 0,0 -2,-24 8,-35 16,-44 1,-1 2,-2 3,-4 4,-4 8,-4 11,-4 3,1 6,1 7,-2 1,-1 1,-3 1,-5 -2,-4 -5,-8 -10,-11 -3,-1 -6,-2 -10,-2 -7,0 -10,5 -13,9 -2,4 -4,8 -10,10 -7,3 -11,5 -11,7 -1,2 0,3 0,3 1,0 1,0 1,1 2,0 3,0 5,1 2,1 5,3 6,4 0,0 0,1 -1,1 -1,1 -5,0 -8,-1 -2,0 -5,-1 -7,-1 -10,-2 -19,16 -27,36l-1 2c-2,4 -2,8 -3,10 0,2 0,3 -1,3 0,0 0,0 -1,0 -2,-1 1,-17 14,-44 7,-13 17,-19 25,-25 5,-3 10,-7 13,-11 3,-5 5,-9 6,-12 1,-1 1,-2 2,-3l0 0c0,0 0,1 1,1l0 0c1,1 3,0 5,0 2,0 4,0 7,2 7,3 9,2 10,2 1,0 1,-1 1,-1 2,-12 -8,-19 -13,-22 -3,-1 -5,-2 -5,-2 -3,0 -5,-1 -8,-3 -11,-5 -19,-16 -20,-17 -2,-3 -4,-5 -7,-7 -6,-3 -13,-1 -16,3 -1,2 -1,5 1,7 10,9 14,18 17,23 1,2 1,4 2,5 2,2 3,4 2,5 0,0 0,0 -1,0 -5,-3 -10,-12 -11,-16 0,0 0,0 0,-1 -7,-6 -12,-10 -17,-12 -7,-4 -13,-4 -18,1 -5,5 -9,13 -8,21 0,5 2,9 5,12 7,6 3,16 2,18 -1,1 -1,1 -2,2 0,-1 0,-3 0,-8 1,-4 -3,-9 -8,-11 -7,-3 -13,-2 -17,2 -6,7 -9,6 -10,5 0,0 -1,0 -1,0l0 0c0,0 0,0 0,0 -19,-6 -32,4 -40,10 -1,1 -3,1 -4,2 -1,1 -1,1 -3,2 -9,6 -27,17 -26,30 1,4 2,6 4,7 6,3 14,-3 16,-5 8,-3 12,-2 15,-1 1,1 2,2 4,2 1,2 3,3 5,4 1,0 2,1 4,1 6,2 8,-1 11,-4 2,-4 4,-7 13,-5 15,5 29,-8 33,-11 7,1 11,-4 11,-4 15,-19 13,-42 11,-49 0,-2 0,-3 1,-4 0,0 0,-1 0,-1 2,1 3,4 4,7 3,10 2,27 -2,33 -1,3 -3,7 -4,10 -3,6 -5,13 -8,14 0,0 -1,0 -1,0 -4,-2 -12,2 -25,8 -7,3 -16,7 -18,7 -5,0 -10,3 -12,6 -2,3 -2,6 -1,7 1,1 1,2 2,4 3,7 10,20 18,26 2,1 3,2 3,3 0,0 0,0 -1,0 -6,-2 -18,-13 -28,-30 -4,-7 -8,-12 -13,-15 -4,-1 -6,-1 -7,-1 -5,-3 -10,-3 -14,-1 -6,4 -10,12 -10,15 0,3 -2,26 -1,32 0,4 -1,7 -1,8 -1,0 -1,-1 -2,-3 -2,-4 -2,-9 -2,-15 1,-9 1,-20 -4,-29 -2,-5 -5,-8 -8,-10 -7,-3 -12,0 -14,1 -1,1 -3,2 -5,4 -2,1 -5,4 -7,3 0,-1 0,-1 -1,-2 -3,-4 -8,-7 -12,-9 -2,-1 -3,-2 -3,-2 0,0 -1,0 -1,0 -8,3 -15,1 -15,1 -20,-9 -31,-2 -32,-2l0 1c-9,12 -19,7 -21,6 -4,-3 -8,-6 -12,-8 -17,-9 -27,-2 -30,0 -21,-2 -33,13 -33,13 0,1 0,1 0,2 0,3 -3,8 -5,10 -12,2 -21,19 -21,19l0 1c-7,28 -4,37 4,40 2,1 3,2 5,2 2,1 4,2 5,2 3,2 5,4 6,6 9,15 21,22 36,21 6,-1 16,2 27,8 4,2 7,4 9,5 7,4 10,-1 12,-4 1,-1 2,-2 3,-2l0 0c0,1 0,4 -3,9 -2,4 -18,0 -32,-5 -8,-4 -12,-2 -14,0 -2,1 -3,4 -2,6 0,3 2,6 7,9 5,3 14,4 25,4 15,0 25,5 34,10 7,3 15,7 24,9 9,2 13,2 15,-1 3,-4 0,-10 -4,-17 -1,-2 -2,-4 -3,-5 -2,-4 -3,-7 -4,-10 -3,-8 -5,-13 -15,-19 -12,-6 -17,-5 -26,-4 -3,1 -6,1 -9,1 -6,1 -8,0 -9,0l0 0 0 -1c13,-11 34,-3 44,0 1,0 2,1 3,1 2,0 3,0 5,-1 3,-2 4,-9 4,-9 0,-2 1,-3 1,-3 0,0 1,-1 1,-1 2,5 2,15 3,19l0 0c11,40 26,49 27,49 33,17 44,15 52,13 1,0 3,0 4,0 3,-1 5,-2 7,-4 2,-3 1,-7 1,-9 0,-1 1,-1 1,-1 1,0 1,2 2,3l0 0c3,6 1,8 -2,10 -1,1 -2,3 -2,4 0,2 2,3 4,4 0,0 0,1 1,1 11,5 29,2 45,-9 15,-9 32,-45 39,-61l1 -2z"/>
   <path class="fil0" d="M81 241c0,-2 -2,-4 -4,-5 -4,-2 -9,-2 -9,-2 -7,0 -14,-2 -20,-5l0 0c-10,-5 -15,-12 -15,-12 0,0 -1,-1 -2,0 0,0 -1,1 0,2 3,13 18,31 30,37 8,4 15,3 18,-3 3,-5 3,-9 2,-12z"/>
   <path class="fil0" d="M114 274c2,-2 2,-4 2,-6 -1,-3 -4,-5 -6,-7 -2,0 -3,-1 -3,-1l0 0c-4,0 -8,-1 -11,-3l0 0c-5,-2 -7,-5 -7,-5 -1,-1 -2,0 -3,0 -5,5 -7,9 -6,13 0,5 5,8 11,11 11,5 17,5 23,-2z"/>
   <path class="fil0" d="M283 37l0 1c-5,9 -10,18 -25,12 0,-1 -3,-3 -6,-4 -9,-5 -17,-3 -22,5 -5,10 -5,10 -4,15 1,3 2,7 3,18 0,8 2,12 5,14l0 0c2,1 5,1 7,0 7,-3 14,-12 15,-18 3,-8 6,-23 28,-20 17,3 23,-4 28,-9 2,-2 4,-3 6,-4 5,-2 14,-4 25,1 5,3 10,7 14,12 1,0 2,0 2,0 0,0 5,-2 7,-7 1,-3 -1,-6 -3,-10 -3,-4 -7,-7 -13,-9 -11,-6 -24,-8 -33,-5 -1,0 -8,1 -14,-2 0,0 -1,0 -2,-1 0,0 0,0 -1,0 0,0 -11,2 -17,11z"/>
   <path class="fil0" d="M451 414c1,1 3,2 4,4 4,5 8,7 11,5 1,-1 2,-4 2,-7 0,-5 1,-14 10,-30 5,-9 7,-14 6,-18 -1,-4 -6,-7 -13,-11 -14,-7 -25,8 -25,8l0 0c-21,48 -30,52 -30,52 -1,0 -1,0 -2,1 0,1 0,1 1,2 1,0 2,1 2,2 6,2 11,0 17,-3 1,0 2,-1 3,-1 1,-1 3,-1 4,-2 4,-2 7,-3 10,-2z"/>
   <path class="fil0" d="M167 46c2,0 3,1 5,1 6,0 9,-2 12,-5 6,-5 14,-12 46,-6l1 0c0,0 15,-1 27,6 1,0 1,0 2,0l0 0c1,1 5,3 10,1 4,-2 7,-6 10,-12 1,-2 4,-5 6,-5 0,0 1,0 1,0 0,0 1,-1 1,-1 0,-1 -1,-4 -3,-5 -2,-1 -6,-1 -11,-1l0 0c-1,0 -11,3 -17,6 0,0 -1,0 -1,0 -8,-4 -35,-16 -61,-1l0 0c-1,0 -7,6 -16,3 -8,-3 -11,-2 -12,1l0 0 -1 0c0,1 -4,8 -2,13 0,2 1,4 3,5z"/>
   <path class="fil0" d="M68 85l0 0c18,4 29,-2 30,-2 0,-1 0,-1 0,-1 9,-11 18,-13 18,-13 0,0 1,0 1,-1 5,-6 16,-10 30,-11 12,-1 15,-7 15,-8 0,0 0,-1 0,-1 -1,0 -1,-1 -1,-1 -1,0 -2,0 -3,-1 -7,-3 -3,-12 -3,-12 1,0 1,-1 0,-2 0,0 0,0 -1,0 -10,0 -25,11 -26,12 0,0 0,0 0,0 -8,15 -20,18 -20,18 -24,3 -40,19 -41,20 0,1 0,1 0,2 0,0 0,1 1,1z"/>
   <path class="fil0" d="M38 139c4,2 10,2 17,-11 0,0 0,0 0,0 1,-1 1,-19 19,-20 0,0 1,0 1,0 4,-3 11,-7 14,-6 1,0 1,0 1,0 1,-1 3,-2 3,-4 0,-2 -1,-3 -3,-4 -1,-1 -3,-1 -6,-2l0 0c0,0 -40,-2 -52,40 0,0 0,0 0,1 0,0 2,4 6,6z"/>
   <path class="fil0" d="M50 222c12,6 23,4 29,0 4,-3 6,-7 5,-10 -1,-11 9,-27 9,-27 0,0 0,-1 0,-2 -1,0 -2,0 -2,0 -7,3 -18,2 -18,2 -10,-2 -18,-5 -24,-8 -5,-2 -8,-5 -9,-9 0,-1 0,-2 0,-3 5,5 9,8 13,10 8,4 14,3 19,3 3,0 5,-1 8,0 7,0 22,-1 23,-6 0,-2 0,-3 -3,-5 -6,-3 -11,-9 -13,-16 0,-2 -1,-6 1,-9 3,-5 5,-13 3,-19 -1,-4 -4,-8 -8,-9 -10,-3 -16,5 -19,10 -3,5 -3,14 -3,16 -4,8 -17,6 -19,6 -5,-3 -9,-3 -11,-2 -4,2 -4,6 -4,7 0,0 0,0 1,0 2,5 0,12 0,13 -14,19 -3,35 -3,36 8,10 16,18 25,22z"/>
  </g>
 </g>
</svg>
